Sniglet_Regular.ufo
<glyph name="exclam" format="1">
  <advance width="446"/>
  <unicode hex="0021"/>
  <outline>
    <contour>
      <point x="62" y="408"/>
      <point x="83" y="248"/>
      <point x="224" y="248" type="curve" smooth="yes"/>
      <point x="349" y="248"/>
      <point x="383" y="371"/>
      <point x="383" y="371" type="curve" smooth="yes"/>
      <point x="383" y="371"/>
      <point x="414" y="486"/>
      <point x="383" y="615" type="curve" smooth="yes"/>
      <point x="350" y="751"/>
      <point x="224" y="754"/>
      <point x="224" y="754" type="curve" smooth="yes"/>
      <point x="68" y="754"/>
      <point x="57" y="594"/>
      <point x="57" y="594" type="curve" smooth="yes"/>
      <point x="57" y="594"/>
      <point x="45" y="476"/>
      <point x="62" y="408" type="curve"/>
    </contour>
    <contour>
      <point x="353" y="17"/>
      <point x="295" y="-31"/>
      <point x="223" y="-31" type="curve" smooth="yes"/>
      <point x="152" y="-31"/>
      <point x="94" y="17"/>
      <point x="94" y="77" type="curve" smooth="yes"/>
      <point x="94" y="137"/>
      <point x="152" y="185"/>
      <point x="223" y="185" type="curve" smooth="yes"/>
      <point x="295" y="185"/>
      <point x="353" y="137"/>
      <point x="353" y="77" type="curve" smooth="yes"/>
    </contour>
  </outline>
</glyph>
<glyph name="quotedbl" format="1">
  <advance width="448"/>
  <unicode hex="0022"/>
  <outline>
    <contour>
      <point x="195" y="741"/>
      <point x="168" y="754"/>
      <point x="143" y="765" type="curve"/>
      <point x="114" y="775"/>
      <point x="61" y="777"/>
      <point x="42" y="714" type="curve" smooth="yes"/>
      <point x="20" y="643"/>
      <point x="49" y="539"/>
      <point x="49" y="539" type="curve" smooth="yes"/>
      <point x="49" y="539"/>
      <point x="59" y="482"/>
      <point x="107" y="479" type="curve" smooth="yes"/>
      <point x="152" y="477"/>
      <point x="173" y="524"/>
      <point x="173" y="524" type="curve"/>
      <point x="189" y="555"/>
      <point x="205" y="633"/>
      <point x="201" y="678" type="curve" smooth="yes"/>
    </contour>
    <contour>
      <point x="398" y="741"/>
      <point x="371" y="754"/>
      <point x="346" y="765" type="curve"/>
      <point x="317" y="775"/>
      <point x="264" y="777"/>
      <point x="245" y="714" type="curve" smooth="yes"/>
      <point x="223" y="643"/>
      <point x="252" y="539"/>
      <point x="252" y="539" type="curve" smooth="yes"/>
      <point x="252" y="539"/>
      <point x="262" y="482"/>
      <point x="310" y="479" type="curve" smooth="yes"/>
      <point x="355" y="477"/>
      <point x="376" y="524"/>
      <point x="376" y="524" type="curve"/>
      <point x="392" y="555"/>
      <point x="408" y="633"/>
      <point x="404" y="678" type="curve" smooth="yes"/>
    </contour>
  </outline>
</glyph>
<glyph name="numbersign" format="1">
  <advance width="759"/>
  <unicode hex="0023"/>
  <outline>
    <contour>
      <point x="735" y="391"/>
      <point x="723" y="462"/>
      <point x="723" y="462" type="curve" smooth="yes"/>
      <point x="723" y="462"/>
      <point x="728" y="525"/>
      <point x="651" y="537" type="curve"/>
      <point x="642" y="538"/>
      <point x="633" y="539"/>
      <point x="624" y="540" type="curve"/>
      <point x="626" y="557"/>
      <point x="628" y="574"/>
      <point x="629" y="591" type="curve" smooth="yes"/>
      <point x="636" y="670"/>
      <point x="564" y="671"/>
      <point x="564" y="671" type="curve" smooth="yes"/>
      <point x="564" y="671"/>
      <point x="503" y="687"/>
      <point x="478" y="613" type="curve" smooth="yes"/>
      <point x="471" y="594"/>
      <point x="465" y="573"/>
      <point x="459" y="552" type="curve"/>
      <point x="433" y="552"/>
      <point x="407" y="553"/>
      <point x="381" y="553" type="curve"/>
      <point x="382" y="565"/>
      <point x="384" y="578"/>
      <point x="385" y="591" type="curve" smooth="yes"/>
      <point x="392" y="670"/>
      <point x="320" y="671"/>
      <point x="320" y="671" type="curve" smooth="yes"/>
      <point x="320" y="671"/>
      <point x="258" y="687"/>
      <point x="234" y="613" type="curve"/>
      <point x="226" y="591"/>
      <point x="219" y="568"/>
      <point x="213" y="544" type="curve"/>
      <point x="190" y="541"/>
      <point x="170" y="538"/>
      <point x="153" y="535" type="curve" smooth="yes"/>
      <point x="84" y="521"/>
      <point x="87" y="457"/>
      <point x="87" y="457" type="curve" smooth="yes"/>
      <point x="87" y="457"/>
      <point x="91" y="392"/>
      <point x="164" y="387" type="curve"/>
      <point x="164" y="387"/>
      <point x="169" y="386"/>
      <point x="177" y="386" type="curve"/>
      <point x="173" y="369"/>
      <point x="170" y="352"/>
      <point x="168" y="335" type="curve"/>
      <point x="144" y="333"/>
      <point x="123" y="330"/>
      <point x="106" y="326" type="curve" smooth="yes"/>
      <point x="36" y="312"/>
      <point x="39" y="248"/>
      <point x="39" y="248" type="curve" smooth="yes"/>
      <point x="39" y="248"/>
      <point x="44" y="183"/>
      <point x="117" y="178" type="curve"/>
      <point x="117" y="178"/>
      <point x="128" y="177"/>
      <point x="148" y="175" type="curve"/>
      <point x="147" y="156"/>
      <point x="147" y="138"/>
      <point x="147" y="123" type="curve" smooth="yes"/>
      <point x="149" y="53"/>
      <point x="212" y="44"/>
      <point x="212" y="44" type="curve" smooth="yes"/>
      <point x="212" y="44"/>
      <point x="277" y="37"/>
      <point x="295" y="108" type="curve"/>
      <point x="295" y="108"/>
      <point x="301" y="130"/>
      <point x="310" y="168" type="curve"/>
      <point x="336" y="167"/>
      <point x="364" y="167"/>
      <point x="392" y="167" type="curve"/>
      <point x="391" y="151"/>
      <point x="391" y="136"/>
      <point x="392" y="123" type="curve"/>
      <point x="393" y="53"/>
      <point x="456" y="44"/>
      <point x="456" y="44" type="curve" smooth="yes"/>
      <point x="456" y="44"/>
      <point x="521" y="37"/>
      <point x="539" y="108" type="curve"/>
      <point x="539" y="108"/>
      <point x="546" y="132"/>
      <point x="556" y="171" type="curve"/>
      <point x="573" y="172"/>
      <point x="591" y="174"/>
      <point x="608" y="175" type="curve" smooth="yes"/>
      <point x="687" y="182"/>
      <point x="675" y="253"/>
      <point x="675" y="253" type="curve" smooth="yes"/>
      <point x="675" y="253"/>
      <point x="680" y="317"/>
      <point x="603" y="328" type="curve"/>
      <point x="599" y="328"/>
      <point x="595" y="329"/>
      <point x="590" y="330" type="curve"/>
      <point x="594" y="346"/>
      <point x="597" y="363"/>
      <point x="600" y="380" type="curve"/>
      <point x="619" y="381"/>
      <point x="637" y="382"/>
      <point x="656" y="384" type="curve" smooth="yes"/>
    </contour>
    <contour>
      <point x="351" y="354"/>
      <point x="353" y="365"/>
      <point x="355" y="377" type="curve"/>
      <point x="375" y="376"/>
      <point x="397" y="376"/>
      <point x="419" y="375" type="curve"/>
      <point x="417" y="365"/>
      <point x="415" y="354"/>
      <point x="413" y="343" type="curve"/>
      <point x="392" y="343"/>
      <point x="370" y="344"/>
      <point x="349" y="344" type="curve"/>
    </contour>
  </outline>
</glyph>
<glyph name="dollar" format="1">
  <advance width="584"/>
  <unicode hex="0024"/>
  <outline>
    <contour>
      <point x="371" y="423"/>
      <point x="371" y="426"/>
      <point x="371" y="429" type="curve"/>
      <point x="432" y="431"/>
      <point x="528" y="447"/>
      <point x="528" y="527" type="curve" smooth="yes"/>
      <point x="528" y="571"/>
      <point x="502" y="627"/>
      <point x="368" y="642" type="curve"/>
      <point x="368" y="660"/>
      <point x="367" y="678"/>
      <point x="366" y="697" type="curve" smooth="yes"/>
      <point x="362" y="790"/>
      <point x="295" y="790"/>
      <point x="295" y="790" type="curve" smooth="yes"/>
      <point x="295" y="790"/>
      <point x="233" y="794"/>
      <point x="224" y="699" type="curve"/>
      <point x="223" y="682"/>
      <point x="222" y="661"/>
      <point x="220" y="636" type="curve"/>
      <point x="153" y="621"/>
      <point x="72" y="582"/>
      <point x="67" y="482" type="curve"/>
      <point x="67" y="482"/>
      <point x="55" y="355"/>
      <point x="209" y="314" type="curve"/>
      <point x="209" y="314"/>
      <point x="38" y="339"/>
      <point x="38" y="217" type="curve"/>
      <point x="38" y="217"/>
      <point x="22" y="108"/>
      <point x="214" y="78" type="curve"/>
      <point x="215" y="60"/>
      <point x="215" y="41"/>
      <point x="216" y="23" type="curve" smooth="yes"/>
      <point x="219" y="-58"/>
      <point x="285" y="-48"/>
      <point x="285" y="-48" type="curve" smooth="yes"/>
      <point x="285" y="-48"/>
      <point x="343" y="-54"/>
      <point x="353" y="23" type="curve"/>
      <point x="353" y="23"/>
      <point x="355" y="41"/>
      <point x="358" y="74" type="curve"/>
      <point x="418" y="84"/>
      <point x="532" y="121"/>
      <point x="532" y="258" type="curve"/>
      <point x="532" y="258"/>
      <point x="544" y="379"/>
      <point x="371" y="421" type="curve"/>
    </contour>
  </outline>
</glyph>
<glyph name="percent" format="1">
  <advance width="743"/>
  <unicode hex="0025"/>
  <outline>
    <contour>
      <point x="273" y="55"/>
      <point x="479" y="351"/>
      <point x="562" y="580" type="curve" smooth="yes"/>
      <point x="590" y="661"/>
      <point x="535" y="675"/>
      <point x="535" y="675" type="curve" smooth="yes"/>
      <point x="535" y="675"/>
      <point x="474" y="710"/>
      <point x="429" y="640" type="curve" smooth="yes"/>
      <point x="370" y="551"/>
      <point x="190" y="236"/>
      <point x="153" y="117" type="curve" smooth="yes"/>
      <point x="132" y="47"/>
      <point x="184" y="26"/>
      <point x="184" y="26" type="curve" smooth="yes"/>
      <point x="184" y="26"/>
      <point x="233" y="-1"/>
      <point x="273" y="55" type="curve"/>
    </contour>
    <contour>
      <point x="290" y="424"/>
      <point x="217" y="397"/>
      <point x="144" y="411" type="curve" smooth="yes"/>
      <point x="71" y="425"/>
      <point x="25" y="483"/>
      <point x="38" y="557" type="curve" smooth="yes"/>
      <point x="52" y="630"/>
      <point x="107" y="689"/>
      <point x="200" y="672" type="curve" smooth="yes"/>
      <point x="289" y="655"/>
      <point x="321" y="587"/>
      <point x="307" y="514" type="curve" smooth="yes"/>
    </contour>
    <contour>
      <point x="649" y="28"/>
      <point x="576" y="2"/>
      <point x="503" y="15" type="curve" smooth="yes"/>
      <point x="429" y="29"/>
      <point x="384" y="88"/>
      <point x="397" y="161" type="curve" smooth="yes"/>
      <point x="411" y="234"/>
      <point x="466" y="294"/>
      <point x="559" y="277" type="curve" smooth="yes"/>
      <point x="648" y="260"/>
      <point x="680" y="192"/>
      <point x="666" y="119" type="curve" smooth="yes"/>
    </contour>
  </outline>
</glyph>
<glyph name="ampersand" format="1">
  <advance width="798"/>
  <unicode hex="0026"/>
  <outline>
    <contour>
      <point x="62" y="377"/>
      <point x="46" y="265"/>
      <point x="46" y="265" type="curve"/>
      <point x="6" y="64"/>
      <point x="159" y="-16"/>
      <point x="159" y="-16" type="curve"/>
      <point x="335" y="-113"/>
      <point x="488" y="8"/>
      <point x="488" y="8" type="curve" smooth="yes"/>
      <point x="488" y="8"/>
      <point x="582" y="-134"/>
      <point x="688" y="-57" type="curve" smooth="yes"/>
      <point x="809" y="32"/>
      <point x="672" y="158"/>
      <point x="672" y="158" type="curve" smooth="yes"/>
      <point x="672" y="158"/>
      <point x="812" y="258"/>
      <point x="745" y="345" type="curve" smooth="yes"/>
      <point x="677" y="431"/>
      <point x="568" y="321"/>
      <point x="568" y="321" type="curve"/>
      <point x="530" y="402"/>
      <point x="464" y="467"/>
      <point x="464" y="467" type="curve"/>
      <point x="568" y="602"/>
      <point x="464" y="706"/>
      <point x="464" y="706" type="curve"/>
      <point x="394" y="777"/>
      <point x="268" y="780"/>
      <point x="188" y="700" type="curve" smooth="yes"/>
      <point x="98" y="610"/>
      <point x="175" y="467"/>
      <point x="175" y="467" type="curve"/>
    </contour>
    <contour>
      <point x="349" y="200" type="line"/>
      <point x="349" y="200"/>
      <point x="311" y="150"/>
      <point x="280" y="190" type="curve"/>
      <point x="280" y="190"/>
      <point x="246" y="228"/>
      <point x="308" y="258" type="curve"/>
    </contour>
  </outline>
</glyph>
<glyph name="quotesingle" format="1">
  <advance width="224"/>
  <unicode hex="0027"/>
  <outline>
    <contour>
      <point x="192" y="741"/>
      <point x="165" y="754"/>
      <point x="140" y="765" type="curve"/>
      <point x="111" y="775"/>
      <point x="58" y="777"/>
      <point x="39" y="714" type="curve" smooth="yes"/>
      <point x="17" y="643"/>
      <point x="46" y="539"/>
      <point x="46" y="539" type="curve" smooth="yes"/>
      <point x="46" y="539"/>
      <point x="56" y="482"/>
      <point x="104" y="479" type="curve" smooth="yes"/>
      <point x="149" y="477"/>
      <point x="170" y="524"/>
      <point x="170" y="524" type="curve"/>
      <point x="186" y="555"/>
      <point x="202" y="633"/>
      <point x="198" y="678" type="curve" smooth="yes"/>
    </contour>
  </outline>
</glyph>
<glyph name="parenleft" format="1">
  <advance width="444"/>
  <unicode hex="0028"/>
  <outline>
    <contour>
      <point x="146" y="746"/>
      <point x="-65" y="428"/>
      <point x="109" y="64" type="curve" smooth="yes"/>
      <point x="140" y="-1"/>
      <point x="224" y="-107"/>
      <point x="329" y="-65" type="curve" smooth="yes"/>
      <point x="436" y="-22"/>
      <point x="394" y="71"/>
      <point x="394" y="71" type="curve" smooth="yes"/>
      <point x="394" y="71"/>
      <point x="264" y="330"/>
      <point x="381" y="660" type="curve"/>
      <point x="381" y="660"/>
      <point x="420" y="761"/>
      <point x="323" y="804" type="curve" smooth="yes"/>
      <point x="243" y="839"/>
      <point x="182" y="804"/>
      <point x="146" y="746" type="curve"/>
    </contour>
  </outline>
</glyph>
<glyph name="parenright" format="1">
  <advance width="447"/>
  <unicode hex="0029"/>
  <outline>
    <contour>
      <point x="300" y="-3"/>
      <point x="511" y="315"/>
      <point x="337" y="679" type="curve" smooth="yes"/>
      <point x="306" y="744"/>
      <point x="222" y="850"/>
      <point x="117" y="808" type="curve" smooth="yes"/>
      <point x="10" y="765"/>
      <point x="52" y="672"/>
      <point x="52" y="672" type="curve" smooth="yes"/>
      <point x="52" y="672"/>
      <point x="182" y="413"/>
      <point x="65" y="83" type="curve"/>
      <point x="65" y="83"/>
      <point x="26" y="-18"/>
      <point x="123" y="-61" type="curve" smooth="yes"/>
      <point x="203" y="-96"/>
      <point x="264" y="-61"/>
      <point x="300" y="-3" type="curve"/>
    </contour>
  </outline>
</glyph>
<glyph name="asterisk" format="1">
  <advance width="625"/>
  <unicode hex="002A"/>
  <outline>
    <contour>
      <point x="244" y="590"/>
      <point x="141" y="670"/>
      <point x="82" y="576" type="curve" smooth="yes"/>
      <point x="27" y="487"/>
      <point x="160" y="443"/>
      <point x="160" y="443" type="curve"/>
      <point x="71" y="377"/>
      <point x="138" y="310"/>
      <point x="138" y="310" type="curve"/>
      <point x="227" y="232"/>
      <point x="281" y="336"/>
      <point x="281" y="336" type="curve" smooth="yes"/>
      <point x="281" y="336"/>
      <point x="323" y="212"/>
      <point x="415" y="266" type="curve" smooth="yes"/>
      <point x="504" y="319"/>
      <point x="425" y="409"/>
      <point x="425" y="409" type="curve" smooth="yes"/>
      <point x="425" y="409"/>
      <point x="547" y="377"/>
      <point x="547" y="498" type="curve" smooth="yes"/>
      <point x="547" y="620"/>
      <point x="404" y="576"/>
      <point x="404" y="576" type="curve"/>
      <point x="448" y="709"/>
      <point x="326" y="709"/>
      <point x="326" y="709" type="curve" smooth="yes"/>
      <point x="217" y="709"/>
      <point x="244" y="590"/>
      <point x="244" y="590" type="curve" smooth="yes"/>
    </contour>
  </outline>
</glyph>
<glyph name="plus" format="1">
  <advance width="618"/>
  <unicode hex="002B"/>
  <outline>
    <contour>
      <point x="576" y="358"/>
      <point x="577" y="438"/>
      <point x="490" y="459" type="curve" smooth="yes"/>
      <point x="471" y="464"/>
      <point x="448" y="468"/>
      <point x="422" y="471" type="curve"/>
      <point x="419" y="489"/>
      <point x="415" y="508"/>
      <point x="411" y="527" type="curve" smooth="yes"/>
      <point x="389" y="620"/>
      <point x="296" y="613"/>
      <point x="296" y="613" type="curve" smooth="yes"/>
      <point x="296" y="613"/>
      <point x="216" y="613"/>
      <point x="195" y="527" type="curve" smooth="yes"/>
      <point x="190" y="509"/>
      <point x="187" y="488"/>
      <point x="184" y="465" type="curve"/>
      <point x="155" y="460"/>
      <point x="128" y="454"/>
      <point x="109" y="445" type="curve" smooth="yes"/>
      <point x="44" y="416"/>
      <point x="44" y="344"/>
      <point x="44" y="344" type="curve" smooth="yes"/>
      <point x="44" y="344"/>
      <point x="37" y="243"/>
      <point x="130" y="229" type="curve"/>
      <point x="130" y="229"/>
      <point x="151" y="224"/>
      <point x="189" y="221" type="curve"/>
      <point x="194" y="191"/>
      <point x="200" y="165"/>
      <point x="209" y="145" type="curve" smooth="yes"/>
      <point x="238" y="80"/>
      <point x="310" y="80"/>
      <point x="310" y="80" type="curve" smooth="yes"/>
      <point x="310" y="80"/>
      <point x="411" y="73"/>
      <point x="425" y="167" type="curve"/>
      <point x="425" y="167"/>
      <point x="431" y="190"/>
      <point x="434" y="232" type="curve"/>
      <point x="452" y="235"/>
      <point x="471" y="239"/>
      <point x="490" y="243" type="curve" smooth="yes"/>
      <point x="584" y="265"/>
      <point x="576" y="358"/>
      <point x="576" y="358" type="curve" smooth="yes"/>
    </contour>
  </outline>
</glyph>
<glyph name="comma" format="1">
  <advance width="326"/>
  <unicode hex="002C"/>
  <outline>
    <contour>
      <point x="272" y="117" type="line"/>
      <point x="269" y="183"/>
      <point x="226" y="236"/>
      <point x="146" y="236" type="curve" smooth="yes"/>
      <point x="65" y="236"/>
      <point x="21" y="180"/>
      <point x="21" y="111" type="curve" smooth="yes"/>
      <point x="21" y="44"/>
      <point x="61" y="-10"/>
      <point x="137" y="-15" type="curve"/>
      <point x="138" y="-28"/>
      <point x="140" y="-46"/>
      <point x="121" y="-46" type="curve" smooth="yes"/>
      <point x="121" y="-46"/>
      <point x="102" y="-46"/>
      <point x="96" y="-65" type="curve"/>
      <point x="96" y="-65"/>
      <point x="84" y="-97"/>
      <point x="121" y="-103" type="curve"/>
      <point x="121" y="-103"/>
      <point x="284" y="-134"/>
      <point x="272" y="117" type="curve"/>
    </contour>
  </outline>
</glyph>
<glyph name="period" format="1">
  <advance width="352"/>
  <unicode hex="002E"/>
  <outline>
    <contour>
      <point x="301" y="185"/>
      <point x="257" y="242"/>
      <point x="175" y="242" type="curve" smooth="yes"/>
      <point x="94" y="242"/>
      <point x="49" y="185"/>
      <point x="49" y="116" type="curve" smooth="yes"/>
      <point x="49" y="46"/>
      <point x="94" y="-10"/>
      <point x="175" y="-10" type="curve" smooth="yes"/>
      <point x="257" y="-10"/>
      <point x="301" y="46"/>
      <point x="301" y="116" type="curve" smooth="yes"/>
    </contour>
  </outline>
</glyph>
<glyph name="slash" format="1">
  <advance width="429"/>
  <unicode hex="002F"/>
  <outline>
    <contour>
      <point x="187" y="16"/>
      <point x="355" y="392"/>
      <point x="399" y="668" type="curve" smooth="yes"/>
      <point x="414" y="765"/>
      <point x="349" y="769"/>
      <point x="349" y="769" type="curve" smooth="yes"/>
      <point x="349" y="769"/>
      <point x="274" y="795"/>
      <point x="237" y="707" type="curve" smooth="yes"/>
      <point x="190" y="595"/>
      <point x="54" y="202"/>
      <point x="38" y="60" type="curve" smooth="yes"/>
      <point x="29" y="-23"/>
      <point x="92" y="-35"/>
      <point x="92" y="-35" type="curve" smooth="yes"/>
      <point x="92" y="-35"/>
      <point x="153" y="-55"/>
      <point x="187" y="16" type="curve"/>
    </contour>
  </outline>
</glyph>
<glyph name="zero" format="1">
  <advance width="592"/>
  <unicode hex="0030"/>
  <outline>
    <contour>
      <point x="564" y="504"/>
      <point x="541" y="706"/>
      <point x="301" y="706" type="curve" smooth="yes"/>
      <point x="79" y="706"/>
      <point x="38" y="504"/>
      <point x="38" y="310" type="curve" smooth="yes"/>
      <point x="38" y="116"/>
      <point x="151" y="4"/>
      <point x="301" y="4" type="curve" smooth="yes"/>
      <point x="451" y="4"/>
      <point x="564" y="116"/>
      <point x="564" y="310" type="curve" smooth="yes"/>
    </contour>
    <contour>
      <point x="329" y="382"/>
      <point x="344" y="367"/>
      <point x="344" y="337" type="curve" smooth="yes"/>
      <point x="344" y="319"/>
      <point x="336" y="300"/>
      <point x="308" y="300" type="curve" smooth="yes"/>
      <point x="283" y="300"/>
      <point x="269" y="315"/>
      <point x="269" y="338" type="curve" smooth="yes"/>
      <point x="269" y="367"/>
      <point x="284" y="382"/>
      <point x="308" y="382" type="curve" smooth="yes"/>
    </contour>
  </outline>
</glyph>
<glyph name="one" format="1">
  <advance width="492"/>
  <unicode hex="0031"/>
  <outline>
    <contour>
      <point x="206" y="454"/>
      <point x="155" y="279"/>
      <point x="187" y="120" type="curve"/>
      <point x="187" y="120"/>
      <point x="208" y="0"/>
      <point x="312" y="0" type="curve"/>
      <point x="312" y="0"/>
      <point x="441" y="-10"/>
      <point x="454" y="174" type="curve"/>
      <point x="454" y="174"/>
      <point x="497" y="574"/>
      <point x="366" y="664" type="curve"/>
      <point x="366" y="664"/>
      <point x="277" y="730"/>
      <point x="142" y="664" type="curve"/>
      <point x="142" y="664"/>
      <point x="-28" y="580"/>
      <point x="36" y="454" type="curve" smooth="yes"/>
      <point x="83" y="361"/>
      <point x="206" y="454"/>
      <point x="206" y="454" type="curve" smooth="yes"/>
    </contour>
  </outline>
</glyph>
<glyph name="two" format="1">
  <advance width="582"/>
  <unicode hex="0032"/>
  <outline>
    <contour>
      <point x="226" y="706"/>
      <point x="23" y="685"/>
      <point x="29" y="550" type="curve"/>
      <point x="29" y="550"/>
      <point x="38" y="447"/>
      <point x="127" y="465" type="curve"/>
      <point x="127" y="465"/>
      <point x="192" y="495"/>
      <point x="226" y="448" type="curve" smooth="yes"/>
      <point x="253" y="411"/>
      <point x="220" y="363"/>
      <point x="183" y="332" type="curve" smooth="yes"/>
      <point x="106" y="267"/>
      <point x="30" y="227"/>
      <point x="43" y="114" type="curve"/>
      <point x="43" y="114"/>
      <point x="51" y="-3"/>
      <point x="264" y="-4" type="curve"/>
      <point x="264" y="-4"/>
      <point x="544" y="-21"/>
      <point x="548" y="117" type="curve" smooth="yes"/>
      <point x="552" y="259"/>
      <point x="388" y="254"/>
      <point x="388" y="254" type="curve" smooth="yes"/>
      <point x="388" y="254"/>
      <point x="557" y="435"/>
      <point x="463" y="609" type="curve"/>
      <point x="463" y="609"/>
      <point x="413" y="721"/>
      <point x="226" y="706" type="curve"/>
    </contour>
  </outline>
</glyph>
<glyph name="three" format="1">
  <advance width="618"/>
  <unicode hex="0033"/>
  <outline>
    <contour>
      <point x="246" y="709"/>
      <point x="46" y="707"/>
      <point x="44" y="587" type="curve"/>
      <point x="44" y="587"/>
      <point x="29" y="471"/>
      <point x="244" y="495" type="curve"/>
      <point x="244" y="495"/>
      <point x="130" y="472"/>
      <point x="130" y="397" type="curve"/>
      <point x="130" y="397"/>
      <point x="120" y="300"/>
      <point x="245" y="300" type="curve"/>
      <point x="245" y="300"/>
      <point x="295" y="303"/>
      <point x="312" y="274" type="curve"/>
      <point x="312" y="274"/>
      <point x="333" y="240"/>
      <point x="302" y="213" type="curve"/>
      <point x="302" y="213"/>
      <point x="265" y="181"/>
      <point x="203" y="219" type="curve"/>
      <point x="203" y="219"/>
      <point x="118" y="276"/>
      <point x="61" y="219" type="curve"/>
      <point x="61" y="219"/>
      <point x="-32" y="131"/>
      <point x="89" y="49" type="curve"/>
      <point x="89" y="49"/>
      <point x="264" y="-58"/>
      <point x="464" y="28" type="curve"/>
      <point x="464" y="28"/>
      <point x="605" y="92"/>
      <point x="584" y="279" type="curve"/>
      <point x="584" y="279"/>
      <point x="571" y="398"/>
      <point x="468" y="445" type="curve"/>
      <point x="468" y="445"/>
      <point x="553" y="537"/>
      <point x="500" y="634" type="curve" smooth="yes"/>
      <point x="451" y="723"/>
      <point x="246" y="709"/>
      <point x="246" y="709" type="curve" smooth="yes"/>
    </contour>
  </outline>
</glyph>
<glyph name="four" format="1">
  <advance width="649"/>
  <unicode hex="0034"/>
  <outline>
    <contour>
      <point x="613" y="288"/>
      <point x="613" y="374"/>
      <point x="536" y="376" type="curve" smooth="yes"/>
      <point x="536" y="376"/>
      <point x="559" y="656"/>
      <point x="402" y="699" type="curve"/>
      <point x="402" y="699"/>
      <point x="224" y="756"/>
      <point x="102" y="540" type="curve"/>
      <point x="102" y="540"/>
      <point x="-56" y="266"/>
      <point x="102" y="223" type="curve"/>
      <point x="102" y="223"/>
      <point x="160" y="202"/>
      <point x="265" y="202" type="curve"/>
      <point x="265" y="202"/>
      <point x="234" y="-7"/>
      <point x="396" y="-7" type="curve" smooth="yes"/>
      <point x="571" y="-7"/>
      <point x="536" y="202"/>
      <point x="536" y="202" type="curve" smooth="yes"/>
      <point x="536" y="202"/>
      <point x="613" y="207"/>
      <point x="613" y="288" type="curve"/>
    </contour>
    <contour>
      <point x="275" y="432"/>
      <point x="289" y="411"/>
      <point x="289" y="390" type="curve" smooth="yes"/>
      <point x="289" y="367"/>
      <point x="272" y="353"/>
      <point x="250" y="353" type="curve" smooth="yes"/>
      <point x="228" y="353"/>
      <point x="212" y="362"/>
      <point x="210" y="390" type="curve" smooth="yes"/>
      <point x="208" y="411"/>
      <point x="227" y="432"/>
      <point x="250" y="432" type="curve" smooth="yes"/>
    </contour>
  </outline>
</glyph>
<glyph name="five" format="1">
  <advance width="591"/>
  <unicode hex="0035"/>
  <outline>
    <contour>
      <point x="159" y="682"/>
      <point x="62" y="651"/>
      <point x="58" y="529" type="curve" smooth="yes"/>
      <point x="54" y="396"/>
      <point x="106" y="362"/>
      <point x="192" y="333" type="curve"/>
      <point x="192" y="333"/>
      <point x="279" y="312"/>
      <point x="264" y="261" type="curve"/>
      <point x="264" y="261"/>
      <point x="258" y="202"/>
      <point x="169" y="248" type="curve"/>
      <point x="169" y="248"/>
      <point x="78" y="296"/>
      <point x="44" y="200" type="curve"/>
      <point x="44" y="200"/>
      <point x="-3" y="61"/>
      <point x="192" y="4" type="curve"/>
      <point x="192" y="4"/>
      <point x="432" y="-48"/>
      <point x="519" y="89" type="curve"/>
      <point x="519" y="89"/>
      <point x="608" y="222"/>
      <point x="523" y="360" type="curve"/>
      <point x="523" y="360"/>
      <point x="473" y="451"/>
      <point x="304" y="460" type="curve"/>
      <point x="304" y="460"/>
      <point x="511" y="446"/>
      <point x="513" y="574" type="curve"/>
      <point x="513" y="574"/>
      <point x="524" y="671"/>
      <point x="373" y="695" type="curve"/>
      <point x="373" y="695"/>
      <point x="246" y="717"/>
      <point x="159" y="682" type="curve"/>
    </contour>
  </outline>
</glyph>
<glyph name="six" format="1">
  <advance width="614"/>
  <unicode hex="0036"/>
  <outline>
    <contour>
      <point x="576" y="234"/>
      <point x="583" y="443"/>
      <point x="374" y="443" type="curve" smooth="yes"/>
      <point x="374" y="443"/>
      <point x="388" y="464"/>
      <point x="432" y="515" type="curve"/>
      <point x="432" y="515"/>
      <point x="519" y="606"/>
      <point x="427" y="675" type="curve"/>
      <point x="427" y="675"/>
      <point x="331" y="754"/>
      <point x="221" y="655" type="curve"/>
      <point x="221" y="655"/>
      <point x="14" y="500"/>
      <point x="47" y="238" type="curve"/>
      <point x="47" y="238"/>
      <point x="81" y="-6"/>
      <point x="325" y="-6" type="curve"/>
      <point x="325" y="-6"/>
      <point x="576" y="-10"/>
      <point x="576" y="234" type="curve"/>
    </contour>
    <contour>
      <point x="340" y="274"/>
      <point x="354" y="253"/>
      <point x="354" y="232" type="curve" smooth="yes"/>
      <point x="354" y="209"/>
      <point x="337" y="195"/>
      <point x="315" y="195" type="curve" smooth="yes"/>
      <point x="293" y="195"/>
      <point x="277" y="204"/>
      <point x="275" y="232" type="curve" smooth="yes"/>
      <point x="273" y="253"/>
      <point x="292" y="274"/>
      <point x="315" y="274" type="curve" smooth="yes"/>
    </contour>
  </outline>
</glyph>
<glyph name="seven" format="1">
  <advance width="600"/>
  <unicode hex="0037"/>
  <outline>
    <contour>
      <point x="295" y="465"/>
      <point x="176" y="282"/>
      <point x="165" y="129" type="curve"/>
      <point x="165" y="129"/>
      <point x="151" y="34"/>
      <point x="250" y="1" type="curve"/>
      <point x="250" y="1"/>
      <point x="380" y="-41"/>
      <point x="442" y="115" type="curve"/>
      <point x="442" y="115"/>
      <point x="627" y="482"/>
      <point x="534" y="619" type="curve"/>
      <point x="534" y="619"/>
      <point x="487" y="711"/>
      <point x="321" y="718" type="curve"/>
      <point x="321" y="718"/>
      <point x="32" y="747"/>
      <point x="39" y="545" type="curve" smooth="yes"/>
      <point x="44" y="393"/>
      <point x="295" y="465"/>
      <point x="295" y="465" type="curve" smooth="yes"/>
    </contour>
  </outline>
</glyph>
<glyph name="eight" format="1">
  <advance width="625"/>
  <unicode hex="0038"/>
  <outline>
    <contour>
      <point x="587" y="292"/>
      <point x="554" y="360"/>
      <point x="482" y="403" type="curve"/>
      <point x="513" y="432"/>
      <point x="527" y="473"/>
      <point x="527" y="528" type="curve" smooth="yes"/>
      <point x="527" y="645"/>
      <point x="434" y="710"/>
      <point x="308" y="710" type="curve" smooth="yes"/>
      <point x="181" y="710"/>
      <point x="87" y="644"/>
      <point x="86" y="528" type="curve" smooth="yes"/>
      <point x="85" y="480"/>
      <point x="101" y="437"/>
      <point x="138" y="404" type="curve"/>
      <point x="70" y="365"/>
      <point x="40" y="300"/>
      <point x="40" y="214" type="curve" smooth="yes"/>
      <point x="40" y="62"/>
      <point x="154" y="-18"/>
      <point x="313" y="-18" type="curve" smooth="yes"/>
      <point x="472" y="-18"/>
      <point x="587" y="62"/>
      <point x="587" y="214" type="curve" smooth="yes"/>
    </contour>
    <contour>
      <point x="341" y="273"/>
      <point x="355" y="252"/>
      <point x="355" y="231" type="curve" smooth="yes"/>
      <point x="355" y="208"/>
      <point x="338" y="194"/>
      <point x="316" y="194" type="curve" smooth="yes"/>
      <point x="294" y="194"/>
      <point x="278" y="203"/>
      <point x="276" y="231" type="curve" smooth="yes"/>
      <point x="274" y="252"/>
      <point x="293" y="273"/>
      <point x="316" y="273" type="curve" smooth="yes"/>
    </contour>
    <contour>
      <point x="341" y="537"/>
      <point x="355" y="516"/>
      <point x="355" y="495" type="curve" smooth="yes"/>
      <point x="355" y="472"/>
      <point x="338" y="458"/>
      <point x="316" y="458" type="curve" smooth="yes"/>
      <point x="294" y="458"/>
      <point x="278" y="467"/>
      <point x="276" y="495" type="curve" smooth="yes"/>
      <point x="274" y="516"/>
      <point x="293" y="537"/>
      <point x="316" y="537" type="curve" smooth="yes"/>
    </contour>
  </outline>
</glyph>
<glyph name="nine" format="1">
  <advance width="609"/>
  <unicode hex="0039"/>
  <outline>
    <contour>
      <point x="35" y="468"/>
      <point x="28" y="260"/>
      <point x="236" y="260" type="curve"/>
      <point x="236" y="260"/>
      <point x="222" y="238"/>
      <point x="179" y="188" type="curve"/>
      <point x="179" y="188"/>
      <point x="93" y="93"/>
      <point x="182" y="22" type="curve"/>
      <point x="182" y="22"/>
      <point x="272" y="-57"/>
      <point x="390" y="47" type="curve"/>
      <point x="390" y="47"/>
      <point x="604" y="206"/>
      <point x="572" y="468" type="curve"/>
      <point x="572" y="468"/>
      <point x="547" y="709"/>
      <point x="303" y="709" type="curve" smooth="yes"/>
      <point x="303" y="709"/>
      <point x="35" y="712"/>
      <point x="35" y="468" type="curve"/>
    </contour>
    <contour>
      <point x="336" y="472"/>
      <point x="350" y="451"/>
      <point x="350" y="430" type="curve" smooth="yes"/>
      <point x="350" y="407"/>
      <point x="333" y="393"/>
      <point x="311" y="393" type="curve" smooth="yes"/>
      <point x="289" y="393"/>
      <point x="273" y="402"/>
      <point x="271" y="430" type="curve" smooth="yes"/>
      <point x="269" y="451"/>
      <point x="288" y="472"/>
      <point x="311" y="472" type="curve" smooth="yes"/>
    </contour>
  </outline>
</glyph>
<glyph name="colon" format="1">
  <advance width="339"/>
  <unicode hex="003A"/>
  <outline>
    <contour>
      <point x="278" y="470"/>
      <point x="239" y="521"/>
      <point x="164" y="521" type="curve" smooth="yes"/>
      <point x="93" y="521"/>
      <point x="52" y="470"/>
      <point x="52" y="408" type="curve" smooth="yes"/>
      <point x="52" y="345"/>
      <point x="93" y="296"/>
      <point x="164" y="296" type="curve" smooth="yes"/>
      <point x="239" y="296"/>
      <point x="278" y="345"/>
      <point x="278" y="408" type="curve" smooth="yes"/>
    </contour>
    <contour>
      <point x="278" y="157"/>
      <point x="239" y="208"/>
      <point x="164" y="208" type="curve" smooth="yes"/>
      <point x="93" y="208"/>
      <point x="52" y="157"/>
      <point x="52" y="94" type="curve" smooth="yes"/>
      <point x="52" y="31"/>
      <point x="93" y="-18"/>
      <point x="164" y="-18" type="curve" smooth="yes"/>
      <point x="239" y="-18"/>
      <point x="278" y="31"/>
      <point x="278" y="94" type="curve" smooth="yes"/>
    </contour>
  </outline>
</glyph>
<glyph name="semicolon" format="1">
  <advance width="337"/>
  <unicode hex="003B"/>
  <outline>
    <contour>
      <point x="273" y="459"/>
      <point x="235" y="510"/>
      <point x="162" y="510" type="curve" smooth="yes"/>
      <point x="92" y="510"/>
      <point x="52" y="459"/>
      <point x="52" y="399" type="curve" smooth="yes"/>
      <point x="52" y="336"/>
      <point x="92" y="288"/>
      <point x="162" y="288" type="curve" smooth="yes"/>
      <point x="235" y="288"/>
      <point x="273" y="336"/>
      <point x="273" y="399" type="curve" smooth="yes"/>
    </contour>
    <contour>
      <point x="266" y="154"/>
      <point x="229" y="201"/>
      <point x="160" y="201" type="curve" smooth="yes"/>
      <point x="88" y="201"/>
      <point x="50" y="153"/>
      <point x="50" y="92" type="curve" smooth="yes"/>
      <point x="50" y="33"/>
      <point x="85" y="-13"/>
      <point x="151" y="-18" type="curve"/>
      <point x="152" y="-30"/>
      <point x="154" y="-46"/>
      <point x="138" y="-46" type="curve" smooth="yes"/>
      <point x="138" y="-46"/>
      <point x="121" y="-46"/>
      <point x="116" y="-62" type="curve"/>
      <point x="116" y="-62"/>
      <point x="105" y="-90"/>
      <point x="138" y="-94" type="curve"/>
      <point x="138" y="-94"/>
      <point x="280" y="-122"/>
      <point x="269" y="97" type="curve" smooth="yes"/>
    </contour>
  </outline>
</glyph>
<glyph name="less" format="1">
  <advance width="474"/>
  <unicode hex="003C"/>
  <outline>
    <contour>
      <point x="284" y="73"/>
      <point x="360" y="81"/>
      <point x="394" y="121" type="curve" smooth="yes"/>
      <point x="467" y="207"/>
      <point x="394" y="268"/>
      <point x="394" y="268" type="curve" smooth="yes"/>
      <point x="394" y="268"/>
      <point x="344" y="309"/>
      <point x="286" y="366" type="curve"/>
      <point x="329" y="412"/>
      <point x="366" y="441"/>
      <point x="366" y="441" type="curve"/>
      <point x="415" y="477"/>
      <point x="435" y="532"/>
      <point x="399" y="589" type="curve" smooth="yes"/>
      <point x="365" y="643"/>
      <point x="287" y="656"/>
      <point x="243" y="625" type="curve"/>
      <point x="239" y="623"/>
      <point x="34" y="490"/>
      <point x="34" y="364" type="curve" smooth="yes"/>
      <point x="34" y="234"/>
      <point x="239" y="110"/>
      <point x="243" y="106" type="curve"/>
    </contour>
  </outline>
</glyph>
<glyph name="equal" format="1">
  <advance width="536"/>
  <unicode hex="003D"/>
  <outline>
    <contour>
      <point x="398" y="550"/>
      <point x="277" y="572"/>
      <point x="144" y="548" type="curve" smooth="yes"/>
      <point x="40" y="530"/>
      <point x="53" y="458"/>
      <point x="53" y="458" type="curve" smooth="yes"/>
      <point x="53" y="458"/>
      <point x="52" y="390"/>
      <point x="145" y="378" type="curve" smooth="yes"/>
      <point x="240" y="366"/>
      <point x="318" y="364"/>
      <point x="417" y="385" type="curve" smooth="yes"/>
      <point x="502" y="404"/>
      <point x="488" y="471"/>
      <point x="488" y="471" type="curve" smooth="yes"/>
      <point x="488" y="471"/>
      <point x="488" y="531"/>
      <point x="398" y="550" type="curve"/>
    </contour>
    <contour>
      <point x="398" y="328"/>
      <point x="277" y="350"/>
      <point x="144" y="326" type="curve" smooth="yes"/>
      <point x="40" y="308"/>
      <point x="53" y="236"/>
      <point x="53" y="236" type="curve" smooth="yes"/>
      <point x="53" y="236"/>
      <point x="52" y="168"/>
      <point x="145" y="156" type="curve" smooth="yes"/>
      <point x="240" y="144"/>
      <point x="318" y="142"/>
      <point x="417" y="163" type="curve" smooth="yes"/>
      <point x="502" y="182"/>
      <point x="488" y="249"/>
      <point x="488" y="249" type="curve" smooth="yes"/>
      <point x="488" y="249"/>
      <point x="488" y="309"/>
      <point x="398" y="328" type="curve"/>
    </contour>
  </outline>
</glyph>
<glyph name="greater" format="1">
  <advance width="468"/>
  <unicode hex="003E"/>
  <outline>
    <contour>
      <point x="183" y="653"/>
      <point x="107" y="645"/>
      <point x="73" y="605" type="curve" smooth="yes"/>
      <point x="0" y="519"/>
      <point x="73" y="458"/>
      <point x="73" y="458" type="curve" smooth="yes"/>
      <point x="73" y="458"/>
      <point x="123" y="417"/>
      <point x="181" y="360" type="curve"/>
      <point x="138" y="314"/>
      <point x="101" y="285"/>
      <point x="101" y="285" type="curve"/>
      <point x="52" y="249"/>
      <point x="32" y="194"/>
      <point x="68" y="137" type="curve" smooth="yes"/>
      <point x="102" y="83"/>
      <point x="180" y="70"/>
      <point x="224" y="101" type="curve"/>
      <point x="228" y="103"/>
      <point x="433" y="236"/>
      <point x="433" y="362" type="curve" smooth="yes"/>
      <point x="433" y="492"/>
      <point x="228" y="616"/>
      <point x="224" y="620" type="curve"/>
    </contour>
  </outline>
</glyph>
<glyph name="question" format="1">
  <advance width="646"/>
  <unicode hex="003F"/>
  <outline>
    <contour>
      <point x="509" y="-8"/>
      <point x="454" y="-48"/>
      <point x="377" y="-48" type="curve" smooth="yes"/>
      <point x="300" y="-48"/>
      <point x="250" y="2"/>
      <point x="250" y="63" type="curve" smooth="yes"/>
      <point x="250" y="134"/>
      <point x="300" y="175"/>
      <point x="377" y="175" type="curve" smooth="yes"/>
      <point x="454" y="175"/>
      <point x="509" y="129"/>
      <point x="509" y="61" type="curve" smooth="yes"/>
    </contour>
    <contour>
      <point x="565" y="352"/>
      <point x="648" y="594"/>
      <point x="497" y="691" type="curve" smooth="yes"/>
      <point x="279" y="831"/>
      <point x="129" y="683"/>
      <point x="129" y="683" type="curve"/>
      <point x="-20" y="529"/>
      <point x="114" y="421"/>
      <point x="114" y="421" type="curve"/>
      <point x="210" y="341"/>
      <point x="319" y="454"/>
      <point x="319" y="454" type="curve" smooth="yes"/>
      <point x="319" y="454"/>
      <point x="214" y="291"/>
      <point x="305" y="234" type="curve" smooth="yes"/>
      <point x="446" y="145"/>
      <point x="525" y="290"/>
      <point x="525" y="290" type="curve"/>
    </contour>
  </outline>
</glyph>
<glyph name="at" format="1">
  <advance width="710"/>
  <unicode hex="0040"/>
  <outline>
    <contour>
      <point x="231" y="477" type="line" smooth="yes"/>
      <point x="231" y="477"/>
      <point x="218" y="522"/>
      <point x="145" y="515" type="curve" smooth="yes"/>
      <point x="32" y="505"/>
      <point x="42" y="375"/>
      <point x="42" y="375" type="curve"/>
      <point x="42" y="263"/>
      <point x="135" y="260"/>
      <point x="135" y="260" type="curve"/>
      <point x="221" y="250"/>
      <point x="235" y="302"/>
      <point x="235" y="302" type="curve"/>
      <point x="242" y="253"/>
      <point x="290" y="257"/>
      <point x="290" y="257" type="curve" smooth="yes"/>
      <point x="290" y="257"/>
      <point x="367" y="246"/>
      <point x="360" y="394" type="curve"/>
      <point x="360" y="394"/>
      <point x="359" y="519"/>
      <point x="287" y="519" type="curve" smooth="yes"/>
      <point x="242" y="519"/>
      <point x="231" y="477"/>
      <point x="231" y="477" type="curve" smooth="yes"/>
    </contour>
    <contour>
      <point x="216" y="395"/>
      <point x="224" y="388"/>
      <point x="224" y="375" type="curve" smooth="yes"/>
      <point x="224" y="363"/>
      <point x="216" y="357"/>
      <point x="206" y="357" type="curve" smooth="yes"/>
      <point x="196" y="357"/>
      <point x="188" y="363"/>
      <point x="188" y="375" type="curve" smooth="yes"/>
      <point x="188" y="388"/>
      <point x="196" y="395"/>
      <point x="206" y="395" type="curve" smooth="yes"/>
    </contour>
    <contour>
      <point x="414" y="542"/>
      <point x="359" y="530"/>
      <point x="359" y="476" type="curve" smooth="yes"/>
      <point x="359" y="399"/>
      <point x="457" y="418"/>
      <point x="457" y="418" type="curve"/>
      <point x="451" y="330"/>
      <point x="444" y="252"/>
      <point x="528" y="252" type="curve" smooth="yes"/>
      <point x="611" y="252"/>
      <point x="591" y="415"/>
      <point x="591" y="415" type="curve" smooth="yes"/>
      <point x="591" y="415"/>
      <point x="677" y="407"/>
      <point x="677" y="476" type="curve" smooth="yes"/>
      <point x="677" y="551"/>
      <point x="585" y="541"/>
      <point x="585" y="541" type="curve" smooth="yes"/>
      <point x="585" y="541"/>
      <point x="595" y="627"/>
      <point x="515" y="627" type="curve" smooth="yes"/>
      <point x="431" y="628"/>
      <point x="448" y="542"/>
      <point x="448" y="542" type="curve" smooth="yes"/>
    </contour>
    <contour>
      <point x="612" y="238"/>
      <point x="303" y="246"/>
      <point x="103" y="237" type="curve" smooth="yes"/>
      <point x="51" y="235"/>
      <point x="51" y="186"/>
      <point x="51" y="186" type="curve" smooth="yes"/>
      <point x="51" y="186"/>
      <point x="51" y="144"/>
      <point x="100" y="141" type="curve" smooth="yes"/>
      <point x="237" y="133"/>
      <point x="518" y="134"/>
      <point x="622" y="144" type="curve" smooth="yes"/>
      <point x="661" y="147"/>
      <point x="661" y="189"/>
      <point x="661" y="189" type="curve" smooth="yes"/>
      <point x="661" y="189"/>
      <point x="664" y="238"/>
      <point x="612" y="238" type="curve" smooth="yes"/>
    </contour>
  </outline>
</glyph>
<glyph name="A" format="1">
  <advance width="746"/>
  <unicode hex="0041"/>
  <outline>
    <contour>
      <point x="728" y="46"/>
      <point x="712" y="198"/>
      <point x="712" y="198" type="curve"/>
      <point x="705" y="388"/>
      <point x="635" y="514"/>
      <point x="577" y="598" type="curve" smooth="yes"/>
      <point x="489" y="725"/>
      <point x="380" y="722"/>
      <point x="373" y="722" type="curve" smooth="yes"/>
      <point x="366" y="722"/>
      <point x="257" y="725"/>
      <point x="170" y="598" type="curve" smooth="yes"/>
      <point x="111" y="514"/>
      <point x="41" y="388"/>
      <point x="34" y="198" type="curve"/>
      <point x="34" y="198"/>
      <point x="19" y="46"/>
      <point x="124" y="9" type="curve"/>
      <point x="124" y="9"/>
      <point x="207" y="-20"/>
      <point x="275" y="20" type="curve" smooth="yes"/>
      <point x="354" y="67"/>
      <point x="371" y="156"/>
      <point x="373" y="173" type="curve"/>
      <point x="375" y="156"/>
      <point x="392" y="67"/>
      <point x="471" y="20" type="curve" smooth="yes"/>
      <point x="539" y="-20"/>
      <point x="622" y="9"/>
      <point x="622" y="9" type="curve"/>
    </contour>
    <contour>
      <point x="402" y="369"/>
      <point x="416" y="348"/>
      <point x="416" y="327" type="curve" smooth="yes"/>
      <point x="416" y="304"/>
      <point x="399" y="290"/>
      <point x="377" y="290" type="curve" smooth="yes"/>
      <point x="355" y="290"/>
      <point x="339" y="299"/>
      <point x="337" y="327" type="curve" smooth="yes"/>
      <point x="335" y="348"/>
      <point x="354" y="369"/>
      <point x="377" y="369" type="curve" smooth="yes"/>
    </contour>
  </outline>
</glyph>
<glyph name="B" format="1">
  <advance width="668"/>
  <unicode hex="0042"/>
  <outline>
    <contour>
      <point x="373" y="714"/>
      <point x="148" y="745"/>
      <point x="77" y="563" type="curve"/>
      <point x="77" y="563"/>
      <point x="37" y="475"/>
      <point x="37" y="337" type="curve" smooth="yes"/>
      <point x="37" y="269"/>
      <point x="45" y="185"/>
      <point x="85" y="117" type="curve"/>
      <point x="85" y="117"/>
      <point x="147" y="-13"/>
      <point x="372" y="0" type="curve"/>
      <point x="372" y="0"/>
      <point x="649" y="9"/>
      <point x="636" y="229" type="curve"/>
      <point x="636" y="229"/>
      <point x="636" y="340"/>
      <point x="514" y="377" type="curve"/>
      <point x="514" y="377"/>
      <point x="638" y="432"/>
      <point x="598" y="577" type="curve"/>
      <point x="598" y="577"/>
      <point x="562" y="707"/>
      <point x="373" y="714" type="curve"/>
    </contour>
    <contour>
      <point x="364" y="514"/>
      <point x="378" y="496"/>
      <point x="378" y="476" type="curve" smooth="yes"/>
      <point x="378" y="455"/>
      <point x="364" y="433"/>
      <point x="338" y="433" type="curve" smooth="yes"/>
      <point x="308" y="433"/>
      <point x="298" y="455"/>
      <point x="298" y="476" type="curve" smooth="yes"/>
      <point x="298" y="498"/>
      <point x="316" y="514"/>
      <point x="338" y="514" type="curve" smooth="yes"/>
    </contour>
    <contour>
      <point x="372" y="274"/>
      <point x="386" y="253"/>
      <point x="386" y="232" type="curve" smooth="yes"/>
      <point x="386" y="209"/>
      <point x="369" y="195"/>
      <point x="347" y="195" type="curve" smooth="yes"/>
      <point x="325" y="195"/>
      <point x="309" y="204"/>
      <point x="307" y="232" type="curve" smooth="yes"/>
      <point x="305" y="253"/>
      <point x="324" y="274"/>
      <point x="347" y="274" type="curve" smooth="yes"/>
    </contour>
  </outline>
</glyph>
<glyph name="C" format="1">
  <advance width="695"/>
  <unicode hex="0043"/>
  <outline>
    <contour>
      <point x="622" y="403"/>
      <point x="653" y="484"/>
      <point x="653" y="484" type="curve"/>
      <point x="705" y="607"/>
      <point x="606" y="668"/>
      <point x="606" y="668" type="curve"/>
      <point x="468" y="750"/>
      <point x="291" y="704"/>
      <point x="291" y="704" type="curve"/>
      <point x="15" y="641"/>
      <point x="28" y="364"/>
      <point x="28" y="364" type="curve"/>
      <point x="21" y="75"/>
      <point x="243" y="19"/>
      <point x="243" y="19" type="curve"/>
      <point x="475" y="-45"/>
      <point x="595" y="28"/>
      <point x="595" y="28" type="curve"/>
      <point x="688" y="79"/>
      <point x="674" y="183"/>
      <point x="674" y="183" type="curve"/>
      <point x="657" y="319"/>
      <point x="500" y="292"/>
      <point x="500" y="292" type="curve"/>
      <point x="373" y="278"/>
      <point x="382" y="365"/>
      <point x="382" y="365" type="curve"/>
      <point x="387" y="449"/>
      <point x="497" y="426"/>
      <point x="497" y="426" type="curve"/>
    </contour>
  </outline>
</glyph>
<glyph name="D" format="1">
  <advance width="684"/>
  <unicode hex="0044"/>
  <outline>
    <contour>
      <point x="692" y="415"/>
      <point x="601" y="555"/>
      <point x="601" y="555" type="curve" smooth="yes"/>
      <point x="601" y="555"/>
      <point x="522" y="710"/>
      <point x="266" y="708" type="curve" smooth="yes"/>
      <point x="266" y="708"/>
      <point x="91" y="723"/>
      <point x="62" y="557" type="curve"/>
      <point x="62" y="557"/>
      <point x="40" y="452"/>
      <point x="40" y="312" type="curve" smooth="yes"/>
      <point x="40" y="243"/>
      <point x="37" y="143"/>
      <point x="76" y="75" type="curve"/>
      <point x="76" y="75"/>
      <point x="126" y="-12"/>
      <point x="283" y="-11" type="curve"/>
      <point x="283" y="-11"/>
      <point x="562" y="-33"/>
      <point x="624" y="180" type="curve" smooth="yes"/>
    </contour>
    <contour>
      <point x="372" y="384"/>
      <point x="386" y="363"/>
      <point x="386" y="342" type="curve" smooth="yes"/>
      <point x="386" y="319"/>
      <point x="369" y="305"/>
      <point x="347" y="305" type="curve" smooth="yes"/>
      <point x="325" y="305"/>
      <point x="307" y="310"/>
      <point x="307" y="342" type="curve" smooth="yes"/>
      <point x="307" y="375"/>
      <point x="324" y="384"/>
      <point x="347" y="384" type="curve" smooth="yes"/>
    </contour>
  </outline>
</glyph>
<glyph name="E" format="1">
  <advance width="668"/>
  <unicode hex="0045"/>
  <outline>
    <contour>
      <point x="343" y="711"/>
      <point x="85" y="734"/>
      <point x="53" y="549" type="curve"/>
      <point x="53" y="549"/>
      <point x="17" y="312"/>
      <point x="51" y="137" type="curve"/>
      <point x="51" y="137"/>
      <point x="69" y="-15"/>
      <point x="360" y="-8" type="curve"/>
      <point x="360" y="-8"/>
      <point x="618" y="-12"/>
      <point x="625" y="114" type="curve"/>
      <point x="625" y="114"/>
      <point x="638" y="245"/>
      <point x="387" y="241" type="curve" smooth="yes"/>
      <point x="387" y="241"/>
      <point x="495" y="262"/>
      <point x="495" y="345" type="curve"/>
      <point x="495" y="345"/>
      <point x="511" y="426"/>
      <point x="358" y="451" type="curve"/>
      <point x="358" y="451"/>
      <point x="626" y="425"/>
      <point x="623" y="584" type="curve"/>
      <point x="623" y="584"/>
      <point x="642" y="703"/>
      <point x="343" y="711" type="curve" smooth="yes"/>
    </contour>
  </outline>
</glyph>
<glyph name="F" format="1">
  <advance width="638"/>
  <unicode hex="0046"/>
  <outline>
    <contour>
      <point x="354" y="257"/>
      <point x="499" y="260"/>
      <point x="499" y="371" type="curve"/>
      <point x="499" y="371"/>
      <point x="507" y="449"/>
      <point x="374" y="468" type="curve"/>
      <point x="374" y="468"/>
      <point x="615" y="452"/>
      <point x="608" y="598" type="curve"/>
      <point x="608" y="598"/>
      <point x="619" y="716"/>
      <point x="361" y="730" type="curve"/>
      <point x="361" y="730"/>
      <point x="75" y="757"/>
      <point x="40" y="565" type="curve"/>
      <point x="40" y="565"/>
      <point x="7" y="360"/>
      <point x="40" y="183" type="curve"/>
      <point x="40" y="183"/>
      <point x="60" y="0"/>
      <point x="207" y="0" type="curve"/>
      <point x="207" y="0"/>
      <point x="412" y="-35"/>
      <point x="354" y="257" type="curve"/>
    </contour>
  </outline>
</glyph>
<glyph name="G" format="1">
  <advance width="754"/>
  <unicode hex="0047"/>
  <outline>
    <contour>
      <point x="315" y="233"/>
      <point x="315" y="364"/>
      <point x="315" y="364" type="curve"/>
      <point x="317" y="492"/>
      <point x="446" y="447"/>
      <point x="446" y="447" type="curve"/>
      <point x="586" y="393"/>
      <point x="621" y="477"/>
      <point x="621" y="477" type="curve"/>
      <point x="662" y="566"/>
      <point x="602" y="629"/>
      <point x="602" y="629" type="curve"/>
      <point x="469" y="768"/>
      <point x="262" y="708"/>
      <point x="262" y="708" type="curve"/>
      <point x="-3" y="621"/>
      <point x="9" y="353"/>
      <point x="9" y="353" type="curve"/>
      <point x="9" y="33"/>
      <point x="262" y="-1"/>
      <point x="262" y="-1" type="curve"/>
      <point x="387" y="-23"/>
      <point x="465" y="19"/>
      <point x="495" y="57" type="curve"/>
      <point x="494" y="-21"/>
      <point x="555" y="-43"/>
      <point x="613" y="-43" type="curve"/>
      <point x="613" y="-43"/>
      <point x="710" y="-43"/>
      <point x="717" y="65" type="curve"/>
      <point x="717" y="65"/>
      <point x="742" y="289"/>
      <point x="692" y="353" type="curve"/>
      <point x="692" y="353"/>
      <point x="674" y="379"/>
      <point x="628" y="386" type="curve" smooth="yes"/>
      <point x="558" y="397"/>
      <point x="425" y="400"/>
      <point x="407" y="353" type="curve"/>
      <point x="407" y="353"/>
      <point x="385" y="305"/>
      <point x="446" y="279" type="curve"/>
    </contour>
  </outline>
</glyph>
<glyph name="H" format="1">
  <advance width="766"/>
  <unicode hex="0048"/>
  <outline>
    <contour>
      <point x="366" y="489"/>
      <point x="374" y="717"/>
      <point x="200" y="717" type="curve" smooth="yes"/>
      <point x="70" y="717"/>
      <point x="48" y="549"/>
      <point x="48" y="549" type="curve" smooth="yes"/>
      <point x="48" y="549"/>
      <point x="22" y="417"/>
      <point x="41" y="187" type="curve" smooth="yes"/>
      <point x="58" y="-10"/>
      <point x="202" y="-2"/>
      <point x="202" y="-2" type="curve"/>
      <point x="359" y="-1"/>
      <point x="371" y="224"/>
      <point x="371" y="224" type="curve"/>
      <point x="408" y="224" type="line"/>
      <point x="408" y="224"/>
      <point x="412" y="-2"/>
      <point x="571" y="-4" type="curve" smooth="yes"/>
      <point x="716" y="-5"/>
      <point x="730" y="171"/>
      <point x="730" y="171" type="curve" smooth="yes"/>
      <point x="730" y="171"/>
      <point x="752" y="332"/>
      <point x="730" y="520" type="curve" smooth="yes"/>
      <point x="707" y="717"/>
      <point x="571" y="718"/>
      <point x="571" y="718" type="curve" smooth="yes"/>
      <point x="398" y="718"/>
      <point x="404" y="489"/>
      <point x="404" y="489" type="curve" smooth="yes"/>
      <point x="366" y="489" type="line" smooth="yes"/>
    </contour>
  </outline>
</glyph>
<glyph name="I" format="1">
  <advance width="420"/>
  <unicode hex="0049"/>
  <outline>
    <contour>
      <point x="39" y="203"/>
      <point x="50" y="-7"/>
      <point x="215" y="-9" type="curve" smooth="yes"/>
      <point x="365" y="-10"/>
      <point x="380" y="164"/>
      <point x="380" y="164" type="curve" smooth="yes"/>
      <point x="380" y="164"/>
      <point x="402" y="324"/>
      <point x="380" y="510" type="curve" smooth="yes"/>
      <point x="356" y="705"/>
      <point x="215" y="705"/>
      <point x="215" y="705" type="curve" smooth="yes"/>
      <point x="42" y="704"/>
      <point x="35" y="482"/>
      <point x="35" y="482" type="curve" smooth="yes"/>
      <point x="35" y="482"/>
      <point x="23" y="312"/>
      <point x="39" y="203" type="curve"/>
    </contour>
  </outline>
</glyph>
<glyph name="J" format="1">
  <advance width="547"/>
  <unicode hex="004A"/>
  <outline>
    <contour>
      <point x="175" y="255"/>
      <point x="185" y="207"/>
      <point x="91" y="199" type="curve" smooth="yes"/>
      <point x="39" y="195"/>
      <point x="10" y="121"/>
      <point x="41" y="73" type="curve" smooth="yes"/>
      <point x="115" y="-41"/>
      <point x="358" y="-20"/>
      <point x="422" y="42" type="curve" smooth="yes"/>
      <point x="498" y="116"/>
      <point x="501" y="235"/>
      <point x="501" y="235" type="curve" smooth="yes"/>
      <point x="501" y="235"/>
      <point x="511" y="348"/>
      <point x="496" y="529" type="curve" smooth="yes"/>
      <point x="480" y="725"/>
      <point x="326" y="712"/>
      <point x="326" y="712" type="curve" smooth="yes"/>
      <point x="167" y="710"/>
      <point x="170" y="501"/>
      <point x="170" y="501" type="curve" smooth="yes"/>
      <point x="170" y="501"/>
      <point x="167" y="361"/>
      <point x="175" y="255" type="curve"/>
    </contour>
  </outline>
</glyph>
<glyph name="K" format="1">
  <advance width="732"/>
  <unicode hex="004B"/>
  <outline>
    <contour>
      <point x="380" y="541"/>
      <point x="421" y="719"/>
      <point x="213" y="713" type="curve" smooth="yes"/>
      <point x="213" y="713"/>
      <point x="83" y="717"/>
      <point x="51" y="511" type="curve" smooth="yes"/>
      <point x="19" y="307"/>
      <point x="58" y="148"/>
      <point x="58" y="148" type="curve" smooth="yes"/>
      <point x="58" y="148"/>
      <point x="92" y="-32"/>
      <point x="241" y="-3" type="curve" smooth="yes"/>
      <point x="377" y="23"/>
      <point x="355" y="164"/>
      <point x="355" y="164" type="curve" smooth="yes"/>
      <point x="355" y="164"/>
      <point x="463" y="-92"/>
      <point x="646" y="19" type="curve"/>
      <point x="646" y="19"/>
      <point x="808" y="102"/>
      <point x="558" y="373" type="curve"/>
      <point x="558" y="373"/>
      <point x="754" y="522"/>
      <point x="629" y="648" type="curve"/>
      <point x="629" y="648"/>
      <point x="545" y="733"/>
      <point x="446" y="648" type="curve" smooth="yes"/>
      <point x="391" y="601"/>
      <point x="380" y="541"/>
      <point x="380" y="541" type="curve" smooth="yes"/>
    </contour>
  </outline>
</glyph>
<glyph name="L" format="1">
  <advance width="651"/>
  <unicode hex="004C"/>
  <outline>
    <contour>
      <point x="355" y="284"/>
      <point x="430" y="716"/>
      <point x="205" y="709" type="curve" smooth="yes"/>
      <point x="205" y="709"/>
      <point x="78" y="717"/>
      <point x="48" y="546" type="curve"/>
      <point x="48" y="546"/>
      <point x="10" y="323"/>
      <point x="58" y="186" type="curve"/>
      <point x="58" y="186"/>
      <point x="107" y="-18"/>
      <point x="355" y="-11" type="curve" smooth="yes"/>
      <point x="624" y="-3"/>
      <point x="632" y="170"/>
      <point x="624" y="206" type="curve"/>
      <point x="624" y="206"/>
      <point x="588" y="408"/>
      <point x="355" y="284" type="curve"/>
    </contour>
  </outline>
</glyph>
<glyph name="M" format="1">
  <advance width="987"/>
  <unicode hex="004D"/>
  <outline>
    <contour>
      <point x="492" y="500"/>
      <point x="497" y="716"/>
      <point x="312" y="716" type="curve" smooth="yes"/>
      <point x="312" y="716"/>
      <point x="175" y="733"/>
      <point x="105" y="573" type="curve"/>
      <point x="105" y="573"/>
      <point x="30" y="422"/>
      <point x="30" y="205" type="curve"/>
      <point x="30" y="205"/>
      <point x="16" y="-6"/>
      <point x="215" y="-6" type="curve"/>
      <point x="215" y="-6"/>
      <point x="387" y="-11"/>
      <point x="387" y="314" type="curve"/>
      <point x="387" y="314"/>
      <point x="393" y="168"/>
      <point x="497" y="168" type="curve"/>
      <point x="497" y="168"/>
      <point x="582" y="156"/>
      <point x="594" y="312" type="curve"/>
      <point x="594" y="312"/>
      <point x="588" y="-6"/>
      <point x="796" y="-6" type="curve"/>
      <point x="796" y="-6"/>
      <point x="955" y="-14"/>
      <point x="946" y="211" type="curve"/>
      <point x="946" y="211"/>
      <point x="946" y="400"/>
      <point x="874" y="565" type="curve"/>
      <point x="874" y="565"/>
      <point x="810" y="718"/>
      <point x="680" y="718" type="curve" smooth="yes"/>
      <point x="510" y="718"/>
      <point x="492" y="500"/>
      <point x="492" y="500" type="curve" smooth="yes"/>
    </contour>
  </outline>
</glyph>
<glyph name="N" format="1">
  <advance width="823"/>
  <unicode hex="004E"/>
  <outline>
    <contour>
      <point x="55" y="552"/>
      <point x="5" y="319"/>
      <point x="55" y="109" type="curve"/>
      <point x="55" y="109"/>
      <point x="79" y="-5"/>
      <point x="193" y="-2" type="curve"/>
      <point x="193" y="-2"/>
      <point x="372" y="-32"/>
      <point x="354" y="296" type="curve"/>
      <point x="354" y="296"/>
      <point x="383" y="-7"/>
      <point x="601" y="-2" type="curve"/>
      <point x="601" y="-2"/>
      <point x="725" y="-22"/>
      <point x="761" y="148" type="curve"/>
      <point x="761" y="148"/>
      <point x="813" y="362"/>
      <point x="769" y="593" type="curve"/>
      <point x="769" y="593"/>
      <point x="752" y="711"/>
      <point x="626" y="707" type="curve" smooth="yes"/>
      <point x="626" y="707"/>
      <point x="464" y="724"/>
      <point x="467" y="450" type="curve"/>
      <point x="467" y="450"/>
      <point x="464" y="724"/>
      <point x="241" y="714" type="curve" smooth="yes"/>
      <point x="84" y="707"/>
      <point x="55" y="552"/>
      <point x="55" y="552" type="curve" smooth="yes"/>
    </contour>
  </outline>
</glyph>
<glyph name="O" format="1">
  <advance width="748"/>
  <unicode hex="004F"/>
  <outline>
    <contour>
      <point x="393" y="704"/>
      <point x="33" y="741"/>
      <point x="33" y="327" type="curve"/>
      <point x="33" y="327"/>
      <point x="33" y="-11"/>
      <point x="393" y="-11" type="curve"/>
      <point x="393" y="-11"/>
      <point x="713" y="-11"/>
      <point x="713" y="365" type="curve"/>
      <point x="713" y="365"/>
      <point x="713" y="704"/>
      <point x="393" y="704" type="curve" smooth="yes"/>
    </contour>
    <contour>
      <point x="403" y="383"/>
      <point x="417" y="362"/>
      <point x="417" y="341" type="curve" smooth="yes"/>
      <point x="417" y="318"/>
      <point x="400" y="304"/>
      <point x="378" y="304" type="curve" smooth="yes"/>
      <point x="356" y="304"/>
      <point x="340" y="313"/>
      <point x="338" y="341" type="curve" smooth="yes"/>
      <point x="336" y="362"/>
      <point x="355" y="383"/>
      <point x="378" y="383" type="curve" smooth="yes"/>
    </contour>
  </outline>
</glyph>
<glyph name="P" format="1">
  <advance width="737"/>
  <unicode hex="0050"/>
  <outline>
    <contour>
      <point x="693" y="463"/>
      <point x="688" y="711"/>
      <point x="390" y="721" type="curve" smooth="yes"/>
      <point x="390" y="721"/>
      <point x="159" y="745"/>
      <point x="87" y="537" type="curve"/>
      <point x="87" y="537"/>
      <point x="21" y="351"/>
      <point x="83" y="143" type="curve"/>
      <point x="83" y="143"/>
      <point x="128" y="-13"/>
      <point x="285" y="3" type="curve"/>
      <point x="285" y="3"/>
      <point x="434" y="10"/>
      <point x="390" y="205" type="curve"/>
      <point x="390" y="205"/>
      <point x="703" y="170"/>
      <point x="693" y="463" type="curve"/>
    </contour>
    <contour>
      <point x="413" y="483"/>
      <point x="427" y="462"/>
      <point x="427" y="441" type="curve" smooth="yes"/>
      <point x="427" y="418"/>
      <point x="410" y="404"/>
      <point x="388" y="404" type="curve" smooth="yes"/>
      <point x="366" y="404"/>
      <point x="350" y="413"/>
      <point x="348" y="441" type="curve" smooth="yes"/>
      <point x="346" y="462"/>
      <point x="365" y="483"/>
      <point x="388" y="483" type="curve" smooth="yes"/>
    </contour>
  </outline>
</glyph>
<glyph name="Q" format="1">
  <advance width="833"/>
  <unicode hex="0051"/>
  <outline>
    <contour>
      <point x="741" y="245"/>
      <point x="754" y="287"/>
      <point x="754" y="360" type="curve"/>
      <point x="754" y="360"/>
      <point x="754" y="701"/>
      <point x="426" y="701" type="curve" smooth="yes"/>
      <point x="426" y="701"/>
      <point x="57" y="739"/>
      <point x="57" y="323" type="curve"/>
      <point x="57" y="323"/>
      <point x="57" y="-18"/>
      <point x="426" y="-18" type="curve"/>
      <point x="426" y="-18"/>
      <point x="486" y="-18"/>
      <point x="554" y="11" type="curve"/>
      <point x="581" y="-36"/>
      <point x="697" y="-97"/>
      <point x="771" y="15" type="curve" smooth="yes"/>
      <point x="834" y="110"/>
      <point x="776" y="165"/>
      <point x="722" y="206" type="curve"/>
    </contour>
    <contour>
      <point x="451" y="370"/>
      <point x="465" y="349"/>
      <point x="465" y="328" type="curve" smooth="yes"/>
      <point x="465" y="305"/>
      <point x="448" y="291"/>
      <point x="426" y="291" type="curve" smooth="yes"/>
      <point x="404" y="291"/>
      <point x="388" y="300"/>
      <point x="386" y="328" type="curve" smooth="yes"/>
      <point x="384" y="349"/>
      <point x="403" y="370"/>
      <point x="426" y="370" type="curve" smooth="yes"/>
    </contour>
  </outline>
</glyph>
<glyph name="R" format="1">
  <advance width="687"/>
  <unicode hex="0052"/>
  <outline>
    <contour>
      <point x="618" y="519"/>
      <point x="582" y="708"/>
      <point x="347" y="709" type="curve" smooth="yes"/>
      <point x="347" y="709"/>
      <point x="117" y="731"/>
      <point x="60" y="512" type="curve"/>
      <point x="60" y="512"/>
      <point x="0" y="344"/>
      <point x="67" y="112" type="curve"/>
      <point x="67" y="112"/>
      <point x="102" y="-25"/>
      <point x="236" y="-8" type="curve"/>
      <point x="236" y="-8"/>
      <point x="374" y="4"/>
      <point x="347" y="177" type="curve"/>
      <point x="347" y="177"/>
      <point x="462" y="-105"/>
      <point x="616" y="18" type="curve"/>
      <point x="616" y="18"/>
      <point x="763" y="128"/>
      <point x="569" y="293" type="curve"/>
      <point x="569" y="293"/>
      <point x="644" y="376"/>
      <point x="618" y="519" type="curve"/>
    </contour>
    <contour>
      <point x="372" y="450"/>
      <point x="386" y="429"/>
      <point x="386" y="408" type="curve" smooth="yes"/>
      <point x="386" y="385"/>
      <point x="369" y="371"/>
      <point x="347" y="371" type="curve" smooth="yes"/>
      <point x="325" y="371"/>
      <point x="309" y="380"/>
      <point x="307" y="408" type="curve" smooth="yes"/>
      <point x="305" y="429"/>
      <point x="324" y="450"/>
      <point x="347" y="450" type="curve" smooth="yes"/>
    </contour>
  </outline>
</glyph>
<glyph name="S" format="1">
  <advance width="625"/>
  <unicode hex="0053"/>
  <outline>
    <contour>
      <point x="306" y="460"/>
      <point x="543" y="432"/>
      <point x="557" y="564" type="curve" smooth="yes"/>
      <point x="563" y="622"/>
      <point x="538" y="717"/>
      <point x="289" y="706" type="curve"/>
      <point x="289" y="706"/>
      <point x="91" y="719"/>
      <point x="63" y="519" type="curve"/>
      <point x="63" y="519"/>
      <point x="30" y="328"/>
      <point x="261" y="275" type="curve"/>
      <point x="261" y="275"/>
      <point x="33" y="312"/>
      <point x="35" y="138" type="curve"/>
      <point x="35" y="138"/>
      <point x="31" y="-28"/>
      <point x="331" y="-6" type="curve"/>
      <point x="331" y="-6"/>
      <point x="591" y="-3"/>
      <point x="591" y="239" type="curve"/>
      <point x="591" y="239"/>
      <point x="604" y="421"/>
      <point x="306" y="460" type="curve"/>
    </contour>
  </outline>
</glyph>
<glyph name="T" format="1">
  <advance width="736"/>
  <unicode hex="0054"/>
  <outline>
    <contour>
      <point x="239" y="415"/>
      <point x="210" y="242"/>
      <point x="239" y="107" type="curve" smooth="yes"/>
      <point x="267" y="-23"/>
      <point x="389" y="-10"/>
      <point x="389" y="-10" type="curve" smooth="yes"/>
      <point x="389" y="-10"/>
      <point x="499" y="-18"/>
      <point x="525" y="107" type="curve"/>
      <point x="525" y="107"/>
      <point x="559" y="221"/>
      <point x="525" y="423" type="curve"/>
      <point x="525" y="423"/>
      <point x="706" y="399"/>
      <point x="712" y="569" type="curve"/>
      <point x="712" y="569"/>
      <point x="718" y="672"/>
      <point x="596" y="698" type="curve"/>
      <point x="596" y="698"/>
      <point x="380" y="739"/>
      <point x="168" y="695" type="curve"/>
      <point x="168" y="695"/>
      <point x="36" y="680"/>
      <point x="36" y="547" type="curve" smooth="yes"/>
      <point x="36" y="393"/>
      <point x="239" y="415"/>
      <point x="239" y="415" type="curve" smooth="yes"/>
    </contour>
  </outline>
</glyph>
<glyph name="U" format="1">
  <advance width="767"/>
  <unicode hex="0055"/>
  <outline>
    <contour>
      <point x="202" y="711"/>
      <point x="69" y="727"/>
      <point x="37" y="559" type="curve"/>
      <point x="37" y="559"/>
      <point x="-8" y="297"/>
      <point x="92" y="127" type="curve"/>
      <point x="92" y="127"/>
      <point x="164" y="-13"/>
      <point x="380" y="-15" type="curve" smooth="yes"/>
      <point x="638" y="-17"/>
      <point x="697" y="201"/>
      <point x="697" y="201" type="curve" smooth="yes"/>
      <point x="697" y="201"/>
      <point x="754" y="393"/>
      <point x="709" y="594" type="curve"/>
      <point x="709" y="594"/>
      <point x="683" y="712"/>
      <point x="547" y="704" type="curve"/>
      <point x="547" y="704"/>
      <point x="404" y="712"/>
      <point x="408" y="559" type="curve" smooth="yes"/>
      <point x="411" y="445"/>
      <point x="418" y="345"/>
      <point x="370" y="345" type="curve" smooth="yes"/>
      <point x="321" y="345"/>
      <point x="331" y="445"/>
      <point x="331" y="559" type="curve" smooth="yes"/>
      <point x="331" y="711"/>
      <point x="202" y="711"/>
      <point x="202" y="711" type="curve" smooth="yes"/>
    </contour>
  </outline>
</glyph>
<glyph name="V" format="1">
  <advance width="806"/>
  <unicode hex="0056"/>
  <outline>
    <contour>
      <point x="419" y="424"/>
      <point x="368" y="748"/>
      <point x="169" y="713" type="curve" smooth="yes"/>
      <point x="-27" y="678"/>
      <point x="29" y="478"/>
      <point x="63" y="380" type="curve" smooth="yes"/>
      <point x="96" y="282"/>
      <point x="194" y="-5"/>
      <point x="419" y="-5" type="curve" smooth="yes"/>
      <point x="628" y="-5"/>
      <point x="741" y="337"/>
      <point x="741" y="337" type="curve" smooth="yes"/>
      <point x="741" y="337"/>
      <point x="877" y="670"/>
      <point x="671" y="715" type="curve" smooth="yes"/>
      <point x="455" y="762"/>
      <point x="419" y="424"/>
      <point x="419" y="424" type="curve" smooth="yes"/>
    </contour>
  </outline>
</glyph>
<glyph name="W" format="1">
  <advance width="1012"/>
  <unicode hex="0057"/>
  <outline>
    <contour>
      <point x="513" y="208"/>
      <point x="507" y="-8"/>
      <point x="699" y="-8" type="curve"/>
      <point x="699" y="-8"/>
      <point x="838" y="-15"/>
      <point x="906" y="136" type="curve"/>
      <point x="906" y="136"/>
      <point x="978" y="280"/>
      <point x="978" y="497" type="curve"/>
      <point x="978" y="497"/>
      <point x="983" y="717"/>
      <point x="799" y="714" type="curve" smooth="yes"/>
      <point x="799" y="714"/>
      <point x="620" y="714"/>
      <point x="620" y="389" type="curve"/>
      <point x="620" y="389"/>
      <point x="625" y="539"/>
      <point x="507" y="540" type="curve" smooth="yes"/>
      <point x="507" y="540"/>
      <point x="399" y="547"/>
      <point x="405" y="389" type="curve"/>
      <point x="405" y="389"/>
      <point x="413" y="714"/>
      <point x="198" y="714" type="curve" smooth="yes"/>
      <point x="198" y="714"/>
      <point x="33" y="715"/>
      <point x="44" y="497" type="curve"/>
      <point x="44" y="497"/>
      <point x="44" y="308"/>
      <point x="117" y="143" type="curve"/>
      <point x="117" y="143"/>
      <point x="183" y="-10"/>
      <point x="318" y="-10" type="curve" smooth="yes"/>
      <point x="494" y="-10"/>
      <point x="513" y="208"/>
      <point x="513" y="208" type="curve" smooth="yes"/>
    </contour>
  </outline>
</glyph>
<glyph name="X" format="1">
  <advance width="833"/>
  <unicode hex="0058"/>
  <outline>
    <contour>
      <point x="402" y="539"/>
      <point x="262" y="821"/>
      <point x="86" y="681" type="curve" smooth="yes"/>
      <point x="-106" y="529"/>
      <point x="168" y="361"/>
      <point x="168" y="361" type="curve" smooth="yes"/>
      <point x="168" y="361"/>
      <point x="-70" y="189"/>
      <point x="94" y="35" type="curve" smooth="yes"/>
      <point x="268" y="-129"/>
      <point x="390" y="172"/>
      <point x="390" y="172" type="curve"/>
      <point x="406" y="130"/>
      <point x="548" y="-115"/>
      <point x="707" y="36" type="curve" smooth="yes"/>
      <point x="866" y="188"/>
      <point x="638" y="353"/>
      <point x="638" y="353" type="curve" smooth="yes"/>
      <point x="638" y="353"/>
      <point x="851" y="549"/>
      <point x="704" y="677" type="curve" smooth="yes"/>
      <point x="523" y="835"/>
      <point x="402" y="539"/>
      <point x="402" y="539" type="curve" smooth="yes"/>
    </contour>
  </outline>
</glyph>
<glyph name="Y" format="1">
  <advance width="792"/>
  <unicode hex="0059"/>
  <outline>
    <contour>
      <point x="415" y="547"/>
      <point x="363" y="742"/>
      <point x="185" y="731" type="curve"/>
      <point x="185" y="731"/>
      <point x="25" y="719"/>
      <point x="48" y="543" type="curve" smooth="yes"/>
      <point x="68" y="393"/>
      <point x="249" y="320"/>
      <point x="249" y="320" type="curve" smooth="yes"/>
      <point x="249" y="320"/>
      <point x="206" y="138"/>
      <point x="291" y="43" type="curve"/>
      <point x="291" y="43"/>
      <point x="330" y="-3"/>
      <point x="415" y="-3" type="curve" smooth="yes"/>
      <point x="467" y="-3"/>
      <point x="504" y="13"/>
      <point x="535" y="56" type="curve"/>
      <point x="535" y="56"/>
      <point x="611" y="160"/>
      <point x="559" y="327" type="curve"/>
      <point x="559" y="327"/>
      <point x="707" y="395"/>
      <point x="741" y="541" type="curve"/>
      <point x="741" y="541"/>
      <point x="780" y="704"/>
      <point x="610" y="724" type="curve"/>
      <point x="610" y="724"/>
      <point x="471" y="751"/>
      <point x="415" y="547" type="curve"/>
    </contour>
  </outline>
</glyph>
<glyph name="Z" format="1">
  <advance width="727"/>
  <unicode hex="005A"/>
  <outline>
    <contour>
      <point x="244" y="392"/>
      <point x="17" y="248"/>
      <point x="70" y="92" type="curve" smooth="yes"/>
      <point x="109" y="-24"/>
      <point x="244" y="-19"/>
      <point x="383" y="-19" type="curve" smooth="yes"/>
      <point x="522" y="-19"/>
      <point x="695" y="-19"/>
      <point x="695" y="152" type="curve" smooth="yes"/>
      <point x="695" y="324"/>
      <point x="452" y="289"/>
      <point x="452" y="289" type="curve"/>
      <point x="596" y="419"/>
      <point x="619" y="552"/>
      <point x="619" y="552" type="curve"/>
      <point x="633" y="649"/>
      <point x="566" y="697"/>
      <point x="348" y="701" type="curve" smooth="yes"/>
      <point x="21" y="707"/>
      <point x="36" y="541"/>
      <point x="36" y="541" type="curve"/>
      <point x="36" y="376"/>
      <point x="244" y="392"/>
      <point x="244" y="392" type="curve" smooth="yes"/>
    </contour>
  </outline>
</glyph>
<glyph name="bracketleft" format="1">
  <advance width="617"/>
  <unicode hex="005B"/>
  <outline>
    <contour>
      <point x="471" y="24"/>
      <point x="387" y="27"/>
      <point x="327" y="22" type="curve"/>
      <point x="332" y="97"/>
      <point x="346" y="472"/>
      <point x="332" y="657" type="curve"/>
      <point x="330" y="675"/>
      <point x="330" y="696"/>
      <point x="327" y="711" type="curve"/>
      <point x="388" y="715"/>
      <point x="464" y="718"/>
      <point x="509" y="725" type="curve" smooth="yes"/>
      <point x="599" y="739"/>
      <point x="594" y="798"/>
      <point x="594" y="798" type="curve" smooth="yes"/>
      <point x="594" y="798"/>
      <point x="601" y="850"/>
      <point x="515" y="868" type="curve" smooth="yes"/>
      <point x="415" y="889"/>
      <point x="263" y="884"/>
      <point x="178" y="857" type="curve" smooth="yes"/>
      <point x="149" y="848"/>
      <point x="104" y="816"/>
      <point x="96" y="797" type="curve"/>
      <point x="57" y="738"/>
      <point x="64" y="666"/>
      <point x="64" y="666" type="curve" smooth="yes"/>
      <point x="64" y="666"/>
      <point x="52" y="196"/>
      <point x="69" y="75" type="curve"/>
      <point x="69" y="75"/>
      <point x="73" y="-109"/>
      <point x="224" y="-142" type="curve" smooth="yes"/>
      <point x="279" y="-154"/>
      <point x="379" y="-162"/>
      <point x="499" y="-139" type="curve" smooth="yes"/>
      <point x="592" y="-121"/>
      <point x="586" y="-51"/>
      <point x="586" y="-51" type="curve" smooth="yes"/>
      <point x="586" y="-51"/>
      <point x="594" y="15"/>
      <point x="500" y="22" type="curve" smooth="yes"/>
    </contour>
  </outline>
</glyph>
<glyph name="backslash" format="1">
  <advance width="495"/>
  <unicode hex="005C"/>
  <outline>
    <contour>
      <point x="374" y="-33"/>
      <point x="437" y="-21"/>
      <point x="428" y="62" type="curve" smooth="yes"/>
      <point x="412" y="204"/>
      <point x="276" y="597"/>
      <point x="229" y="709" type="curve" smooth="yes"/>
      <point x="192" y="797"/>
      <point x="117" y="771"/>
      <point x="117" y="771" type="curve" smooth="yes"/>
      <point x="117" y="771"/>
      <point x="52" y="767"/>
      <point x="67" y="670" type="curve" smooth="yes"/>
      <point x="111" y="394"/>
      <point x="279" y="18"/>
      <point x="279" y="18" type="curve"/>
      <point x="313" y="-53"/>
      <point x="374" y="-33"/>
      <point x="374" y="-33" type="curve" smooth="yes"/>
    </contour>
  </outline>
</glyph>
<glyph name="bracketright" format="1">
  <advance width="582"/>
  <unicode hex="005D"/>
  <outline>
    <contour>
      <point x="134" y="718"/>
      <point x="218" y="715"/>
      <point x="278" y="720" type="curve"/>
      <point x="273" y="645"/>
      <point x="259" y="270"/>
      <point x="273" y="85" type="curve"/>
      <point x="275" y="67"/>
      <point x="275" y="46"/>
      <point x="278" y="31" type="curve"/>
      <point x="217" y="27"/>
      <point x="141" y="24"/>
      <point x="96" y="17" type="curve" smooth="yes"/>
      <point x="6" y="3"/>
      <point x="11" y="-56"/>
      <point x="11" y="-56" type="curve" smooth="yes"/>
      <point x="11" y="-56"/>
      <point x="4" y="-108"/>
      <point x="90" y="-126" type="curve" smooth="yes"/>
      <point x="190" y="-147"/>
      <point x="342" y="-142"/>
      <point x="427" y="-115" type="curve" smooth="yes"/>
      <point x="456" y="-106"/>
      <point x="501" y="-74"/>
      <point x="509" y="-55" type="curve"/>
      <point x="548" y="4"/>
      <point x="541" y="76"/>
      <point x="541" y="76" type="curve" smooth="yes"/>
      <point x="541" y="76"/>
      <point x="553" y="546"/>
      <point x="536" y="667" type="curve"/>
      <point x="536" y="667"/>
      <point x="532" y="851"/>
      <point x="381" y="884" type="curve" smooth="yes"/>
      <point x="326" y="896"/>
      <point x="226" y="904"/>
      <point x="106" y="881" type="curve" smooth="yes"/>
      <point x="13" y="863"/>
      <point x="19" y="793"/>
      <point x="19" y="793" type="curve" smooth="yes"/>
      <point x="19" y="793"/>
      <point x="11" y="727"/>
      <point x="105" y="720" type="curve" smooth="yes"/>
    </contour>
  </outline>
</glyph>
<glyph name="asciicircum" format="1">
  <advance width="635"/>
  <unicode hex="005E"/>
  <outline>
    <contour>
      <point x="24" y="504"/>
      <point x="32" y="428"/>
      <point x="72" y="394" type="curve" smooth="yes"/>
      <point x="158" y="321"/>
      <point x="219" y="394"/>
      <point x="219" y="394" type="curve" smooth="yes"/>
      <point x="219" y="394"/>
      <point x="260" y="444"/>
      <point x="317" y="502" type="curve"/>
      <point x="363" y="459"/>
      <point x="392" y="422"/>
      <point x="392" y="422" type="curve"/>
      <point x="428" y="373"/>
      <point x="483" y="353"/>
      <point x="540" y="389" type="curve" smooth="yes"/>
      <point x="594" y="423"/>
      <point x="607" y="501"/>
      <point x="576" y="545" type="curve"/>
      <point x="574" y="549"/>
      <point x="441" y="754"/>
      <point x="315" y="754" type="curve" smooth="yes"/>
      <point x="185" y="754"/>
      <point x="61" y="549"/>
      <point x="57" y="545" type="curve"/>
    </contour>
  </outline>
</glyph>
<glyph name="underscore" format="1">
  <advance width="686"/>
  <unicode hex="005F"/>
  <outline>
    <contour>
      <point x="557" y="148"/>
      <point x="348" y="175"/>
      <point x="156" y="148" type="curve" smooth="yes"/>
      <point x="51" y="133"/>
      <point x="61" y="56"/>
      <point x="61" y="56" type="curve" smooth="yes"/>
      <point x="61" y="56"/>
      <point x="60" y="-16"/>
      <point x="153" y="-24" type="curve" smooth="yes"/>
      <point x="285" y="-35"/>
      <point x="476" y="-34"/>
      <point x="576" y="-17" type="curve" smooth="yes"/>
      <point x="656" y="-3"/>
      <point x="647" y="69"/>
      <point x="647" y="69" type="curve" smooth="yes"/>
      <point x="647" y="69"/>
      <point x="650" y="138"/>
      <point x="557" y="148" type="curve"/>
    </contour>
  </outline>
</glyph>
<glyph name="grave" format="1">
  <advance width="376"/>
  <unicode hex="0060"/>
  <outline>
    <contour>
      <point x="122" y="788"/>
      <point x="99" y="769"/>
      <point x="79" y="750" type="curve"/>
      <point x="58" y="728"/>
      <point x="35" y="680"/>
      <point x="85" y="637" type="curve" smooth="yes"/>
      <point x="141" y="588"/>
      <point x="248" y="573"/>
      <point x="248" y="573" type="curve" smooth="yes"/>
      <point x="248" y="573"/>
      <point x="304" y="559"/>
      <point x="326" y="602" type="curve" smooth="yes"/>
      <point x="346" y="642"/>
      <point x="312" y="680"/>
      <point x="312" y="680" type="curve"/>
      <point x="290" y="708"/>
      <point x="225" y="754"/>
      <point x="182" y="768" type="curve" smooth="yes"/>
    </contour>
  </outline>
</glyph>
<glyph name="a" format="1">
  <advance width="704"/>
  <unicode hex="0061"/>
  <outline>
    <contour>
      <point x="419" y="435"/>
      <point x="391" y="527"/>
      <point x="242" y="513" type="curve" smooth="yes"/>
      <point x="9" y="492"/>
      <point x="30" y="225"/>
      <point x="30" y="225" type="curve"/>
      <point x="30" y="-4"/>
      <point x="222" y="-11"/>
      <point x="222" y="-11" type="curve"/>
      <point x="399" y="-32"/>
      <point x="426" y="76"/>
      <point x="426" y="76" type="curve"/>
      <point x="441" y="-25"/>
      <point x="540" y="-18"/>
      <point x="540" y="-18" type="curve" smooth="yes"/>
      <point x="540" y="-18"/>
      <point x="698" y="-39"/>
      <point x="683" y="265" type="curve"/>
      <point x="683" y="265"/>
      <point x="682" y="520"/>
      <point x="533" y="520" type="curve" smooth="yes"/>
      <point x="442" y="520"/>
      <point x="419" y="435"/>
      <point x="419" y="435" type="curve" smooth="yes"/>
    </contour>
    <contour>
      <point x="400" y="278"/>
      <point x="414" y="257"/>
      <point x="414" y="236" type="curve" smooth="yes"/>
      <point x="414" y="213"/>
      <point x="397" y="199"/>
      <point x="375" y="199" type="curve" smooth="yes"/>
      <point x="353" y="199"/>
      <point x="337" y="208"/>
      <point x="335" y="236" type="curve" smooth="yes"/>
      <point x="333" y="257"/>
      <point x="352" y="278"/>
      <point x="375" y="278" type="curve" smooth="yes"/>
    </contour>
  </outline>
</glyph>
<glyph name="b" format="1">
  <advance width="680"/>
  <unicode hex="0062"/>
  <outline>
    <contour>
      <point x="63" y="777"/>
      <point x="41" y="604"/>
      <point x="41" y="604" type="curve" smooth="yes"/>
      <point x="41" y="604"/>
      <point x="-23" y="256"/>
      <point x="96" y="100" type="curve" smooth="yes"/>
      <point x="167" y="7"/>
      <point x="341" y="-50"/>
      <point x="494" y="20" type="curve"/>
      <point x="494" y="20"/>
      <point x="571" y="48"/>
      <point x="616" y="145" type="curve" smooth="yes"/>
      <point x="654" y="226"/>
      <point x="646" y="358"/>
      <point x="589" y="423" type="curve" smooth="yes"/>
      <point x="470" y="558"/>
      <point x="312" y="485"/>
      <point x="312" y="485" type="curve" smooth="yes"/>
      <point x="312" y="485"/>
      <point x="372" y="749"/>
      <point x="201" y="765" type="curve" smooth="yes"/>
    </contour>
    <contour>
      <point x="362" y="289"/>
      <point x="376" y="268"/>
      <point x="376" y="247" type="curve" smooth="yes"/>
      <point x="376" y="224"/>
      <point x="359" y="210"/>
      <point x="337" y="210" type="curve" smooth="yes"/>
      <point x="315" y="210"/>
      <point x="299" y="219"/>
      <point x="297" y="247" type="curve" smooth="yes"/>
      <point x="295" y="268"/>
      <point x="314" y="289"/>
      <point x="337" y="289" type="curve" smooth="yes"/>
    </contour>
  </outline>
</glyph>
<glyph name="c" format="1">
  <advance width="570"/>
  <unicode hex="0063"/>
  <outline>
    <contour>
      <point x="499" y="263"/>
      <point x="528" y="343"/>
      <point x="528" y="343" type="curve"/>
      <point x="556" y="422"/>
      <point x="506" y="465"/>
      <point x="506" y="465" type="curve"/>
      <point x="390" y="573"/>
      <point x="218" y="515"/>
      <point x="218" y="515" type="curve"/>
      <point x="31" y="458"/>
      <point x="38" y="255"/>
      <point x="38" y="255" type="curve"/>
      <point x="38" y="71"/>
      <point x="166" y="14"/>
      <point x="166" y="14" type="curve"/>
      <point x="360" y="-73"/>
      <point x="492" y="26"/>
      <point x="492" y="26" type="curve"/>
      <point x="592" y="98"/>
      <point x="542" y="184"/>
      <point x="542" y="184" type="curve"/>
      <point x="484" y="278"/>
      <point x="385" y="233"/>
      <point x="385" y="233" type="curve"/>
      <point x="314" y="206"/>
      <point x="314" y="256"/>
      <point x="314" y="256" type="curve"/>
      <point x="314" y="307"/>
      <point x="384" y="285"/>
      <point x="384" y="285" type="curve"/>
    </contour>
  </outline>
</glyph>
<glyph name="d" format="1">
  <advance width="754"/>
  <unicode hex="0064"/>
  <outline>
    <contour>
      <point x="737" y="81"/>
      <point x="741" y="181"/>
      <point x="663" y="218" type="curve"/>
      <point x="710" y="385"/>
      <point x="687" y="571"/>
      <point x="687" y="571" type="curve" smooth="yes"/>
      <point x="687" y="571"/>
      <point x="674" y="755"/>
      <point x="523" y="755" type="curve" smooth="yes"/>
      <point x="352" y="755"/>
      <point x="401" y="486"/>
      <point x="401" y="486" type="curve" smooth="yes"/>
      <point x="401" y="486"/>
      <point x="236" y="546"/>
      <point x="113" y="430" type="curve" smooth="yes"/>
      <point x="34" y="355"/>
      <point x="31" y="227"/>
      <point x="52" y="145" type="curve" smooth="yes"/>
      <point x="75" y="55"/>
      <point x="160" y="12"/>
      <point x="160" y="12" type="curve"/>
      <point x="256" y="-38"/>
      <point x="415" y="-30"/>
      <point x="518" y="23" type="curve"/>
      <point x="518" y="24"/>
      <point x="621" y="-42"/>
      <point x="689" y="30" type="curve" smooth="yes"/>
    </contour>
    <contour>
      <point x="421" y="278"/>
      <point x="435" y="257"/>
      <point x="435" y="236" type="curve" smooth="yes"/>
      <point x="435" y="213"/>
      <point x="418" y="199"/>
      <point x="396" y="199" type="curve" smooth="yes"/>
      <point x="374" y="199"/>
      <point x="358" y="208"/>
      <point x="356" y="236" type="curve" smooth="yes"/>
      <point x="354" y="257"/>
      <point x="373" y="278"/>
      <point x="396" y="278" type="curve" smooth="yes"/>
    </contour>
  </outline>
</glyph>
<glyph name="e" format="1">
  <advance width="585"/>
  <unicode hex="0065"/>
  <outline>
    <contour>
      <point x="452" y="189"/>
      <point x="558" y="217"/>
      <point x="557" y="320" type="curve" smooth="yes"/>
      <point x="556" y="412"/>
      <point x="501" y="460"/>
      <point x="501" y="460" type="curve"/>
      <point x="373" y="574"/>
      <point x="197" y="513"/>
      <point x="197" y="513" type="curve"/>
      <point x="31" y="453"/>
      <point x="31" y="261"/>
      <point x="31" y="261" type="curve"/>
      <point x="24" y="75"/>
      <point x="168" y="19"/>
      <point x="168" y="19" type="curve"/>
      <point x="330" y="-47"/>
      <point x="480" y="5"/>
      <point x="480" y="5" type="curve"/>
      <point x="562" y="38"/>
      <point x="551" y="108"/>
      <point x="551" y="108" type="curve"/>
      <point x="539" y="201"/>
      <point x="436" y="145"/>
      <point x="359" y="207" type="curve"/>
    </contour>
    <contour>
      <point x="358" y="334"/>
      <point x="372" y="313"/>
      <point x="372" y="292" type="curve" smooth="yes"/>
      <point x="372" y="269"/>
      <point x="355" y="255"/>
      <point x="333" y="255" type="curve" smooth="yes"/>
      <point x="311" y="255"/>
      <point x="295" y="264"/>
      <point x="293" y="292" type="curve" smooth="yes"/>
      <point x="291" y="313"/>
      <point x="310" y="334"/>
      <point x="333" y="334" type="curve" smooth="yes"/>
    </contour>
  </outline>
</glyph>
<glyph name="f" format="1">
  <advance width="641"/>
  <unicode hex="0066"/>
  <outline>
    <contour>
      <point x="453" y="550"/>
      <point x="460" y="566"/>
      <point x="460" y="566" type="curve"/>
      <point x="473" y="602"/>
      <point x="520" y="601"/>
      <point x="520" y="601" type="curve"/>
      <point x="586" y="599"/>
      <point x="588" y="663"/>
      <point x="588" y="663" type="curve"/>
      <point x="597" y="733"/>
      <point x="514" y="755"/>
      <point x="514" y="755" type="curve"/>
      <point x="311" y="810"/>
      <point x="228" y="695"/>
      <point x="228" y="695" type="curve"/>
      <point x="162" y="610"/>
      <point x="174" y="515"/>
      <point x="174" y="515" type="curve"/>
      <point x="123" y="527"/>
      <point x="30" y="516"/>
      <point x="33" y="436" type="curve" smooth="yes"/>
      <point x="39" y="321"/>
      <point x="174" y="363"/>
      <point x="174" y="363" type="curve"/>
      <point x="170" y="127"/>
      <point x="169" y="-24"/>
      <point x="341" y="-16" type="curve" smooth="yes"/>
      <point x="538" y="-8"/>
      <point x="477" y="363"/>
      <point x="477" y="363" type="curve" smooth="yes"/>
      <point x="477" y="363"/>
      <point x="607" y="341"/>
      <point x="602" y="448" type="curve" smooth="yes"/>
      <point x="597" y="558"/>
      <point x="455" y="513"/>
      <point x="455" y="513" type="curve"/>
    </contour>
  </outline>
</glyph>
<glyph name="g" format="1">
  <advance width="680"/>
  <unicode hex="0067"/>
  <outline>
    <contour>
      <point x="223" y="-266"/>
      <point x="589" y="-369"/>
      <point x="653" y="-6" type="curve"/>
      <point x="653" y="-6"/>
      <point x="714" y="287"/>
      <point x="564" y="429" type="curve" smooth="yes"/>
      <point x="476" y="512"/>
      <point x="299" y="549"/>
      <point x="167" y="471" type="curve"/>
      <point x="167" y="471"/>
      <point x="96" y="429"/>
      <point x="60" y="329" type="curve" smooth="yes"/>
      <point x="31" y="246"/>
      <point x="50" y="129"/>
      <point x="109" y="67" type="curve" smooth="yes"/>
      <point x="205" y="-35"/>
      <point x="376" y="8"/>
      <point x="376" y="8" type="curve" smooth="yes"/>
      <point x="376" y="8"/>
      <point x="383" y="-63"/>
      <point x="265" y="-68" type="curve"/>
      <point x="265" y="-68"/>
      <point x="174" y="-54"/>
      <point x="145" y="-118" type="curve"/>
      <point x="145" y="-118"/>
      <point x="91" y="-219"/>
      <point x="223" y="-266" type="curve"/>
    </contour>
    <contour>
      <point x="388" y="259"/>
      <point x="402" y="238"/>
      <point x="402" y="217" type="curve" smooth="yes"/>
      <point x="402" y="194"/>
      <point x="385" y="180"/>
      <point x="363" y="180" type="curve" smooth="yes"/>
      <point x="341" y="180"/>
      <point x="325" y="189"/>
      <point x="323" y="217" type="curve" smooth="yes"/>
      <point x="321" y="238"/>
      <point x="340" y="259"/>
      <point x="363" y="259" type="curve" smooth="yes"/>
    </contour>
  </outline>
</glyph>
<glyph name="h" format="1">
  <advance width="731"/>
  <unicode hex="0068"/>
  <outline>
    <contour>
      <point x="667" y="641"/>
      <point x="363" y="471"/>
      <point x="363" y="471" type="curve"/>
      <point x="371" y="644"/>
      <point x="323" y="753"/>
      <point x="201" y="755" type="curve" smooth="yes"/>
      <point x="56" y="757"/>
      <point x="49" y="597"/>
      <point x="49" y="597" type="curve"/>
      <point x="18" y="330"/>
      <point x="49" y="131"/>
      <point x="49" y="131" type="curve" smooth="yes"/>
      <point x="49" y="131"/>
      <point x="63" y="-8"/>
      <point x="201" y="-8" type="curve" smooth="yes"/>
      <point x="339" y="-8"/>
      <point x="350" y="126"/>
      <point x="350" y="126" type="curve" smooth="yes"/>
      <point x="350" y="126"/>
      <point x="357" y="177"/>
      <point x="349" y="274" type="curve"/>
      <point x="375" y="274"/>
      <point x="384" y="133"/>
      <point x="384" y="133" type="curve"/>
      <point x="391" y="-28"/>
      <point x="556" y="-5"/>
      <point x="555" y="-5" type="curve"/>
      <point x="714" y="23"/>
      <point x="696" y="230"/>
      <point x="696" y="230" type="curve"/>
    </contour>
  </outline>
</glyph>
<glyph name="i" format="1">
  <advance width="389"/>
  <unicode hex="0069"/>
  <outline>
    <contour>
      <point x="298" y="723"/>
      <point x="238" y="766"/>
      <point x="172" y="759" type="curve" smooth="yes"/>
      <point x="105" y="752"/>
      <point x="56" y="697"/>
      <point x="62" y="638" type="curve" smooth="yes"/>
      <point x="69" y="578"/>
      <point x="127" y="535"/>
      <point x="195" y="542" type="curve" smooth="yes"/>
      <point x="261" y="549"/>
      <point x="310" y="604"/>
      <point x="304" y="663" type="curve" smooth="yes"/>
    </contour>
    <contour>
      <point x="379" y="289"/>
      <point x="348" y="396"/>
      <point x="348" y="396" type="curve" smooth="yes"/>
      <point x="348" y="396"/>
      <point x="323" y="521"/>
      <point x="200" y="514" type="curve"/>
      <point x="200" y="514"/>
      <point x="94" y="519"/>
      <point x="61" y="397" type="curve"/>
      <point x="61" y="397"/>
      <point x="12" y="217"/>
      <point x="65" y="72" type="curve"/>
      <point x="65" y="72"/>
      <point x="94" y="-19"/>
      <point x="207" y="-15" type="curve"/>
      <point x="207" y="-15"/>
      <point x="327" y="-18"/>
      <point x="347" y="101" type="curve" smooth="yes"/>
    </contour>
  </outline>
</glyph>
<glyph name="j" format="1">
  <advance width="514"/>
  <unicode hex="006A"/>
  <outline>
    <contour>
      <point x="440" y="708"/>
      <point x="385" y="762"/>
      <point x="313" y="765" type="curve" smooth="yes"/>
      <point x="242" y="769"/>
      <point x="182" y="721"/>
      <point x="178" y="659" type="curve" smooth="yes"/>
      <point x="175" y="596"/>
      <point x="231" y="543"/>
      <point x="302" y="539" type="curve" smooth="yes"/>
      <point x="373" y="536"/>
      <point x="434" y="584"/>
      <point x="437" y="646" type="curve" smooth="yes"/>
    </contour>
    <contour>
      <point x="497" y="180"/>
      <point x="462" y="388"/>
      <point x="462" y="388" type="curve" smooth="yes"/>
      <point x="462" y="388"/>
      <point x="458" y="509"/>
      <point x="305" y="509" type="curve" smooth="yes"/>
      <point x="305" y="509"/>
      <point x="170" y="515"/>
      <point x="164" y="390" type="curve" smooth="yes"/>
      <point x="153" y="167"/>
      <point x="160" y="88"/>
      <point x="155" y="28" type="curve"/>
      <point x="155" y="28"/>
      <point x="160" y="-101"/>
      <point x="103" y="-109" type="curve"/>
      <point x="103" y="-109"/>
      <point x="34" y="-119"/>
      <point x="42" y="-198" type="curve"/>
      <point x="42" y="-198"/>
      <point x="42" y="-271"/>
      <point x="137" y="-285" type="curve"/>
      <point x="137" y="-285"/>
      <point x="289" y="-311"/>
      <point x="375" y="-227" type="curve" smooth="yes"/>
      <point x="441" y="-163"/>
      <point x="456" y="-69"/>
      <point x="456" y="-69" type="curve"/>
    </contour>
  </outline>
</glyph>
<glyph name="k" format="1">
  <advance width="738"/>
  <unicode hex="006B"/>
  <outline>
    <contour>
      <point x="361" y="543"/>
      <point x="369" y="756"/>
      <point x="200" y="749" type="curve" smooth="yes"/>
      <point x="97" y="745"/>
      <point x="77" y="662"/>
      <point x="63" y="608" type="curve"/>
      <point x="63" y="608"/>
      <point x="9" y="339"/>
      <point x="65" y="117" type="curve"/>
      <point x="65" y="117"/>
      <point x="97" y="-7"/>
      <point x="198" y="-14" type="curve" smooth="yes"/>
      <point x="382" y="-26"/>
      <point x="359" y="216"/>
      <point x="359" y="216" type="curve" smooth="yes"/>
      <point x="359" y="216"/>
      <point x="469" y="-108"/>
      <point x="654" y="18" type="curve" smooth="yes"/>
      <point x="767" y="95"/>
      <point x="666" y="277"/>
      <point x="556" y="347" type="curve"/>
      <point x="556" y="347"/>
      <point x="698" y="486"/>
      <point x="600" y="589" type="curve"/>
      <point x="600" y="589"/>
      <point x="485" y="712"/>
      <point x="361" y="543" type="curve"/>
    </contour>
  </outline>
</glyph>
<glyph name="l" format="1">
  <advance width="394"/>
  <unicode hex="006C"/>
  <outline>
    <contour>
      <point x="39" y="202"/>
      <point x="52" y="-10"/>
      <point x="192" y="-14" type="curve" smooth="yes"/>
      <point x="342" y="-18"/>
      <point x="351" y="137"/>
      <point x="351" y="137" type="curve" smooth="yes"/>
      <point x="351" y="137"/>
      <point x="373" y="334"/>
      <point x="356" y="545" type="curve" smooth="yes"/>
      <point x="338" y="766"/>
      <point x="201" y="758"/>
      <point x="201" y="758" type="curve" smooth="yes"/>
      <point x="56" y="758"/>
      <point x="44" y="560"/>
      <point x="44" y="560" type="curve" smooth="yes"/>
      <point x="44" y="560"/>
      <point x="21" y="353"/>
      <point x="39" y="202" type="curve"/>
    </contour>
  </outline>
</glyph>
<glyph name="m" format="1">
  <advance width="994"/>
  <unicode hex="006D"/>
  <outline>
    <contour>
      <point x="591" y="571"/>
      <point x="505" y="377"/>
      <point x="493" y="332" type="curve"/>
      <point x="482" y="377"/>
      <point x="390" y="584"/>
      <point x="165" y="500" type="curve" smooth="yes"/>
      <point x="2" y="439"/>
      <point x="43" y="112"/>
      <point x="43" y="112" type="curve" smooth="yes"/>
      <point x="43" y="112"/>
      <point x="57" y="-14"/>
      <point x="179" y="-14" type="curve" smooth="yes"/>
      <point x="317" y="-14"/>
      <point x="323" y="189"/>
      <point x="322" y="205" type="curve"/>
      <point x="323" y="188"/>
      <point x="340" y="-17"/>
      <point x="493" y="-17" type="curve"/>
      <point x="493" y="-17" type="line"/>
      <point x="646" y="-17"/>
      <point x="659" y="184"/>
      <point x="660" y="201" type="curve"/>
      <point x="659" y="185"/>
      <point x="662" y="-14"/>
      <point x="813" y="-14" type="curve" smooth="yes"/>
      <point x="921" y="-14"/>
      <point x="945" y="105"/>
      <point x="945" y="105" type="curve" smooth="yes"/>
      <point x="945" y="105"/>
      <point x="1009" y="437"/>
      <point x="813" y="500" type="curve" smooth="yes"/>
    </contour>
  </outline>
</glyph>
<glyph name="n" format="1">
  <advance width="716"/>
  <unicode hex="006E"/>
  <outline>
    <contour>
      <point x="670" y="641"/>
      <point x="349" y="446"/>
      <point x="349" y="446" type="curve"/>
      <point x="331" y="477"/>
      <point x="303" y="526"/>
      <point x="186" y="519" type="curve" smooth="yes"/>
      <point x="52" y="511"/>
      <point x="40" y="361"/>
      <point x="40" y="361" type="curve"/>
      <point x="28" y="220"/>
      <point x="52" y="131"/>
      <point x="52" y="131" type="curve" smooth="yes"/>
      <point x="52" y="131"/>
      <point x="73" y="-10"/>
      <point x="204" y="-8" type="curve" smooth="yes"/>
      <point x="342" y="-6"/>
      <point x="353" y="126"/>
      <point x="353" y="126" type="curve" smooth="yes"/>
      <point x="353" y="126"/>
      <point x="360" y="177"/>
      <point x="352" y="274" type="curve"/>
      <point x="378" y="274"/>
      <point x="387" y="133"/>
      <point x="387" y="133" type="curve"/>
      <point x="394" y="-28"/>
      <point x="559" y="-5"/>
      <point x="558" y="-5" type="curve"/>
      <point x="717" y="23"/>
      <point x="699" y="230"/>
      <point x="699" y="230" type="curve"/>
    </contour>
  </outline>
</glyph>
<glyph name="o" format="1">
  <advance width="586"/>
  <unicode hex="006F"/>
  <outline>
    <contour>
      <point x="559" y="153"/>
      <point x="571" y="201"/>
      <point x="571" y="263" type="curve"/>
      <point x="571" y="263"/>
      <point x="571" y="516"/>
      <point x="313" y="516" type="curve" smooth="yes"/>
      <point x="313" y="516"/>
      <point x="21" y="544"/>
      <point x="21" y="235" type="curve"/>
      <point x="21" y="235"/>
      <point x="21" y="-19"/>
      <point x="313" y="-19" type="curve"/>
      <point x="313" y="-19"/>
      <point x="360" y="-19"/>
      <point x="414" y="3" type="curve"/>
      <point x="414" y="3"/>
      <point x="498" y="38"/>
      <point x="540" y="116" type="curve" smooth="yes"/>
    </contour>
    <contour>
      <point x="332" y="274"/>
      <point x="346" y="253"/>
      <point x="346" y="232" type="curve" smooth="yes"/>
      <point x="346" y="209"/>
      <point x="329" y="195"/>
      <point x="307" y="195" type="curve" smooth="yes"/>
      <point x="285" y="195"/>
      <point x="269" y="204"/>
      <point x="267" y="232" type="curve" smooth="yes"/>
      <point x="265" y="253"/>
      <point x="284" y="274"/>
      <point x="307" y="274" type="curve" smooth="yes"/>
    </contour>
  </outline>
</glyph>
<glyph name="p" format="1">
  <advance width="686"/>
  <unicode hex="0070"/>
  <outline>
    <contour>
      <point x="35" y="-76"/>
      <point x="54" y="-251"/>
      <point x="197" y="-251" type="curve" smooth="yes"/>
      <point x="379" y="-251"/>
      <point x="320" y="18"/>
      <point x="320" y="18" type="curve" smooth="yes"/>
      <point x="320" y="18"/>
      <point x="468" y="-57"/>
      <point x="598" y="50" type="curve" smooth="yes"/>
      <point x="668" y="108"/>
      <point x="687" y="252"/>
      <point x="665" y="338" type="curve" smooth="yes"/>
      <point x="640" y="434"/>
      <point x="557" y="482"/>
      <point x="557" y="482" type="curve"/>
      <point x="428" y="554"/>
      <point x="226" y="540"/>
      <point x="132" y="432" type="curve" smooth="yes"/>
      <point x="-12" y="266"/>
      <point x="35" y="-76"/>
      <point x="35" y="-76" type="curve" smooth="yes"/>
    </contour>
    <contour>
      <point x="392" y="274"/>
      <point x="406" y="253"/>
      <point x="406" y="232" type="curve" smooth="yes"/>
      <point x="406" y="209"/>
      <point x="389" y="195"/>
      <point x="367" y="195" type="curve" smooth="yes"/>
      <point x="345" y="195"/>
      <point x="329" y="204"/>
      <point x="327" y="232" type="curve" smooth="yes"/>
      <point x="325" y="253"/>
      <point x="344" y="274"/>
      <point x="367" y="274" type="curve" smooth="yes"/>
    </contour>
  </outline>
</glyph>
<glyph name="q" format="1">
  <advance width="722"/>
  <unicode hex="0071"/>
  <outline>
    <contour>
      <point x="685" y="-244"/>
      <point x="703" y="-89"/>
      <point x="703" y="-89" type="curve" smooth="yes"/>
      <point x="703" y="-89"/>
      <point x="753" y="260"/>
      <point x="638" y="422" type="curve" smooth="yes"/>
      <point x="559" y="534"/>
      <point x="331" y="573"/>
      <point x="182" y="495" type="curve"/>
      <point x="182" y="495"/>
      <point x="90" y="445"/>
      <point x="58" y="345" type="curve" smooth="yes"/>
      <point x="29" y="253"/>
      <point x="43" y="115"/>
      <point x="123" y="50" type="curve" smooth="yes"/>
      <point x="253" y="-57"/>
      <point x="403" y="25"/>
      <point x="403" y="25" type="curve" smooth="yes"/>
      <point x="403" y="25"/>
      <point x="369" y="-244"/>
      <point x="541" y="-244" type="curve" smooth="yes"/>
    </contour>
    <contour>
      <point x="402" y="274"/>
      <point x="416" y="253"/>
      <point x="416" y="232" type="curve" smooth="yes"/>
      <point x="416" y="209"/>
      <point x="399" y="195"/>
      <point x="377" y="195" type="curve" smooth="yes"/>
      <point x="355" y="195"/>
      <point x="339" y="204"/>
      <point x="337" y="232" type="curve" smooth="yes"/>
      <point x="335" y="253"/>
      <point x="354" y="274"/>
      <point x="377" y="274" type="curve" smooth="yes"/>
    </contour>
  </outline>
</glyph>
<glyph name="r" format="1">
  <advance width="609"/>
  <unicode hex="0072"/>
  <outline>
    <contour>
      <point x="317" y="448"/>
      <point x="297" y="542"/>
      <point x="185" y="538" type="curve"/>
      <point x="185" y="538"/>
      <point x="61" y="545"/>
      <point x="33" y="418" type="curve"/>
      <point x="33" y="418"/>
      <point x="3" y="233"/>
      <point x="51" y="90" type="curve"/>
      <point x="51" y="90"/>
      <point x="82" y="-10"/>
      <point x="195" y="-7" type="curve"/>
      <point x="195" y="-7"/>
      <point x="398" y="-29"/>
      <point x="354" y="293" type="curve"/>
      <point x="354" y="293"/>
      <point x="443" y="225"/>
      <point x="527" y="274" type="curve"/>
      <point x="527" y="274"/>
      <point x="590" y="309"/>
      <point x="587" y="395" type="curve" smooth="yes"/>
      <point x="586" y="430"/>
      <point x="572" y="497"/>
      <point x="491" y="518" type="curve"/>
      <point x="491" y="518"/>
      <point x="386" y="546"/>
      <point x="317" y="448" type="curve"/>
    </contour>
  </outline>
</glyph>
<glyph name="s" format="1">
  <advance width="561"/>
  <unicode hex="0073"/>
  <outline>
    <contour>
      <point x="330" y="318"/>
      <point x="538" y="291"/>
      <point x="544" y="411" type="curve" smooth="yes"/>
      <point x="547" y="476"/>
      <point x="511" y="528"/>
      <point x="324" y="532" type="curve" smooth="yes"/>
      <point x="324" y="532"/>
      <point x="76" y="538"/>
      <point x="68" y="368" type="curve"/>
      <point x="68" y="368"/>
      <point x="60" y="264"/>
      <point x="239" y="222" type="curve"/>
      <point x="239" y="222"/>
      <point x="44" y="223"/>
      <point x="49" y="90" type="curve"/>
      <point x="49" y="90"/>
      <point x="34" y="-43"/>
      <point x="330" y="-31" type="curve"/>
      <point x="330" y="-31"/>
      <point x="548" y="-25"/>
      <point x="548" y="150" type="curve"/>
      <point x="548" y="150"/>
      <point x="563" y="289"/>
      <point x="330" y="318" type="curve"/>
    </contour>
  </outline>
</glyph>
<glyph name="t" format="1">
  <advance width="692"/>
  <unicode hex="0074"/>
  <outline>
    <contour>
      <point x="136" y="583"/>
      <point x="23" y="559"/>
      <point x="23" y="448" type="curve" smooth="yes"/>
      <point x="23" y="289"/>
      <point x="224" y="327"/>
      <point x="224" y="327" type="curve"/>
      <point x="211" y="147"/>
      <point x="198" y="-12"/>
      <point x="369" y="-12" type="curve" smooth="yes"/>
      <point x="541" y="-12"/>
      <point x="498" y="321"/>
      <point x="498" y="321" type="curve" smooth="yes"/>
      <point x="498" y="321"/>
      <point x="676" y="305"/>
      <point x="676" y="448" type="curve" smooth="yes"/>
      <point x="676" y="602"/>
      <point x="486" y="581"/>
      <point x="486" y="581" type="curve" smooth="yes"/>
      <point x="486" y="581"/>
      <point x="508" y="758"/>
      <point x="342" y="758" type="curve" smooth="yes"/>
      <point x="171" y="759"/>
      <point x="205" y="583"/>
      <point x="205" y="583" type="curve" smooth="yes"/>
    </contour>
  </outline>
</glyph>
<glyph name="v" format="1">
  <advance width="668"/>
  <unicode hex="0076"/>
  <outline>
    <contour>
      <point x="340" y="303"/>
      <point x="298" y="543"/>
      <point x="135" y="512" type="curve" smooth="yes"/>
      <point x="-4" y="484"/>
      <point x="20" y="340"/>
      <point x="48" y="270" type="curve" smooth="yes"/>
      <point x="75" y="199"/>
      <point x="172" y="-6"/>
      <point x="340" y="-6" type="curve" smooth="yes"/>
      <point x="499" y="-6"/>
      <point x="603" y="236"/>
      <point x="603" y="236" type="curve" smooth="yes"/>
      <point x="603" y="236"/>
      <point x="717" y="476"/>
      <point x="548" y="513" type="curve" smooth="yes"/>
      <point x="362" y="553"/>
      <point x="340" y="303"/>
      <point x="340" y="303" type="curve" smooth="yes"/>
    </contour>
  </outline>
</glyph>
<glyph name="w" format="1">
  <advance width="875"/>
  <unicode hex="0077"/>
  <outline>
    <contour>
      <point x="443" y="130"/>
      <point x="444" y="-13"/>
      <point x="616" y="-13" type="curve"/>
      <point x="616" y="-13"/>
      <point x="719" y="-18"/>
      <point x="782" y="97" type="curve"/>
      <point x="782" y="97"/>
      <point x="841" y="195"/>
      <point x="847" y="363" type="curve"/>
      <point x="847" y="363"/>
      <point x="857" y="524"/>
      <point x="705" y="526" type="curve" smooth="yes"/>
      <point x="705" y="526"/>
      <point x="545" y="537"/>
      <point x="545" y="290" type="curve"/>
      <point x="545" y="290"/>
      <point x="550" y="404"/>
      <point x="444" y="405" type="curve" smooth="yes"/>
      <point x="444" y="405"/>
      <point x="346" y="410"/>
      <point x="352" y="290" type="curve"/>
      <point x="352" y="290"/>
      <point x="363" y="526"/>
      <point x="169" y="526" type="curve" smooth="yes"/>
      <point x="169" y="526"/>
      <point x="26" y="521"/>
      <point x="39" y="359" type="curve"/>
      <point x="39" y="359"/>
      <point x="46" y="228"/>
      <point x="112" y="102" type="curve"/>
      <point x="112" y="102"/>
      <point x="163" y="-14"/>
      <point x="274" y="-14" type="curve" smooth="yes"/>
      <point x="432" y="-14"/>
      <point x="443" y="130"/>
      <point x="443" y="130" type="curve" smooth="yes"/>
    </contour>
  </outline>
</glyph>
<glyph name="x" format="1">
  <advance width="624"/>
  <unicode hex="0078"/>
  <outline>
    <contour>
      <point x="313" y="429"/>
      <point x="220" y="613"/>
      <point x="79" y="481" type="curve" smooth="yes"/>
      <point x="-30" y="377"/>
      <point x="102" y="256"/>
      <point x="102" y="256" type="curve" smooth="yes"/>
      <point x="102" y="256"/>
      <point x="-53" y="143"/>
      <point x="88" y="16" type="curve" smooth="yes"/>
      <point x="218" y="-102"/>
      <point x="305" y="80"/>
      <point x="305" y="80" type="curve"/>
      <point x="317" y="49"/>
      <point x="406" y="-96"/>
      <point x="538" y="16" type="curve" smooth="yes"/>
      <point x="680" y="136"/>
      <point x="516" y="262"/>
      <point x="516" y="262" type="curve" smooth="yes"/>
      <point x="516" y="262"/>
      <point x="654" y="385"/>
      <point x="546" y="481" type="curve" smooth="yes"/>
      <point x="415" y="598"/>
      <point x="313" y="429"/>
      <point x="313" y="429" type="curve" smooth="yes"/>
    </contour>
  </outline>
</glyph>
<glyph name="y" format="1">
  <advance width="711"/>
  <unicode hex="0079"/>
  <outline>
    <contour>
      <point x="475" y="564"/>
      <point x="394" y="406"/>
      <point x="364" y="352" type="curve"/>
      <point x="346" y="378"/>
      <point x="327" y="406"/>
      <point x="305" y="434" type="curve" smooth="yes"/>
      <point x="200" y="566"/>
      <point x="93" y="493"/>
      <point x="93" y="493" type="curve"/>
      <point x="-28" y="396"/>
      <point x="61" y="269"/>
      <point x="61" y="269" type="curve" smooth="yes"/>
      <point x="61" y="269"/>
      <point x="110" y="188"/>
      <point x="198" y="121" type="curve"/>
      <point x="198" y="121"/>
      <point x="217" y="105"/>
      <point x="233" y="89" type="curve"/>
      <point x="211" y="42"/>
      <point x="111" y="-150"/>
      <point x="243" y="-213" type="curve" smooth="yes"/>
      <point x="382" y="-280"/>
      <point x="475" y="-100"/>
      <point x="475" y="-100" type="curve" smooth="yes"/>
      <point x="475" y="-100"/>
      <point x="569" y="37"/>
      <point x="644" y="244" type="curve" smooth="yes"/>
      <point x="725" y="468"/>
      <point x="606" y="505"/>
      <point x="606" y="505" type="curve"/>
    </contour>
  </outline>
</glyph>
<glyph name="z" format="1">
  <advance width="601"/>
  <unicode hex="007A"/>
  <outline>
    <contour>
      <point x="180" y="306"/>
      <point x="24" y="201"/>
      <point x="57" y="75" type="curve" smooth="yes"/>
      <point x="82" y="-13"/>
      <point x="202" y="-14"/>
      <point x="317" y="-14" type="curve" smooth="yes"/>
      <point x="432" y="-14"/>
      <point x="568" y="-13"/>
      <point x="568" y="123" type="curve" smooth="yes"/>
      <point x="568" y="259"/>
      <point x="393" y="253"/>
      <point x="393" y="253" type="curve"/>
      <point x="499" y="344"/>
      <point x="514" y="427"/>
      <point x="514" y="427" type="curve"/>
      <point x="527" y="503"/>
      <point x="468" y="551"/>
      <point x="287" y="557" type="curve" smooth="yes"/>
      <point x="20" y="564"/>
      <point x="28" y="434"/>
      <point x="28" y="434" type="curve"/>
      <point x="20" y="295"/>
      <point x="180" y="306"/>
      <point x="180" y="306" type="curve" smooth="yes"/>
    </contour>
  </outline>
</glyph>
<glyph name="braceleft" format="1">
  <advance width="568"/>
  <unicode hex="007B"/>
  <outline>
    <contour>
      <point x="433" y="58"/>
      <point x="361" y="72"/>
      <point x="419" y="195" type="curve" smooth="yes"/>
      <point x="459" y="280"/>
      <point x="393" y="333"/>
      <point x="377" y="344" type="curve"/>
      <point x="393" y="355"/>
      <point x="459" y="407"/>
      <point x="419" y="493" type="curve" smooth="yes"/>
      <point x="361" y="615"/>
      <point x="433" y="630"/>
      <point x="433" y="630" type="curve"/>
      <point x="505" y="644"/>
      <point x="477" y="716"/>
      <point x="477" y="716" type="curve"/>
      <point x="462" y="766"/>
      <point x="373" y="777"/>
      <point x="373" y="777" type="curve"/>
      <point x="266" y="786"/>
      <point x="231" y="732"/>
      <point x="231" y="732" type="curve"/>
      <point x="177" y="663"/>
      <point x="223" y="560"/>
      <point x="223" y="560" type="curve" smooth="yes"/>
      <point x="223" y="560"/>
      <point x="261" y="471"/>
      <point x="198" y="460" type="curve"/>
      <point x="198" y="460"/>
      <point x="108" y="458"/>
      <point x="106" y="346" type="curve"/>
      <point x="106" y="346" type="line"/>
      <point x="106" y="345"/>
      <point x="106" y="344"/>
      <point x="106" y="344" type="curve"/>
      <point x="106" y="343"/>
      <point x="106" y="342"/>
      <point x="106" y="342" type="curve" smooth="yes"/>
      <point x="106" y="342" type="line"/>
      <point x="108" y="230"/>
      <point x="198" y="227"/>
      <point x="198" y="227" type="curve"/>
      <point x="261" y="216"/>
      <point x="223" y="127"/>
      <point x="223" y="127" type="curve" smooth="yes"/>
      <point x="223" y="127"/>
      <point x="177" y="25"/>
      <point x="231" y="-45" type="curve"/>
      <point x="231" y="-45"/>
      <point x="266" y="-98"/>
      <point x="373" y="-89" type="curve"/>
      <point x="373" y="-89"/>
      <point x="462" y="-79"/>
      <point x="477" y="-29" type="curve"/>
      <point x="477" y="-29"/>
      <point x="505" y="43"/>
      <point x="433" y="58" type="curve"/>
    </contour>
  </outline>
</glyph>
<glyph name="bar" format="1">
  <advance width="258"/>
  <unicode hex="007C"/>
  <outline>
    <contour>
      <point x="200" y="8"/>
      <point x="235" y="305"/>
      <point x="215" y="682" type="curve" smooth="yes"/>
      <point x="210" y="775"/>
      <point x="131" y="775"/>
      <point x="131" y="775" type="curve" smooth="yes"/>
      <point x="131" y="775"/>
      <point x="58" y="779"/>
      <point x="48" y="684" type="curve" smooth="yes"/>
      <point x="36" y="564"/>
      <point x="26" y="250"/>
      <point x="38" y="8" type="curve" smooth="yes"/>
      <point x="42" y="-73"/>
      <point x="119" y="-63"/>
      <point x="119" y="-63" type="curve" smooth="yes"/>
      <point x="119" y="-63"/>
      <point x="188" y="-69"/>
      <point x="200" y="8" type="curve"/>
    </contour>
  </outline>
</glyph>
<glyph name="braceright" format="1">
  <advance width="517"/>
  <unicode hex="007D"/>
  <outline>
    <contour>
      <point x="51" y="52"/>
      <point x="80" y="-20"/>
      <point x="80" y="-20" type="curve"/>
      <point x="94" y="-70"/>
      <point x="183" y="-81"/>
      <point x="183" y="-81" type="curve"/>
      <point x="290" y="-90"/>
      <point x="326" y="-36"/>
      <point x="326" y="-36" type="curve"/>
      <point x="379" y="33"/>
      <point x="333" y="136"/>
      <point x="333" y="136" type="curve" smooth="yes"/>
      <point x="333" y="136"/>
      <point x="296" y="225"/>
      <point x="358" y="236" type="curve"/>
      <point x="358" y="236"/>
      <point x="449" y="239"/>
      <point x="451" y="350" type="curve"/>
      <point x="451" y="350" type="line"/>
      <point x="451" y="351"/>
      <point x="451" y="352"/>
      <point x="451" y="352" type="curve"/>
      <point x="451" y="353"/>
      <point x="451" y="354"/>
      <point x="451" y="354" type="curve" smooth="yes"/>
      <point x="451" y="354" type="line"/>
      <point x="449" y="466"/>
      <point x="358" y="469"/>
      <point x="358" y="469" type="curve"/>
      <point x="296" y="480"/>
      <point x="333" y="569"/>
      <point x="333" y="569" type="curve" smooth="yes"/>
      <point x="333" y="569"/>
      <point x="379" y="672"/>
      <point x="326" y="741" type="curve"/>
      <point x="326" y="741"/>
      <point x="290" y="794"/>
      <point x="183" y="786" type="curve"/>
      <point x="183" y="786"/>
      <point x="94" y="775"/>
      <point x="80" y="725" type="curve"/>
      <point x="80" y="725"/>
      <point x="51" y="653"/>
      <point x="123" y="638" type="curve"/>
      <point x="123" y="638"/>
      <point x="195" y="624"/>
      <point x="137" y="501" type="curve" smooth="yes"/>
      <point x="97" y="416"/>
      <point x="164" y="363"/>
      <point x="180" y="352" type="curve"/>
      <point x="164" y="341"/>
      <point x="97" y="289"/>
      <point x="137" y="203" type="curve" smooth="yes"/>
      <point x="195" y="81"/>
      <point x="123" y="67"/>
      <point x="123" y="67" type="curve"/>
    </contour>
  </outline>
</glyph>
<glyph name="asciitilde" format="1">
  <advance width="496"/>
  <unicode hex="007E"/>
  <outline>
    <contour>
      <point x="479" y="308"/>
      <point x="385" y="335"/>
      <point x="385" y="335" type="curve"/>
      <point x="344" y="348"/>
      <point x="311" y="321"/>
      <point x="298" y="283" type="curve"/>
      <point x="297" y="284"/>
      <point x="297" y="286"/>
      <point x="296" y="287" type="curve"/>
      <point x="89" y="449"/>
      <point x="36" y="248"/>
      <point x="36" y="248" type="curve"/>
      <point x="23" y="213"/>
      <point x="45" y="169"/>
      <point x="80" y="157" type="curve"/>
      <point x="80" y="157"/>
      <point x="156" y="128"/>
      <point x="180" y="218" type="curve"/>
      <point x="180" y="218"/>
      <point x="343" y="71"/>
      <point x="425" y="214" type="curve" smooth="yes"/>
    </contour>
  </outline>
</glyph>
<glyph name="exclamdown" format="1">
  <advance width="446"/>
  <unicode hex="00A1"/>
  <outline>
    <contour>
      <point x="387" y="105"/>
      <point x="366" y="265"/>
      <point x="225" y="265" type="curve" smooth="yes"/>
      <point x="100" y="265"/>
      <point x="66" y="142"/>
      <point x="66" y="142" type="curve" smooth="yes"/>
      <point x="66" y="142"/>
      <point x="35" y="27"/>
      <point x="66" y="-102" type="curve" smooth="yes"/>
      <point x="99" y="-238"/>
      <point x="225" y="-241"/>
      <point x="225" y="-241" type="curve"/>
      <point x="381" y="-241"/>
      <point x="392" y="-81"/>
      <point x="392" y="-81" type="curve" smooth="yes"/>
      <point x="392" y="-81"/>
      <point x="404" y="37"/>
      <point x="387" y="105" type="curve"/>
    </contour>
    <contour>
      <point x="96" y="376"/>
      <point x="154" y="328"/>
      <point x="226" y="328" type="curve" smooth="yes"/>
      <point x="297" y="328"/>
      <point x="355" y="376"/>
      <point x="355" y="436" type="curve" smooth="yes"/>
      <point x="355" y="496"/>
      <point x="297" y="544"/>
      <point x="226" y="544" type="curve" smooth="yes"/>
      <point x="154" y="544"/>
      <point x="96" y="496"/>
      <point x="96" y="436" type="curve" smooth="yes"/>
    </contour>
  </outline>
</glyph>
<glyph name="cent" format="1">
  <advance width="555"/>
  <unicode hex="00A2"/>
  <outline>
    <contour>
      <point x="460" y="403"/>
      <point x="367" y="361"/>
      <point x="367" y="361" type="curve"/>
      <point x="300" y="335"/>
      <point x="300" y="382"/>
      <point x="300" y="382" type="curve"/>
      <point x="300" y="430"/>
      <point x="366" y="409"/>
      <point x="366" y="409" type="curve"/>
      <point x="474" y="389"/>
      <point x="501" y="464"/>
      <point x="501" y="464" type="curve"/>
      <point x="527" y="538"/>
      <point x="480" y="578"/>
      <point x="480" y="578" type="curve"/>
      <point x="446" y="610"/>
      <point x="407" y="626"/>
      <point x="369" y="634" type="curve"/>
      <point x="369" y="643"/>
      <point x="368" y="653"/>
      <point x="368" y="663" type="curve"/>
      <point x="365" y="750"/>
      <point x="302" y="750"/>
      <point x="302" y="750" type="curve" smooth="yes"/>
      <point x="302" y="750"/>
      <point x="243" y="754"/>
      <point x="235" y="665" type="curve" smooth="yes"/>
      <point x="234" y="655"/>
      <point x="234" y="643"/>
      <point x="233" y="631" type="curve"/>
      <point x="218" y="628"/>
      <point x="210" y="625"/>
      <point x="210" y="625" type="curve"/>
      <point x="34" y="572"/>
      <point x="41" y="381"/>
      <point x="41" y="381" type="curve"/>
      <point x="41" y="208"/>
      <point x="161" y="155"/>
      <point x="161" y="155" type="curve"/>
      <point x="185" y="144"/>
      <point x="209" y="136"/>
      <point x="230" y="130" type="curve"/>
      <point x="231" y="116"/>
      <point x="231" y="102"/>
      <point x="232" y="87" type="curve" smooth="yes"/>
      <point x="236" y="0"/>
      <point x="299" y="0"/>
      <point x="299" y="0" type="curve" smooth="yes"/>
      <point x="299" y="0"/>
      <point x="357" y="-4"/>
      <point x="365" y="85" type="curve"/>
      <point x="367" y="97"/>
      <point x="367" y="111"/>
      <point x="368" y="127" type="curve"/>
      <point x="430" y="139"/>
      <point x="467" y="166"/>
      <point x="467" y="166" type="curve"/>
      <point x="561" y="234"/>
      <point x="514" y="314"/>
      <point x="514" y="314" type="curve"/>
    </contour>
  </outline>
</glyph>
<glyph name="sterling" format="1">
  <advance width="705"/>
  <unicode hex="00A3"/>
  <outline>
    <contour>
      <point x="149" y="265"/>
      <point x="143" y="226"/>
      <point x="152" y="203" type="curve"/>
      <point x="152" y="203"/>
      <point x="27" y="194"/>
      <point x="47" y="75" type="curve"/>
      <point x="47" y="75"/>
      <point x="75" y="-63"/>
      <point x="201" y="-8" type="curve" smooth="yes"/>
      <point x="298" y="34"/>
      <point x="368" y="2"/>
      <point x="368" y="2" type="curve" smooth="yes"/>
      <point x="368" y="2"/>
      <point x="541" y="-51"/>
      <point x="637" y="57" type="curve"/>
      <point x="637" y="57"/>
      <point x="703" y="133"/>
      <point x="621" y="206" type="curve"/>
      <point x="621" y="206"/>
      <point x="582" y="250"/>
      <point x="503" y="206" type="curve" smooth="yes"/>
      <point x="447" y="175"/>
      <point x="373" y="213"/>
      <point x="373" y="213" type="curve" smooth="yes"/>
      <point x="373" y="213"/>
      <point x="358" y="219"/>
      <point x="365" y="270" type="curve"/>
      <point x="365" y="270"/>
      <point x="440" y="250"/>
      <point x="473" y="291" type="curve"/>
      <point x="473" y="291"/>
      <point x="514" y="344"/>
      <point x="481" y="394" type="curve"/>
      <point x="481" y="394"/>
      <point x="460" y="440"/>
      <point x="370" y="430" type="curve"/>
      <point x="370" y="430"/>
      <point x="363" y="483"/>
      <point x="399" y="493" type="curve" smooth="yes"/>
      <point x="436" y="503"/>
      <point x="451" y="474"/>
      <point x="468" y="450" type="curve" smooth="yes"/>
      <point x="484" y="427"/>
      <point x="536" y="412"/>
      <point x="585" y="443" type="curve"/>
      <point x="585" y="443"/>
      <point x="662" y="492"/>
      <point x="614" y="586" type="curve" smooth="yes"/>
      <point x="594" y="624"/>
      <point x="558" y="674"/>
      <point x="495" y="696" type="curve"/>
      <point x="495" y="696"/>
      <point x="267" y="761"/>
      <point x="183" y="607" type="curve"/>
      <point x="183" y="607"/>
      <point x="146" y="547"/>
      <point x="143" y="430" type="curve"/>
      <point x="143" y="430"/>
      <point x="67" y="443"/>
      <point x="43" y="377" type="curve"/>
      <point x="43" y="377"/>
      <point x="22" y="307"/>
      <point x="74" y="275" type="curve" smooth="yes"/>
      <point x="97" y="261"/>
      <point x="118" y="262"/>
      <point x="149" y="265" type="curve"/>
    </contour>
  </outline>
</glyph>
<glyph name="yen" format="1">
  <advance width="746"/>
  <unicode hex="00A5"/>
  <outline>
    <contour>
      <point x="715" y="529"/>
      <point x="742" y="691"/>
      <point x="586" y="710" type="curve"/>
      <point x="586" y="710"/>
      <point x="438" y="735"/>
      <point x="382" y="531" type="curve"/>
      <point x="382" y="531"/>
      <point x="348" y="724"/>
      <point x="161" y="715" type="curve"/>
      <point x="161" y="715"/>
      <point x="11" y="703"/>
      <point x="22" y="531" type="curve" smooth="yes"/>
      <point x="32" y="380"/>
      <point x="223" y="352"/>
      <point x="223" y="352" type="curve" smooth="yes"/>
      <point x="223" y="352"/>
      <point x="220" y="335"/>
      <point x="217" y="307" type="curve"/>
      <point x="189" y="307"/>
      <point x="165" y="306"/>
      <point x="140" y="306" type="curve" smooth="yes"/>
      <point x="82" y="307"/>
      <point x="85" y="253"/>
      <point x="85" y="253" type="curve" smooth="yes"/>
      <point x="85" y="253"/>
      <point x="85" y="211"/>
      <point x="134" y="208" type="curve" smooth="yes"/>
      <point x="157" y="207"/>
      <point x="184" y="206"/>
      <point x="213" y="205" type="curve"/>
      <point x="213" y="198"/>
      <point x="214" y="190"/>
      <point x="214" y="182" type="curve"/>
      <point x="187" y="182"/>
      <point x="162" y="181"/>
      <point x="137" y="180" type="curve" smooth="yes"/>
      <point x="81" y="178"/>
      <point x="85" y="128"/>
      <point x="85" y="128" type="curve" smooth="yes"/>
      <point x="85" y="128"/>
      <point x="85" y="87"/>
      <point x="134" y="84" type="curve" smooth="yes"/>
      <point x="163" y="82"/>
      <point x="198" y="81"/>
      <point x="236" y="80" type="curve"/>
      <point x="243" y="61"/>
      <point x="253" y="45"/>
      <point x="265" y="31" type="curve"/>
      <point x="265" y="31"/>
      <point x="304" y="-15"/>
      <point x="389" y="-15" type="curve" smooth="yes"/>
      <point x="441" y="-15"/>
      <point x="486" y="3"/>
      <point x="509" y="44" type="curve"/>
      <point x="509" y="44"/>
      <point x="516" y="57"/>
      <point x="524" y="80" type="curve"/>
      <point x="579" y="82"/>
      <point x="625" y="84"/>
      <point x="656" y="87" type="curve" smooth="yes"/>
      <point x="695" y="90"/>
      <point x="695" y="132"/>
      <point x="695" y="132" type="curve" smooth="yes"/>
      <point x="695" y="132"/>
      <point x="698" y="181"/>
      <point x="646" y="181" type="curve" smooth="yes"/>
      <point x="646" y="181"/>
      <point x="607" y="182"/>
      <point x="548" y="183" type="curve"/>
      <point x="549" y="190"/>
      <point x="550" y="198"/>
      <point x="551" y="206" type="curve"/>
      <point x="594" y="207"/>
      <point x="630" y="209"/>
      <point x="656" y="211" type="curve" smooth="yes"/>
      <point x="695" y="215"/>
      <point x="695" y="257"/>
      <point x="695" y="257" type="curve" smooth="yes"/>
      <point x="695" y="257"/>
      <point x="698" y="306"/>
      <point x="646" y="306" type="curve" smooth="yes"/>
      <point x="646" y="306"/>
      <point x="606" y="307"/>
      <point x="546" y="308" type="curve"/>
      <point x="543" y="325"/>
      <point x="539" y="342"/>
      <point x="533" y="359" type="curve"/>
      <point x="533" y="359"/>
      <point x="690" y="381"/>
      <point x="715" y="529" type="curve"/>
    </contour>
  </outline>
</glyph>
<glyph name="ordfeminine" format="1">
  <advance width="234"/>
  <unicode hex="00AA"/>
  <outline>
    <contour>
      <point x="129" y="633"/>
      <point x="121" y="660"/>
      <point x="77" y="655" type="curve" smooth="yes"/>
      <point x="9" y="649"/>
      <point x="15" y="571"/>
      <point x="15" y="571" type="curve"/>
      <point x="15" y="504"/>
      <point x="71" y="502"/>
      <point x="71" y="502" type="curve"/>
      <point x="124" y="496"/>
      <point x="132" y="527"/>
      <point x="132" y="527" type="curve"/>
      <point x="136" y="498"/>
      <point x="165" y="500"/>
      <point x="165" y="500" type="curve" smooth="yes"/>
      <point x="165" y="500"/>
      <point x="212" y="494"/>
      <point x="207" y="583" type="curve"/>
      <point x="207" y="583"/>
      <point x="207" y="658"/>
      <point x="163" y="658" type="curve" smooth="yes"/>
      <point x="136" y="658"/>
      <point x="129" y="633"/>
      <point x="129" y="633" type="curve" smooth="yes"/>
    </contour>
    <contour>
      <point x="124" y="587"/>
      <point x="128" y="580"/>
      <point x="128" y="574" type="curve" smooth="yes"/>
      <point x="128" y="567"/>
      <point x="123" y="563"/>
      <point x="116" y="563" type="curve" smooth="yes"/>
      <point x="110" y="563"/>
      <point x="105" y="566"/>
      <point x="105" y="574" type="curve"/>
      <point x="104" y="580"/>
      <point x="110" y="587"/>
      <point x="116" y="587" type="curve" smooth="yes"/>
    </contour>
  </outline>
</glyph>
<glyph name="degree" format="1">
  <advance width="390"/>
  <unicode hex="00B0"/>
  <outline>
    <contour>
      <point x="350" y="652"/>
      <point x="288" y="719"/>
      <point x="201" y="719" type="curve" smooth="yes"/>
      <point x="113" y="719"/>
      <point x="51" y="652"/>
      <point x="51" y="570" type="curve" smooth="yes"/>
      <point x="51" y="487"/>
      <point x="113" y="421"/>
      <point x="201" y="421" type="curve" smooth="yes"/>
      <point x="288" y="421"/>
      <point x="350" y="487"/>
      <point x="350" y="570" type="curve" smooth="yes"/>
    </contour>
    <contour>
      <point x="249" y="654"/>
      <point x="283" y="620"/>
      <point x="283" y="567" type="curve" smooth="yes"/>
      <point x="283" y="524"/>
      <point x="257" y="491"/>
      <point x="201" y="491" type="curve" smooth="yes"/>
      <point x="144" y="491"/>
      <point x="116" y="524"/>
      <point x="116" y="567" type="curve" smooth="yes"/>
      <point x="116" y="607"/>
      <point x="144" y="654"/>
      <point x="201" y="654" type="curve" smooth="yes"/>
    </contour>
  </outline>
</glyph>
<glyph name="twosuperior" format="1">
  <advance width="194"/>
  <unicode hex="00B2"/>
  <outline>
    <contour>
      <point x="77" y="717"/>
      <point x="12" y="710"/>
      <point x="14" y="667" type="curve"/>
      <point x="14" y="667"/>
      <point x="17" y="635"/>
      <point x="45" y="641" type="curve"/>
      <point x="45" y="641"/>
      <point x="66" y="650"/>
      <point x="77" y="635" type="curve" smooth="yes"/>
      <point x="85" y="624"/>
      <point x="75" y="608"/>
      <point x="63" y="599" type="curve"/>
      <point x="39" y="578"/>
      <point x="14" y="566"/>
      <point x="19" y="530" type="curve"/>
      <point x="19" y="530"/>
      <point x="21" y="493"/>
      <point x="89" y="493" type="curve"/>
      <point x="89" y="493"/>
      <point x="177" y="487"/>
      <point x="178" y="531" type="curve" smooth="yes"/>
      <point x="180" y="576"/>
      <point x="128" y="574"/>
      <point x="128" y="574" type="curve" smooth="yes"/>
      <point x="128" y="574"/>
      <point x="181" y="631"/>
      <point x="152" y="686" type="curve"/>
      <point x="152" y="686"/>
      <point x="136" y="721"/>
      <point x="77" y="717" type="curve"/>
    </contour>
  </outline>
</glyph>
<glyph name="threesuperior" format="1">
  <advance width="210"/>
  <unicode hex="00B3"/>
  <outline>
    <contour>
      <point x="103" y="709"/>
      <point x="43" y="708"/>
      <point x="42" y="672" type="curve"/>
      <point x="42" y="672"/>
      <point x="38" y="638"/>
      <point x="102" y="645" type="curve"/>
      <point x="102" y="645"/>
      <point x="68" y="638"/>
      <point x="68" y="615" type="curve"/>
      <point x="68" y="615"/>
      <point x="65" y="586"/>
      <point x="103" y="586" type="curve"/>
      <point x="103" y="586"/>
      <point x="118" y="587"/>
      <point x="123" y="578" type="curve"/>
      <point x="123" y="578"/>
      <point x="129" y="568"/>
      <point x="120" y="560" type="curve"/>
      <point x="120" y="560"/>
      <point x="109" y="550"/>
      <point x="90" y="562" type="curve"/>
      <point x="90" y="562"/>
      <point x="64" y="579"/>
      <point x="47" y="562" type="curve"/>
      <point x="47" y="562"/>
      <point x="19" y="535"/>
      <point x="56" y="511" type="curve"/>
      <point x="56" y="511"/>
      <point x="108" y="479"/>
      <point x="168" y="504" type="curve"/>
      <point x="168" y="504"/>
      <point x="211" y="524"/>
      <point x="204" y="580" type="curve"/>
      <point x="204" y="580"/>
      <point x="201" y="616"/>
      <point x="170" y="630" type="curve"/>
      <point x="170" y="630"/>
      <point x="195" y="657"/>
      <point x="179" y="687" type="curve" smooth="yes"/>
      <point x="165" y="713"/>
      <point x="103" y="709"/>
      <point x="103" y="709" type="curve" smooth="yes"/>
    </contour>
  </outline>
</glyph>
<glyph name="acute" format="1">
  <advance width="342"/>
  <unicode hex="00B4"/>
  <outline>
    <contour>
      <point x="49" y="667"/>
      <point x="15" y="629"/>
      <point x="35" y="589" type="curve" smooth="yes"/>
      <point x="57" y="546"/>
      <point x="113" y="560"/>
      <point x="113" y="560" type="curve" smooth="yes"/>
      <point x="113" y="560"/>
      <point x="220" y="575"/>
      <point x="276" y="624" type="curve" smooth="yes"/>
      <point x="326" y="667"/>
      <point x="303" y="715"/>
      <point x="282" y="737" type="curve"/>
      <point x="262" y="756"/>
      <point x="239" y="775"/>
      <point x="179" y="755" type="curve" smooth="yes"/>
      <point x="136" y="741"/>
      <point x="71" y="695"/>
      <point x="49" y="667" type="curve"/>
    </contour>
  </outline>
</glyph>
<glyph name="paragraph" format="1">
  <advance width="702"/>
  <unicode hex="00B6"/>
  <outline>
    <contour>
      <point x="411" y="681"/>
      <point x="50" y="718"/>
      <point x="50" y="479" type="curve"/>
      <point x="50" y="479"/>
      <point x="50" y="312"/>
      <point x="241" y="312" type="curve"/>
      <point x="241" y="312"/>
      <point x="217" y="-118"/>
      <point x="312" y="-118" type="curve" smooth="yes"/>
      <point x="403" y="-118"/>
      <point x="384" y="503"/>
      <point x="384" y="503" type="curve"/>
      <point x="408" y="503" type="line"/>
      <point x="408" y="503"/>
      <point x="384" y="-118"/>
      <point x="480" y="-118" type="curve" smooth="yes"/>
      <point x="575" y="-118"/>
      <point x="528" y="503"/>
      <point x="528" y="503" type="curve" smooth="yes"/>
      <point x="528" y="503"/>
      <point x="610" y="527"/>
      <point x="599" y="599" type="curve"/>
      <point x="599" y="599"/>
      <point x="595" y="673"/>
      <point x="411" y="681" type="curve"/>
    </contour>
  </outline>
</glyph>
<glyph name="onesuperior" format="1">
  <advance width="170"/>
  <unicode hex="00B9"/>
  <outline>
    <contour>
      <point x="69" y="636"/>
      <point x="53" y="582"/>
      <point x="63" y="533" type="curve"/>
      <point x="63" y="533"/>
      <point x="69" y="496"/>
      <point x="101" y="496" type="curve"/>
      <point x="101" y="496"/>
      <point x="141" y="493"/>
      <point x="145" y="550" type="curve"/>
      <point x="145" y="550"/>
      <point x="158" y="673"/>
      <point x="118" y="701" type="curve"/>
      <point x="118" y="701"/>
      <point x="90" y="721"/>
      <point x="49" y="701" type="curve"/>
      <point x="49" y="701"/>
      <point x="-4" y="675"/>
      <point x="16" y="636" type="curve" smooth="yes"/>
      <point x="31" y="607"/>
      <point x="69" y="636"/>
      <point x="69" y="636" type="curve" smooth="yes"/>
    </contour>
  </outline>
</glyph>
<glyph name="questiondown" format="1">
  <advance width="646"/>
  <unicode hex="00BF"/>
  <outline>
    <contour>
      <point x="138" y="374"/>
      <point x="193" y="328"/>
      <point x="270" y="328" type="curve" smooth="yes"/>
      <point x="347" y="328"/>
      <point x="397" y="369"/>
      <point x="397" y="440" type="curve" smooth="yes"/>
      <point x="397" y="501"/>
      <point x="347" y="551"/>
      <point x="270" y="551" type="curve" smooth="yes"/>
      <point x="193" y="551"/>
      <point x="138" y="511"/>
      <point x="138" y="442" type="curve" smooth="yes"/>
    </contour>
    <contour>
      <point x="82" y="151"/>
      <point x="-1" y="-91"/>
      <point x="150" y="-188" type="curve" smooth="yes"/>
      <point x="368" y="-328"/>
      <point x="518" y="-180"/>
      <point x="518" y="-180" type="curve"/>
      <point x="667" y="-26"/>
      <point x="533" y="82"/>
      <point x="533" y="82" type="curve"/>
      <point x="437" y="162"/>
      <point x="328" y="49"/>
      <point x="328" y="49" type="curve" smooth="yes"/>
      <point x="328" y="49"/>
      <point x="433" y="212"/>
      <point x="342" y="269" type="curve" smooth="yes"/>
      <point x="201" y="358"/>
      <point x="122" y="213"/>
      <point x="122" y="213" type="curve"/>
    </contour>
  </outline>
</glyph>
<glyph name="Agrave" format="1">
  <advance width="746"/>
  <unicode hex="00C0"/>
  <outline>
    <contour>
      <point x="295" y="965"/>
      <point x="272" y="946"/>
      <point x="252" y="927" type="curve"/>
      <point x="231" y="905"/>
      <point x="208" y="857"/>
      <point x="258" y="814" type="curve" smooth="yes"/>
      <point x="314" y="765"/>
      <point x="421" y="750"/>
      <point x="421" y="750" type="curve" smooth="yes"/>
      <point x="421" y="750"/>
      <point x="477" y="736"/>
      <point x="499" y="779" type="curve" smooth="yes"/>
      <point x="519" y="819"/>
      <point x="485" y="857"/>
      <point x="485" y="857" type="curve"/>
      <point x="463" y="885"/>
      <point x="398" y="931"/>
      <point x="355" y="945" type="curve" smooth="yes"/>
    </contour>
    <contour>
      <point x="622" y="9"/>
      <point x="539" y="-20"/>
      <point x="471" y="20" type="curve" smooth="yes"/>
      <point x="392" y="67"/>
      <point x="375" y="156"/>
      <point x="373" y="173" type="curve"/>
      <point x="371" y="156"/>
      <point x="354" y="67"/>
      <point x="275" y="20" type="curve" smooth="yes"/>
      <point x="207" y="-20"/>
      <point x="124" y="9"/>
      <point x="124" y="9" type="curve"/>
      <point x="19" y="46"/>
      <point x="34" y="198"/>
      <point x="34" y="198" type="curve"/>
      <point x="41" y="388"/>
      <point x="111" y="514"/>
      <point x="170" y="598" type="curve" smooth="yes"/>
      <point x="257" y="725"/>
      <point x="366" y="722"/>
      <point x="373" y="722" type="curve" smooth="yes"/>
      <point x="380" y="722"/>
      <point x="489" y="725"/>
      <point x="577" y="598" type="curve" smooth="yes"/>
      <point x="635" y="514"/>
      <point x="705" y="388"/>
      <point x="712" y="198" type="curve"/>
      <point x="712" y="198"/>
      <point x="728" y="46"/>
      <point x="622" y="9" type="curve"/>
    </contour>
    <contour>
      <point x="354" y="369"/>
      <point x="335" y="348"/>
      <point x="337" y="327" type="curve" smooth="yes"/>
      <point x="339" y="299"/>
      <point x="355" y="290"/>
      <point x="377" y="290" type="curve" smooth="yes"/>
      <point x="399" y="290"/>
      <point x="416" y="304"/>
      <point x="416" y="327" type="curve" smooth="yes"/>
      <point x="416" y="348"/>
      <point x="402" y="369"/>
      <point x="377" y="369" type="curve" smooth="yes"/>
    </contour>
  </outline>
</glyph>
<glyph name="Aacute" format="1">
  <advance width="746"/>
  <unicode hex="00C1"/>
  <outline>
    <contour>
      <point x="241" y="852"/>
      <point x="207" y="814"/>
      <point x="227" y="774" type="curve" smooth="yes"/>
      <point x="249" y="731"/>
      <point x="305" y="745"/>
      <point x="305" y="745" type="curve" smooth="yes"/>
      <point x="305" y="745"/>
      <point x="412" y="760"/>
      <point x="468" y="809" type="curve" smooth="yes"/>
      <point x="518" y="852"/>
      <point x="495" y="900"/>
      <point x="474" y="922" type="curve"/>
      <point x="454" y="941"/>
      <point x="431" y="960"/>
      <point x="371" y="940" type="curve" smooth="yes"/>
      <point x="328" y="926"/>
      <point x="263" y="880"/>
      <point x="241" y="852" type="curve"/>
    </contour>
    <contour>
      <point x="622" y="9"/>
      <point x="539" y="-20"/>
      <point x="471" y="20" type="curve" smooth="yes"/>
      <point x="392" y="67"/>
      <point x="375" y="156"/>
      <point x="373" y="173" type="curve"/>
      <point x="371" y="156"/>
      <point x="354" y="67"/>
      <point x="275" y="20" type="curve" smooth="yes"/>
      <point x="207" y="-20"/>
      <point x="124" y="9"/>
      <point x="124" y="9" type="curve"/>
      <point x="19" y="46"/>
      <point x="34" y="198"/>
      <point x="34" y="198" type="curve"/>
      <point x="41" y="388"/>
      <point x="111" y="514"/>
      <point x="170" y="598" type="curve" smooth="yes"/>
      <point x="257" y="725"/>
      <point x="366" y="722"/>
      <point x="373" y="722" type="curve" smooth="yes"/>
      <point x="380" y="722"/>
      <point x="489" y="725"/>
      <point x="577" y="598" type="curve" smooth="yes"/>
      <point x="635" y="514"/>
      <point x="705" y="388"/>
      <point x="712" y="198" type="curve"/>
      <point x="712" y="198"/>
      <point x="728" y="46"/>
      <point x="622" y="9" type="curve"/>
    </contour>
    <contour>
      <point x="354" y="369"/>
      <point x="335" y="348"/>
      <point x="337" y="327" type="curve" smooth="yes"/>
      <point x="339" y="299"/>
      <point x="355" y="290"/>
      <point x="377" y="290" type="curve" smooth="yes"/>
      <point x="399" y="290"/>
      <point x="416" y="304"/>
      <point x="416" y="327" type="curve" smooth="yes"/>
      <point x="416" y="348"/>
      <point x="402" y="369"/>
      <point x="377" y="369" type="curve" smooth="yes"/>
    </contour>
  </outline>
</glyph>
<glyph name="Acircumflex" format="1">
  <advance width="746"/>
  <unicode hex="00C2"/>
  <outline>
    <contour>
      <point x="201" y="818"/>
      <point x="205" y="782"/>
      <point x="230" y="762" type="curve" smooth="yes"/>
      <point x="275" y="726"/>
      <point x="310" y="771"/>
      <point x="310" y="771" type="curve" smooth="yes"/>
      <point x="310" y="771"/>
      <point x="335" y="798"/>
      <point x="373" y="822" type="curve"/>
      <point x="404" y="805"/>
      <point x="427" y="774"/>
      <point x="428" y="774" type="curve"/>
      <point x="427" y="774" type="line"/>
      <point x="446" y="748"/>
      <point x="481" y="742"/>
      <point x="507" y="760" type="curve" smooth="yes"/>
      <point x="533" y="778"/>
      <point x="539" y="814"/>
      <point x="521" y="839" type="curve"/>
      <point x="519" y="842"/>
      <point x="447" y="936"/>
      <point x="373" y="936" type="curve" smooth="yes"/>
      <point x="296" y="936"/>
      <point x="223" y="845"/>
      <point x="221" y="842" type="curve"/>
    </contour>
    <contour>
      <point x="622" y="9"/>
      <point x="539" y="-20"/>
      <point x="471" y="20" type="curve" smooth="yes"/>
      <point x="392" y="67"/>
      <point x="375" y="156"/>
      <point x="373" y="173" type="curve"/>
      <point x="371" y="156"/>
      <point x="354" y="67"/>
      <point x="275" y="20" type="curve" smooth="yes"/>
      <point x="207" y="-20"/>
      <point x="124" y="9"/>
      <point x="124" y="9" type="curve"/>
      <point x="19" y="46"/>
      <point x="34" y="198"/>
      <point x="34" y="198" type="curve"/>
      <point x="41" y="388"/>
      <point x="111" y="514"/>
      <point x="170" y="598" type="curve" smooth="yes"/>
      <point x="257" y="725"/>
      <point x="366" y="722"/>
      <point x="373" y="722" type="curve" smooth="yes"/>
      <point x="380" y="722"/>
      <point x="489" y="725"/>
      <point x="577" y="598" type="curve" smooth="yes"/>
      <point x="635" y="514"/>
      <point x="705" y="388"/>
      <point x="712" y="198" type="curve"/>
      <point x="712" y="198"/>
      <point x="728" y="46"/>
      <point x="622" y="9" type="curve"/>
    </contour>
    <contour>
      <point x="354" y="369"/>
      <point x="335" y="348"/>
      <point x="337" y="327" type="curve" smooth="yes"/>
      <point x="339" y="299"/>
      <point x="355" y="290"/>
      <point x="377" y="290" type="curve" smooth="yes"/>
      <point x="399" y="290"/>
      <point x="416" y="304"/>
      <point x="416" y="327" type="curve" smooth="yes"/>
      <point x="416" y="348"/>
      <point x="402" y="369"/>
      <point x="377" y="369" type="curve" smooth="yes"/>
    </contour>
  </outline>
</glyph>
<glyph name="Atilde" format="1">
  <advance width="746"/>
  <unicode hex="00C3"/>
  <outline>
    <contour>
      <point x="604" y="909"/>
      <point x="510" y="936"/>
      <point x="510" y="936" type="curve"/>
      <point x="469" y="949"/>
      <point x="436" y="922"/>
      <point x="423" y="884" type="curve"/>
      <point x="422" y="885"/>
      <point x="422" y="887"/>
      <point x="421" y="888" type="curve"/>
      <point x="214" y="1050"/>
      <point x="161" y="849"/>
      <point x="161" y="849" type="curve"/>
      <point x="148" y="814"/>
      <point x="170" y="770"/>
      <point x="205" y="758" type="curve"/>
      <point x="205" y="758"/>
      <point x="281" y="729"/>
      <point x="305" y="819" type="curve"/>
      <point x="305" y="819"/>
      <point x="468" y="672"/>
      <point x="550" y="815" type="curve" smooth="yes"/>
    </contour>
    <contour>
      <point x="728" y="46"/>
      <point x="712" y="198"/>
      <point x="712" y="198" type="curve"/>
      <point x="705" y="388"/>
      <point x="635" y="514"/>
      <point x="577" y="598" type="curve" smooth="yes"/>
      <point x="489" y="725"/>
      <point x="380" y="722"/>
      <point x="373" y="722" type="curve" smooth="yes"/>
      <point x="366" y="722"/>
      <point x="257" y="725"/>
      <point x="170" y="598" type="curve" smooth="yes"/>
      <point x="111" y="514"/>
      <point x="41" y="388"/>
      <point x="34" y="198" type="curve"/>
      <point x="34" y="198"/>
      <point x="19" y="46"/>
      <point x="124" y="9" type="curve"/>
      <point x="124" y="9"/>
      <point x="207" y="-20"/>
      <point x="275" y="20" type="curve" smooth="yes"/>
      <point x="354" y="67"/>
      <point x="371" y="156"/>
      <point x="373" y="173" type="curve"/>
      <point x="375" y="156"/>
      <point x="392" y="67"/>
      <point x="471" y="20" type="curve" smooth="yes"/>
      <point x="539" y="-20"/>
      <point x="622" y="9"/>
      <point x="622" y="9" type="curve"/>
    </contour>
    <contour>
      <point x="402" y="369"/>
      <point x="416" y="348"/>
      <point x="416" y="327" type="curve" smooth="yes"/>
      <point x="416" y="304"/>
      <point x="399" y="290"/>
      <point x="377" y="290" type="curve" smooth="yes"/>
      <point x="355" y="290"/>
      <point x="339" y="299"/>
      <point x="337" y="327" type="curve" smooth="yes"/>
      <point x="335" y="348"/>
      <point x="354" y="369"/>
      <point x="377" y="369" type="curve" smooth="yes"/>
    </contour>
  </outline>
</glyph>
<glyph name="Adieresis" format="1">
  <advance width="746"/>
  <unicode hex="00C4"/>
  <outline>
    <contour>
      <point x="355" y="865"/>
      <point x="328" y="900"/>
      <point x="278" y="900" type="curve" smooth="yes"/>
      <point x="228" y="900"/>
      <point x="201" y="865"/>
      <point x="201" y="823" type="curve" smooth="yes"/>
      <point x="201" y="780"/>
      <point x="228" y="745"/>
      <point x="278" y="745" type="curve" smooth="yes"/>
      <point x="328" y="745"/>
      <point x="355" y="780"/>
      <point x="355" y="823" type="curve" smooth="yes"/>
    </contour>
    <contour>
      <point x="538" y="865"/>
      <point x="511" y="900"/>
      <point x="461" y="900" type="curve" smooth="yes"/>
      <point x="411" y="900"/>
      <point x="384" y="865"/>
      <point x="384" y="823" type="curve" smooth="yes"/>
      <point x="384" y="780"/>
      <point x="411" y="745"/>
      <point x="461" y="745" type="curve" smooth="yes"/>
      <point x="511" y="745"/>
      <point x="538" y="780"/>
      <point x="538" y="823" type="curve" smooth="yes"/>
    </contour>
    <contour>
      <point x="728" y="46"/>
      <point x="712" y="198"/>
      <point x="712" y="198" type="curve"/>
      <point x="705" y="388"/>
      <point x="635" y="514"/>
      <point x="577" y="598" type="curve" smooth="yes"/>
      <point x="489" y="725"/>
      <point x="380" y="722"/>
      <point x="373" y="722" type="curve" smooth="yes"/>
      <point x="366" y="722"/>
      <point x="257" y="725"/>
      <point x="170" y="598" type="curve" smooth="yes"/>
      <point x="111" y="514"/>
      <point x="41" y="388"/>
      <point x="34" y="198" type="curve"/>
      <point x="34" y="198"/>
      <point x="19" y="46"/>
      <point x="124" y="9" type="curve"/>
      <point x="124" y="9"/>
      <point x="207" y="-20"/>
      <point x="275" y="20" type="curve" smooth="yes"/>
      <point x="354" y="67"/>
      <point x="371" y="156"/>
      <point x="373" y="173" type="curve"/>
      <point x="375" y="156"/>
      <point x="392" y="67"/>
      <point x="471" y="20" type="curve" smooth="yes"/>
      <point x="539" y="-20"/>
      <point x="622" y="9"/>
      <point x="622" y="9" type="curve"/>
    </contour>
    <contour>
      <point x="402" y="369"/>
      <point x="416" y="348"/>
      <point x="416" y="327" type="curve" smooth="yes"/>
      <point x="416" y="304"/>
      <point x="399" y="290"/>
      <point x="377" y="290" type="curve" smooth="yes"/>
      <point x="355" y="290"/>
      <point x="339" y="299"/>
      <point x="337" y="327" type="curve" smooth="yes"/>
      <point x="335" y="348"/>
      <point x="354" y="369"/>
      <point x="377" y="369" type="curve" smooth="yes"/>
    </contour>
  </outline>
</glyph>
<glyph name="AE" format="1">
  <advance width="1139"/>
  <unicode hex="00C6"/>
  <outline>
    <contour>
      <point x="913" y="267"/>
      <point x="1011" y="278"/>
      <point x="1011" y="366" type="curve"/>
      <point x="1011" y="366"/>
      <point x="1023" y="450"/>
      <point x="875" y="462" type="curve"/>
      <point x="875" y="462"/>
      <point x="1115" y="447"/>
      <point x="1112" y="606" type="curve"/>
      <point x="1112" y="606"/>
      <point x="1123" y="729"/>
      <point x="867" y="724" type="curve" smooth="yes"/>
      <point x="867" y="724"/>
      <point x="621" y="738"/>
      <point x="556" y="605" type="curve"/>
      <point x="470" y="716"/>
      <point x="371" y="713"/>
      <point x="364" y="713" type="curve" smooth="yes"/>
      <point x="357" y="713"/>
      <point x="248" y="716"/>
      <point x="161" y="589" type="curve" smooth="yes"/>
      <point x="102" y="505"/>
      <point x="32" y="379"/>
      <point x="25" y="189" type="curve"/>
      <point x="25" y="189"/>
      <point x="10" y="37"/>
      <point x="115" y="0" type="curve"/>
      <point x="115" y="0"/>
      <point x="198" y="-29"/>
      <point x="266" y="11" type="curve" smooth="yes"/>
      <point x="345" y="58"/>
      <point x="362" y="147"/>
      <point x="364" y="164" type="curve"/>
      <point x="366" y="147"/>
      <point x="383" y="58"/>
      <point x="462" y="11" type="curve" smooth="yes"/>
      <point x="530" y="-29"/>
      <point x="613" y="0"/>
      <point x="613" y="0" type="curve"/>
      <point x="630" y="6"/>
      <point x="644" y="15"/>
      <point x="655" y="26" type="curve"/>
      <point x="705" y="7"/>
      <point x="775" y="-5"/>
      <point x="874" y="3" type="curve"/>
      <point x="874" y="3"/>
      <point x="1108" y="6"/>
      <point x="1114" y="135" type="curve"/>
      <point x="1114" y="135"/>
      <point x="1120" y="272"/>
      <point x="888" y="266" type="curve"/>
    </contour>
    <contour>
      <point x="392" y="354"/>
      <point x="406" y="333"/>
      <point x="406" y="312" type="curve" smooth="yes"/>
      <point x="406" y="289"/>
      <point x="389" y="275"/>
      <point x="367" y="275" type="curve" smooth="yes"/>
      <point x="345" y="275"/>
      <point x="329" y="284"/>
      <point x="327" y="312" type="curve" smooth="yes"/>
      <point x="325" y="333"/>
      <point x="344" y="354"/>
      <point x="367" y="354" type="curve" smooth="yes"/>
    </contour>
  </outline>
</glyph>
<glyph name="Ccedilla" format="1">
  <advance width="670"/>
  <unicode hex="00C7"/>
  <outline>
    <contour>
      <point x="622" y="300"/>
      <point x="473" y="274"/>
      <point x="473" y="274" type="curve"/>
      <point x="353" y="261"/>
      <point x="361" y="343"/>
      <point x="361" y="343" type="curve"/>
      <point x="366" y="423"/>
      <point x="471" y="401"/>
      <point x="471" y="401" type="curve"/>
      <point x="589" y="379"/>
      <point x="619" y="456"/>
      <point x="619" y="456" type="curve"/>
      <point x="668" y="573"/>
      <point x="574" y="631"/>
      <point x="574" y="631" type="curve"/>
      <point x="443" y="709"/>
      <point x="275" y="665"/>
      <point x="275" y="665" type="curve"/>
      <point x="13" y="605"/>
      <point x="25" y="342"/>
      <point x="25" y="342" type="curve"/>
      <point x="19" y="68"/>
      <point x="229" y="15"/>
      <point x="229" y="15" type="curve"/>
      <point x="242" y="11"/>
      <point x="256" y="8"/>
      <point x="268" y="5" type="curve"/>
      <point x="268" y="-72" type="line" smooth="yes"/>
      <point x="268" y="-104"/>
      <point x="298" y="-110"/>
      <point x="318" y="-111" type="curve"/>
      <point x="370" y="-111"/>
      <point x="385" y="-116"/>
      <point x="385" y="-141" type="curve" smooth="yes"/>
      <point x="385" y="-173"/>
      <point x="320" y="-161"/>
      <point x="320" y="-161" type="curve" smooth="yes"/>
      <point x="291" y="-161"/>
      <point x="277" y="-175"/>
      <point x="275" y="-197" type="curve" smooth="yes"/>
      <point x="272" y="-225"/>
      <point x="295" y="-244"/>
      <point x="320" y="-244" type="curve"/>
      <point x="320" y="-244"/>
      <point x="399" y="-254"/>
      <point x="442" y="-218" type="curve" smooth="yes"/>
      <point x="463" y="-201"/>
      <point x="478" y="-179"/>
      <point x="478" y="-141" type="curve" smooth="yes"/>
      <point x="478" y="-100"/>
      <point x="453" y="-73"/>
      <point x="435" y="-60" type="curve" smooth="yes"/>
      <point x="414" y="-45"/>
      <point x="385" y="-41"/>
      <point x="358" y="-41" type="curve"/>
      <point x="358" y="-31"/>
      <point x="358" y="-19"/>
      <point x="358" y="-8" type="curve"/>
      <point x="494" y="-19"/>
      <point x="564" y="23"/>
      <point x="564" y="23" type="curve"/>
      <point x="652" y="72"/>
      <point x="639" y="170"/>
      <point x="639" y="170" type="curve"/>
    </contour>
  </outline>
</glyph>
<glyph name="Egrave" format="1">
  <advance width="668"/>
  <unicode hex="00C8"/>
  <outline>
    <contour>
      <point x="243" y="967"/>
      <point x="220" y="948"/>
      <point x="200" y="929" type="curve"/>
      <point x="179" y="907"/>
      <point x="156" y="859"/>
      <point x="206" y="816" type="curve" smooth="yes"/>
      <point x="262" y="767"/>
      <point x="369" y="752"/>
      <point x="369" y="752" type="curve" smooth="yes"/>
      <point x="369" y="752"/>
      <point x="425" y="738"/>
      <point x="447" y="781" type="curve" smooth="yes"/>
      <point x="467" y="821"/>
      <point x="433" y="859"/>
      <point x="433" y="859" type="curve"/>
      <point x="411" y="887"/>
      <point x="346" y="933"/>
      <point x="303" y="947" type="curve" smooth="yes"/>
    </contour>
    <contour>
      <point x="343" y="711"/>
      <point x="85" y="734"/>
      <point x="53" y="549" type="curve"/>
      <point x="53" y="549"/>
      <point x="17" y="312"/>
      <point x="51" y="137" type="curve"/>
      <point x="51" y="137"/>
      <point x="69" y="-15"/>
      <point x="360" y="-8" type="curve"/>
      <point x="360" y="-8"/>
      <point x="618" y="-12"/>
      <point x="625" y="114" type="curve"/>
      <point x="625" y="114"/>
      <point x="638" y="245"/>
      <point x="387" y="241" type="curve" smooth="yes"/>
      <point x="387" y="241"/>
      <point x="495" y="262"/>
      <point x="495" y="345" type="curve"/>
      <point x="495" y="345"/>
      <point x="511" y="426"/>
      <point x="358" y="451" type="curve"/>
      <point x="358" y="451"/>
      <point x="626" y="425"/>
      <point x="623" y="584" type="curve"/>
      <point x="623" y="584"/>
      <point x="642" y="703"/>
      <point x="343" y="711" type="curve" smooth="yes"/>
    </contour>
  </outline>
</glyph>
<glyph name="Eacute" format="1">
  <advance width="668"/>
  <unicode hex="00C9"/>
  <outline>
    <contour>
      <point x="231" y="852"/>
      <point x="197" y="814"/>
      <point x="217" y="774" type="curve" smooth="yes"/>
      <point x="239" y="731"/>
      <point x="295" y="745"/>
      <point x="295" y="745" type="curve" smooth="yes"/>
      <point x="295" y="745"/>
      <point x="402" y="760"/>
      <point x="458" y="809" type="curve" smooth="yes"/>
      <point x="508" y="852"/>
      <point x="485" y="900"/>
      <point x="464" y="922" type="curve"/>
      <point x="444" y="941"/>
      <point x="421" y="960"/>
      <point x="361" y="940" type="curve" smooth="yes"/>
      <point x="318" y="926"/>
      <point x="253" y="880"/>
      <point x="231" y="852" type="curve"/>
    </contour>
    <contour>
      <point x="343" y="711"/>
      <point x="85" y="734"/>
      <point x="53" y="549" type="curve"/>
      <point x="53" y="549"/>
      <point x="17" y="312"/>
      <point x="51" y="137" type="curve"/>
      <point x="51" y="137"/>
      <point x="69" y="-15"/>
      <point x="360" y="-8" type="curve"/>
      <point x="360" y="-8"/>
      <point x="618" y="-12"/>
      <point x="625" y="114" type="curve"/>
      <point x="625" y="114"/>
      <point x="638" y="245"/>
      <point x="387" y="241" type="curve" smooth="yes"/>
      <point x="387" y="241"/>
      <point x="495" y="262"/>
      <point x="495" y="345" type="curve"/>
      <point x="495" y="345"/>
      <point x="511" y="426"/>
      <point x="358" y="451" type="curve"/>
      <point x="358" y="451"/>
      <point x="626" y="425"/>
      <point x="623" y="584" type="curve"/>
      <point x="623" y="584"/>
      <point x="642" y="703"/>
      <point x="343" y="711" type="curve" smooth="yes"/>
    </contour>
  </outline>
</glyph>
<glyph name="Ecircumflex" format="1">
  <advance width="668"/>
  <unicode hex="00CA"/>
  <outline>
    <contour>
      <point x="170" y="810"/>
      <point x="174" y="774"/>
      <point x="199" y="754" type="curve" smooth="yes"/>
      <point x="244" y="718"/>
      <point x="279" y="763"/>
      <point x="279" y="763" type="curve" smooth="yes"/>
      <point x="279" y="763"/>
      <point x="304" y="790"/>
      <point x="342" y="814" type="curve"/>
      <point x="373" y="797"/>
      <point x="396" y="766"/>
      <point x="397" y="766" type="curve"/>
      <point x="396" y="766" type="line"/>
      <point x="415" y="740"/>
      <point x="450" y="734"/>
      <point x="476" y="752" type="curve" smooth="yes"/>
      <point x="502" y="770"/>
      <point x="508" y="806"/>
      <point x="490" y="831" type="curve"/>
      <point x="488" y="834"/>
      <point x="416" y="928"/>
      <point x="342" y="928" type="curve" smooth="yes"/>
      <point x="265" y="928"/>
      <point x="192" y="837"/>
      <point x="190" y="834" type="curve"/>
    </contour>
    <contour>
      <point x="343" y="711"/>
      <point x="85" y="734"/>
      <point x="53" y="549" type="curve"/>
      <point x="53" y="549"/>
      <point x="17" y="312"/>
      <point x="51" y="137" type="curve"/>
      <point x="51" y="137"/>
      <point x="69" y="-15"/>
      <point x="360" y="-8" type="curve"/>
      <point x="360" y="-8"/>
      <point x="618" y="-12"/>
      <point x="625" y="114" type="curve"/>
      <point x="625" y="114"/>
      <point x="638" y="245"/>
      <point x="387" y="241" type="curve" smooth="yes"/>
      <point x="387" y="241"/>
      <point x="495" y="262"/>
      <point x="495" y="345" type="curve"/>
      <point x="495" y="345"/>
      <point x="511" y="426"/>
      <point x="358" y="451" type="curve"/>
      <point x="358" y="451"/>
      <point x="626" y="425"/>
      <point x="623" y="584" type="curve"/>
      <point x="623" y="584"/>
      <point x="642" y="703"/>
      <point x="343" y="711" type="curve" smooth="yes"/>
    </contour>
  </outline>
</glyph>
<glyph name="Edieresis" format="1">
  <advance width="668"/>
  <unicode hex="00CB"/>
  <outline>
    <contour>
      <point x="307" y="864"/>
      <point x="280" y="899"/>
      <point x="230" y="899" type="curve" smooth="yes"/>
      <point x="180" y="899"/>
      <point x="153" y="864"/>
      <point x="153" y="822" type="curve" smooth="yes"/>
      <point x="153" y="779"/>
      <point x="180" y="744"/>
      <point x="230" y="744" type="curve" smooth="yes"/>
      <point x="280" y="744"/>
      <point x="307" y="779"/>
      <point x="307" y="822" type="curve" smooth="yes"/>
    </contour>
    <contour>
      <point x="490" y="864"/>
      <point x="463" y="899"/>
      <point x="413" y="899" type="curve" smooth="yes"/>
      <point x="363" y="899"/>
      <point x="336" y="864"/>
      <point x="336" y="822" type="curve" smooth="yes"/>
      <point x="336" y="779"/>
      <point x="363" y="744"/>
      <point x="413" y="744" type="curve" smooth="yes"/>
      <point x="463" y="744"/>
      <point x="490" y="779"/>
      <point x="490" y="822" type="curve" smooth="yes"/>
    </contour>
    <contour>
      <point x="343" y="711"/>
      <point x="85" y="734"/>
      <point x="53" y="549" type="curve"/>
      <point x="53" y="549"/>
      <point x="17" y="312"/>
      <point x="51" y="137" type="curve"/>
      <point x="51" y="137"/>
      <point x="69" y="-15"/>
      <point x="360" y="-8" type="curve"/>
      <point x="360" y="-8"/>
      <point x="618" y="-12"/>
      <point x="625" y="114" type="curve"/>
      <point x="625" y="114"/>
      <point x="638" y="245"/>
      <point x="387" y="241" type="curve" smooth="yes"/>
      <point x="387" y="241"/>
      <point x="495" y="262"/>
      <point x="495" y="345" type="curve"/>
      <point x="495" y="345"/>
      <point x="511" y="426"/>
      <point x="358" y="451" type="curve"/>
      <point x="358" y="451"/>
      <point x="626" y="425"/>
      <point x="623" y="584" type="curve"/>
      <point x="623" y="584"/>
      <point x="642" y="703"/>
      <point x="343" y="711" type="curve" smooth="yes"/>
    </contour>
  </outline>
</glyph>
<glyph name="Igrave" format="1">
  <advance width="420"/>
  <unicode hex="00CC"/>
  <outline>
    <contour>
      <point x="140" y="962"/>
      <point x="117" y="943"/>
      <point x="97" y="924" type="curve"/>
      <point x="76" y="902"/>
      <point x="53" y="854"/>
      <point x="103" y="811" type="curve" smooth="yes"/>
      <point x="159" y="762"/>
      <point x="266" y="747"/>
      <point x="266" y="747" type="curve" smooth="yes"/>
      <point x="266" y="747"/>
      <point x="322" y="733"/>
      <point x="344" y="776" type="curve" smooth="yes"/>
      <point x="364" y="816"/>
      <point x="330" y="854"/>
      <point x="330" y="854" type="curve"/>
      <point x="308" y="882"/>
      <point x="243" y="928"/>
      <point x="200" y="942" type="curve" smooth="yes"/>
    </contour>
    <contour>
      <point x="39" y="203"/>
      <point x="50" y="-7"/>
      <point x="215" y="-9" type="curve" smooth="yes"/>
      <point x="365" y="-10"/>
      <point x="380" y="164"/>
      <point x="380" y="164" type="curve" smooth="yes"/>
      <point x="380" y="164"/>
      <point x="402" y="324"/>
      <point x="380" y="510" type="curve" smooth="yes"/>
      <point x="356" y="705"/>
      <point x="215" y="705"/>
      <point x="215" y="705" type="curve" smooth="yes"/>
      <point x="42" y="704"/>
      <point x="35" y="482"/>
      <point x="35" y="482" type="curve" smooth="yes"/>
      <point x="35" y="482"/>
      <point x="23" y="312"/>
      <point x="39" y="203" type="curve"/>
    </contour>
  </outline>
</glyph>
<glyph name="Iacute" format="1">
  <advance width="420"/>
  <unicode hex="00CD"/>
  <outline>
    <contour>
      <point x="97" y="851"/>
      <point x="63" y="813"/>
      <point x="83" y="773" type="curve" smooth="yes"/>
      <point x="105" y="730"/>
      <point x="161" y="744"/>
      <point x="161" y="744" type="curve" smooth="yes"/>
      <point x="161" y="744"/>
      <point x="268" y="759"/>
      <point x="324" y="808" type="curve" smooth="yes"/>
      <point x="374" y="851"/>
      <point x="351" y="899"/>
      <point x="330" y="921" type="curve"/>
      <point x="310" y="940"/>
      <point x="287" y="959"/>
      <point x="227" y="939" type="curve" smooth="yes"/>
      <point x="184" y="925"/>
      <point x="119" y="879"/>
      <point x="97" y="851" type="curve"/>
    </contour>
    <contour>
      <point x="39" y="203"/>
      <point x="50" y="-7"/>
      <point x="215" y="-9" type="curve" smooth="yes"/>
      <point x="365" y="-10"/>
      <point x="380" y="164"/>
      <point x="380" y="164" type="curve" smooth="yes"/>
      <point x="380" y="164"/>
      <point x="402" y="324"/>
      <point x="380" y="510" type="curve" smooth="yes"/>
      <point x="356" y="705"/>
      <point x="215" y="705"/>
      <point x="215" y="705" type="curve" smooth="yes"/>
      <point x="42" y="704"/>
      <point x="35" y="482"/>
      <point x="35" y="482" type="curve" smooth="yes"/>
      <point x="35" y="482"/>
      <point x="23" y="312"/>
      <point x="39" y="203" type="curve"/>
    </contour>
  </outline>
</glyph>
<glyph name="Icircumflex" format="1">
  <advance width="420"/>
  <unicode hex="00CE"/>
  <outline>
    <contour>
      <point x="39" y="809"/>
      <point x="43" y="773"/>
      <point x="68" y="753" type="curve" smooth="yes"/>
      <point x="113" y="717"/>
      <point x="148" y="762"/>
      <point x="148" y="762" type="curve" smooth="yes"/>
      <point x="148" y="762"/>
      <point x="173" y="789"/>
      <point x="211" y="813" type="curve"/>
      <point x="242" y="796"/>
      <point x="265" y="765"/>
      <point x="266" y="765" type="curve"/>
      <point x="265" y="765" type="line"/>
      <point x="284" y="739"/>
      <point x="319" y="733"/>
      <point x="345" y="751" type="curve" smooth="yes"/>
      <point x="371" y="769"/>
      <point x="377" y="805"/>
      <point x="359" y="830" type="curve"/>
      <point x="357" y="833"/>
      <point x="285" y="927"/>
      <point x="211" y="927" type="curve" smooth="yes"/>
      <point x="134" y="927"/>
      <point x="61" y="836"/>
      <point x="59" y="833" type="curve"/>
    </contour>
    <contour>
      <point x="39" y="203"/>
      <point x="50" y="-7"/>
      <point x="215" y="-9" type="curve" smooth="yes"/>
      <point x="365" y="-10"/>
      <point x="380" y="164"/>
      <point x="380" y="164" type="curve" smooth="yes"/>
      <point x="380" y="164"/>
      <point x="402" y="324"/>
      <point x="380" y="510" type="curve" smooth="yes"/>
      <point x="356" y="705"/>
      <point x="215" y="705"/>
      <point x="215" y="705" type="curve" smooth="yes"/>
      <point x="42" y="704"/>
      <point x="35" y="482"/>
      <point x="35" y="482" type="curve" smooth="yes"/>
      <point x="35" y="482"/>
      <point x="23" y="312"/>
      <point x="39" y="203" type="curve"/>
    </contour>
  </outline>
</glyph>
<glyph name="Idieresis" format="1">
  <advance width="420"/>
  <unicode hex="00CF"/>
  <outline>
    <contour>
      <point x="190" y="845"/>
      <point x="163" y="880"/>
      <point x="113" y="880" type="curve" smooth="yes"/>
      <point x="63" y="880"/>
      <point x="36" y="845"/>
      <point x="36" y="803" type="curve" smooth="yes"/>
      <point x="36" y="760"/>
      <point x="63" y="725"/>
      <point x="113" y="725" type="curve" smooth="yes"/>
      <point x="163" y="725"/>
      <point x="190" y="760"/>
      <point x="190" y="803" type="curve" smooth="yes"/>
    </contour>
    <contour>
      <point x="373" y="845"/>
      <point x="346" y="880"/>
      <point x="296" y="880" type="curve" smooth="yes"/>
      <point x="246" y="880"/>
      <point x="219" y="845"/>
      <point x="219" y="803" type="curve" smooth="yes"/>
      <point x="219" y="760"/>
      <point x="246" y="725"/>
      <point x="296" y="725" type="curve" smooth="yes"/>
      <point x="346" y="725"/>
      <point x="373" y="760"/>
      <point x="373" y="803" type="curve" smooth="yes"/>
    </contour>
    <contour>
      <point x="39" y="203"/>
      <point x="50" y="-7"/>
      <point x="215" y="-9" type="curve" smooth="yes"/>
      <point x="365" y="-10"/>
      <point x="380" y="164"/>
      <point x="380" y="164" type="curve" smooth="yes"/>
      <point x="380" y="164"/>
      <point x="402" y="324"/>
      <point x="380" y="510" type="curve" smooth="yes"/>
      <point x="356" y="705"/>
      <point x="215" y="705"/>
      <point x="215" y="705" type="curve" smooth="yes"/>
      <point x="42" y="704"/>
      <point x="35" y="482"/>
      <point x="35" y="482" type="curve" smooth="yes"/>
      <point x="35" y="482"/>
      <point x="23" y="312"/>
      <point x="39" y="203" type="curve"/>
    </contour>
  </outline>
</glyph>
<glyph name="Eth" format="1">
  <advance width="835"/>
  <unicode hex="00D0"/>
  <outline>
    <contour>
      <point x="766" y="560"/>
      <point x="687" y="715"/>
      <point x="431" y="713" type="curve" smooth="yes"/>
      <point x="431" y="713"/>
      <point x="256" y="728"/>
      <point x="227" y="562" type="curve"/>
      <point x="227" y="562"/>
      <point x="220" y="518"/>
      <point x="214" y="460" type="curve"/>
      <point x="182" y="458"/>
      <point x="177" y="462"/>
      <point x="141" y="454" type="curve" smooth="yes"/>
      <point x="36" y="430"/>
      <point x="49" y="338"/>
      <point x="49" y="338" type="curve" smooth="yes"/>
      <point x="49" y="338"/>
      <point x="48" y="250"/>
      <point x="142" y="235" type="curve" smooth="yes"/>
      <point x="175" y="230"/>
      <point x="178" y="230"/>
      <point x="209" y="229" type="curve"/>
      <point x="212" y="178"/>
      <point x="218" y="121"/>
      <point x="241" y="80" type="curve"/>
      <point x="241" y="80"/>
      <point x="291" y="-7"/>
      <point x="448" y="-6" type="curve"/>
      <point x="448" y="-6"/>
      <point x="727" y="-28"/>
      <point x="789" y="185" type="curve" smooth="yes"/>
      <point x="857" y="420"/>
      <point x="766" y="560"/>
      <point x="766" y="560" type="curve" smooth="yes"/>
    </contour>
    <contour>
      <point x="518" y="377"/>
      <point x="532" y="356"/>
      <point x="532" y="335" type="curve" smooth="yes"/>
      <point x="532" y="312"/>
      <point x="515" y="298"/>
      <point x="493" y="298" type="curve" smooth="yes"/>
      <point x="471" y="298"/>
      <point x="453" y="298"/>
      <point x="453" y="335" type="curve" smooth="yes"/>
      <point x="453" y="368"/>
      <point x="470" y="377"/>
      <point x="493" y="377" type="curve" smooth="yes"/>
    </contour>
  </outline>
</glyph>
<glyph name="Ntilde" format="1">
  <advance width="833"/>
  <unicode hex="00D1"/>
  <outline>
    <contour>
      <point x="653" y="908"/>
      <point x="559" y="935"/>
      <point x="559" y="935" type="curve"/>
      <point x="518" y="948"/>
      <point x="485" y="921"/>
      <point x="472" y="883" type="curve"/>
      <point x="471" y="884"/>
      <point x="471" y="886"/>
      <point x="470" y="887" type="curve"/>
      <point x="263" y="1049"/>
      <point x="210" y="848"/>
      <point x="210" y="848" type="curve"/>
      <point x="197" y="813"/>
      <point x="219" y="769"/>
      <point x="254" y="757" type="curve"/>
      <point x="254" y="757"/>
      <point x="330" y="728"/>
      <point x="354" y="818" type="curve"/>
      <point x="354" y="818"/>
      <point x="517" y="671"/>
      <point x="599" y="814" type="curve" smooth="yes"/>
    </contour>
    <contour>
      <point x="65" y="552"/>
      <point x="15" y="319"/>
      <point x="65" y="109" type="curve"/>
      <point x="65" y="109"/>
      <point x="89" y="-5"/>
      <point x="203" y="-2" type="curve"/>
      <point x="203" y="-2"/>
      <point x="382" y="-32"/>
      <point x="364" y="296" type="curve"/>
      <point x="364" y="296"/>
      <point x="393" y="-7"/>
      <point x="611" y="-2" type="curve"/>
      <point x="611" y="-2"/>
      <point x="735" y="-22"/>
      <point x="771" y="148" type="curve"/>
      <point x="771" y="148"/>
      <point x="823" y="362"/>
      <point x="779" y="593" type="curve"/>
      <point x="779" y="593"/>
      <point x="762" y="711"/>
      <point x="636" y="707" type="curve" smooth="yes"/>
      <point x="636" y="707"/>
      <point x="474" y="724"/>
      <point x="477" y="450" type="curve"/>
      <point x="477" y="450"/>
      <point x="474" y="724"/>
      <point x="251" y="714" type="curve" smooth="yes"/>
      <point x="94" y="707"/>
      <point x="65" y="552"/>
      <point x="65" y="552" type="curve" smooth="yes"/>
    </contour>
  </outline>
</glyph>
<glyph name="Ograve" format="1">
  <advance width="771"/>
  <unicode hex="00D2"/>
  <outline>
    <contour>
      <point x="305" y="965"/>
      <point x="282" y="946"/>
      <point x="262" y="927" type="curve"/>
      <point x="241" y="905"/>
      <point x="218" y="857"/>
      <point x="268" y="814" type="curve" smooth="yes"/>
      <point x="324" y="765"/>
      <point x="431" y="750"/>
      <point x="431" y="750" type="curve" smooth="yes"/>
      <point x="431" y="750"/>
      <point x="487" y="736"/>
      <point x="509" y="779" type="curve" smooth="yes"/>
      <point x="529" y="819"/>
      <point x="495" y="857"/>
      <point x="495" y="857" type="curve"/>
      <point x="473" y="885"/>
      <point x="408" y="931"/>
      <point x="365" y="945" type="curve" smooth="yes"/>
    </contour>
    <contour>
      <point x="404" y="704"/>
      <point x="44" y="741"/>
      <point x="44" y="327" type="curve"/>
      <point x="44" y="327"/>
      <point x="44" y="-11"/>
      <point x="404" y="-11" type="curve"/>
      <point x="404" y="-11"/>
      <point x="724" y="-11"/>
      <point x="724" y="365" type="curve"/>
      <point x="724" y="365"/>
      <point x="724" y="704"/>
      <point x="404" y="704" type="curve" smooth="yes"/>
    </contour>
    <contour>
      <point x="414" y="383"/>
      <point x="428" y="362"/>
      <point x="428" y="341" type="curve" smooth="yes"/>
      <point x="428" y="318"/>
      <point x="411" y="304"/>
      <point x="389" y="304" type="curve" smooth="yes"/>
      <point x="367" y="304"/>
      <point x="351" y="313"/>
      <point x="349" y="341" type="curve" smooth="yes"/>
      <point x="347" y="362"/>
      <point x="366" y="383"/>
      <point x="389" y="383" type="curve" smooth="yes"/>
    </contour>
  </outline>
</glyph>
<glyph name="Oacute" format="1">
  <advance width="771"/>
  <unicode hex="00D3"/>
  <outline>
    <contour>
      <point x="249" y="852"/>
      <point x="215" y="814"/>
      <point x="235" y="774" type="curve" smooth="yes"/>
      <point x="257" y="731"/>
      <point x="313" y="745"/>
      <point x="313" y="745" type="curve" smooth="yes"/>
      <point x="313" y="745"/>
      <point x="420" y="760"/>
      <point x="476" y="809" type="curve" smooth="yes"/>
      <point x="526" y="852"/>
      <point x="503" y="900"/>
      <point x="482" y="922" type="curve"/>
      <point x="462" y="941"/>
      <point x="439" y="960"/>
      <point x="379" y="940" type="curve" smooth="yes"/>
      <point x="336" y="926"/>
      <point x="271" y="880"/>
      <point x="249" y="852" type="curve"/>
    </contour>
    <contour>
      <point x="404" y="704"/>
      <point x="44" y="741"/>
      <point x="44" y="327" type="curve"/>
      <point x="44" y="327"/>
      <point x="44" y="-11"/>
      <point x="404" y="-11" type="curve"/>
      <point x="404" y="-11"/>
      <point x="724" y="-11"/>
      <point x="724" y="365" type="curve"/>
      <point x="724" y="365"/>
      <point x="724" y="704"/>
      <point x="404" y="704" type="curve" smooth="yes"/>
    </contour>
    <contour>
      <point x="414" y="383"/>
      <point x="428" y="362"/>
      <point x="428" y="341" type="curve" smooth="yes"/>
      <point x="428" y="318"/>
      <point x="411" y="304"/>
      <point x="389" y="304" type="curve" smooth="yes"/>
      <point x="367" y="304"/>
      <point x="351" y="313"/>
      <point x="349" y="341" type="curve" smooth="yes"/>
      <point x="347" y="362"/>
      <point x="366" y="383"/>
      <point x="389" y="383" type="curve" smooth="yes"/>
    </contour>
  </outline>
</glyph>
<glyph name="Ocircumflex" format="1">
  <advance width="771"/>
  <unicode hex="00D4"/>
  <outline>
    <contour>
      <point x="226" y="807"/>
      <point x="230" y="771"/>
      <point x="255" y="751" type="curve" smooth="yes"/>
      <point x="300" y="715"/>
      <point x="335" y="760"/>
      <point x="335" y="760" type="curve" smooth="yes"/>
      <point x="335" y="760"/>
      <point x="360" y="787"/>
      <point x="398" y="811" type="curve"/>
      <point x="429" y="794"/>
      <point x="452" y="763"/>
      <point x="453" y="763" type="curve"/>
      <point x="452" y="763" type="line"/>
      <point x="471" y="737"/>
      <point x="506" y="731"/>
      <point x="532" y="749" type="curve" smooth="yes"/>
      <point x="558" y="767"/>
      <point x="564" y="803"/>
      <point x="546" y="828" type="curve"/>
      <point x="544" y="831"/>
      <point x="472" y="925"/>
      <point x="398" y="925" type="curve" smooth="yes"/>
      <point x="321" y="925"/>
      <point x="248" y="834"/>
      <point x="246" y="831" type="curve"/>
    </contour>
    <contour>
      <point x="404" y="704"/>
      <point x="44" y="741"/>
      <point x="44" y="327" type="curve"/>
      <point x="44" y="327"/>
      <point x="44" y="-11"/>
      <point x="404" y="-11" type="curve"/>
      <point x="404" y="-11"/>
      <point x="724" y="-11"/>
      <point x="724" y="365" type="curve"/>
      <point x="724" y="365"/>
      <point x="724" y="704"/>
      <point x="404" y="704" type="curve" smooth="yes"/>
    </contour>
    <contour>
      <point x="414" y="383"/>
      <point x="428" y="362"/>
      <point x="428" y="341" type="curve" smooth="yes"/>
      <point x="428" y="318"/>
      <point x="411" y="304"/>
      <point x="389" y="304" type="curve" smooth="yes"/>
      <point x="367" y="304"/>
      <point x="351" y="313"/>
      <point x="349" y="341" type="curve" smooth="yes"/>
      <point x="347" y="362"/>
      <point x="366" y="383"/>
      <point x="389" y="383" type="curve" smooth="yes"/>
    </contour>
  </outline>
</glyph>
<glyph name="Otilde" format="1">
  <advance width="771"/>
  <unicode hex="00D5"/>
  <outline>
    <contour>
      <point x="614" y="901"/>
      <point x="520" y="928"/>
      <point x="520" y="928" type="curve"/>
      <point x="479" y="941"/>
      <point x="446" y="914"/>
      <point x="433" y="876" type="curve"/>
      <point x="432" y="877"/>
      <point x="432" y="879"/>
      <point x="431" y="880" type="curve"/>
      <point x="224" y="1042"/>
      <point x="171" y="841"/>
      <point x="171" y="841" type="curve"/>
      <point x="158" y="806"/>
      <point x="180" y="762"/>
      <point x="215" y="750" type="curve"/>
      <point x="215" y="750"/>
      <point x="291" y="721"/>
      <point x="315" y="811" type="curve"/>
      <point x="315" y="811"/>
      <point x="478" y="664"/>
      <point x="560" y="807" type="curve" smooth="yes"/>
    </contour>
    <contour>
      <point x="404" y="704"/>
      <point x="44" y="741"/>
      <point x="44" y="327" type="curve"/>
      <point x="44" y="327"/>
      <point x="44" y="-11"/>
      <point x="404" y="-11" type="curve"/>
      <point x="404" y="-11"/>
      <point x="724" y="-11"/>
      <point x="724" y="365" type="curve"/>
      <point x="724" y="365"/>
      <point x="724" y="704"/>
      <point x="404" y="704" type="curve" smooth="yes"/>
    </contour>
    <contour>
      <point x="414" y="383"/>
      <point x="428" y="362"/>
      <point x="428" y="341" type="curve" smooth="yes"/>
      <point x="428" y="318"/>
      <point x="411" y="304"/>
      <point x="389" y="304" type="curve" smooth="yes"/>
      <point x="367" y="304"/>
      <point x="351" y="313"/>
      <point x="349" y="341" type="curve" smooth="yes"/>
      <point x="347" y="362"/>
      <point x="366" y="383"/>
      <point x="389" y="383" type="curve" smooth="yes"/>
    </contour>
  </outline>
</glyph>
<glyph name="Odieresis" format="1">
  <advance width="771"/>
  <unicode hex="00D6"/>
  <outline>
    <contour>
      <point x="365" y="862"/>
      <point x="338" y="897"/>
      <point x="288" y="897" type="curve" smooth="yes"/>
      <point x="238" y="897"/>
      <point x="211" y="862"/>
      <point x="211" y="820" type="curve" smooth="yes"/>
      <point x="211" y="777"/>
      <point x="238" y="742"/>
      <point x="288" y="742" type="curve" smooth="yes"/>
      <point x="338" y="742"/>
      <point x="365" y="777"/>
      <point x="365" y="820" type="curve" smooth="yes"/>
    </contour>
    <contour>
      <point x="548" y="862"/>
      <point x="521" y="897"/>
      <point x="471" y="897" type="curve" smooth="yes"/>
      <point x="421" y="897"/>
      <point x="394" y="862"/>
      <point x="394" y="820" type="curve" smooth="yes"/>
      <point x="394" y="777"/>
      <point x="421" y="742"/>
      <point x="471" y="742" type="curve" smooth="yes"/>
      <point x="521" y="742"/>
      <point x="548" y="777"/>
      <point x="548" y="820" type="curve" smooth="yes"/>
    </contour>
    <contour>
      <point x="404" y="704"/>
      <point x="44" y="741"/>
      <point x="44" y="327" type="curve"/>
      <point x="44" y="327"/>
      <point x="44" y="-11"/>
      <point x="404" y="-11" type="curve"/>
      <point x="404" y="-11"/>
      <point x="724" y="-11"/>
      <point x="724" y="365" type="curve"/>
      <point x="724" y="365"/>
      <point x="724" y="704"/>
      <point x="404" y="704" type="curve" smooth="yes"/>
    </contour>
    <contour>
      <point x="414" y="383"/>
      <point x="428" y="362"/>
      <point x="428" y="341" type="curve" smooth="yes"/>
      <point x="428" y="318"/>
      <point x="411" y="304"/>
      <point x="389" y="304" type="curve" smooth="yes"/>
      <point x="367" y="304"/>
      <point x="351" y="313"/>
      <point x="349" y="341" type="curve" smooth="yes"/>
      <point x="347" y="362"/>
      <point x="366" y="383"/>
      <point x="389" y="383" type="curve" smooth="yes"/>
    </contour>
  </outline>
</glyph>
<glyph name="multiply" format="1">
  <advance width="536"/>
  <unicode hex="00D7"/>
  <outline>
    <contour>
      <point x="471" y="177"/>
      <point x="528" y="233"/>
      <point x="481" y="309" type="curve" smooth="yes"/>
      <point x="471" y="326"/>
      <point x="458" y="345"/>
      <point x="442" y="366" type="curve"/>
      <point x="452" y="380"/>
      <point x="463" y="397"/>
      <point x="473" y="413" type="curve" smooth="yes"/>
      <point x="524" y="494"/>
      <point x="453" y="555"/>
      <point x="453" y="555" type="curve" smooth="yes"/>
      <point x="453" y="555"/>
      <point x="396" y="612"/>
      <point x="321" y="566" type="curve" smooth="yes"/>
      <point x="304" y="556"/>
      <point x="287" y="544"/>
      <point x="269" y="530" type="curve"/>
      <point x="245" y="547"/>
      <point x="222" y="561"/>
      <point x="202" y="568" type="curve" smooth="yes"/>
      <point x="135" y="594"/>
      <point x="85" y="543"/>
      <point x="85" y="543" type="curve" smooth="yes"/>
      <point x="85" y="543"/>
      <point x="8" y="477"/>
      <point x="64" y="401" type="curve"/>
      <point x="64" y="401"/>
      <point x="75" y="382"/>
      <point x="100" y="353" type="curve"/>
      <point x="82" y="329"/>
      <point x="68" y="306"/>
      <point x="60" y="286" type="curve" smooth="yes"/>
      <point x="35" y="219"/>
      <point x="86" y="168"/>
      <point x="86" y="168" type="curve" smooth="yes"/>
      <point x="86" y="168"/>
      <point x="152" y="92"/>
      <point x="229" y="148" type="curve"/>
      <point x="229" y="148"/>
      <point x="249" y="160"/>
      <point x="281" y="188" type="curve"/>
      <point x="296" y="177"/>
      <point x="312" y="167"/>
      <point x="328" y="156" type="curve"/>
      <point x="410" y="105"/>
      <point x="471" y="177"/>
      <point x="471" y="177" type="curve" smooth="yes"/>
    </contour>
  </outline>
</glyph>
<glyph name="Oslash" format="1">
  <advance width="735"/>
  <unicode hex="00D8"/>
  <outline>
    <contour>
      <point x="609" y="647"/>
      <point x="617" y="670"/>
      <point x="625" y="693" type="curve"/>
      <point x="654" y="787"/>
      <point x="590" y="801"/>
      <point x="590" y="801" type="curve" smooth="yes"/>
      <point x="590" y="801"/>
      <point x="520" y="838"/>
      <point x="470" y="756" type="curve" smooth="yes"/>
      <point x="462" y="742"/>
      <point x="450" y="723"/>
      <point x="438" y="700" type="curve"/>
      <point x="420" y="702"/>
      <point x="402" y="703"/>
      <point x="382" y="703" type="curve" smooth="yes"/>
      <point x="382" y="703"/>
      <point x="22" y="740"/>
      <point x="22" y="326" type="curve"/>
      <point x="22" y="326"/>
      <point x="22" y="154"/>
      <point x="152" y="56" type="curve"/>
      <point x="142" y="23"/>
      <point x="134" y="-5"/>
      <point x="129" y="-27" type="curve" smooth="yes"/>
      <point x="113" y="-109"/>
      <point x="175" y="-126"/>
      <point x="175" y="-126" type="curve" smooth="yes"/>
      <point x="175" y="-126"/>
      <point x="234" y="-152"/>
      <point x="274" y="-84" type="curve"/>
      <point x="274" y="-84"/>
      <point x="290" y="-55"/>
      <point x="314" y="-7" type="curve"/>
      <point x="335" y="-10"/>
      <point x="358" y="-12"/>
      <point x="382" y="-12" type="curve"/>
      <point x="382" y="-12"/>
      <point x="702" y="-12"/>
      <point x="702" y="364" type="curve"/>
      <point x="702" y="364"/>
      <point x="702" y="523"/>
      <point x="600" y="623" type="curve"/>
    </contour>
    <contour>
      <point x="411" y="368"/>
      <point x="425" y="347"/>
      <point x="425" y="326" type="curve" smooth="yes"/>
      <point x="425" y="303"/>
      <point x="408" y="289"/>
      <point x="386" y="289" type="curve" smooth="yes"/>
      <point x="364" y="289"/>
      <point x="348" y="298"/>
      <point x="346" y="326" type="curve" smooth="yes"/>
      <point x="344" y="347"/>
      <point x="363" y="368"/>
      <point x="386" y="368" type="curve" smooth="yes"/>
    </contour>
  </outline>
</glyph>
<glyph name="Ugrave" format="1">
  <advance width="767"/>
  <unicode hex="00D9"/>
  <outline>
    <contour>
      <point x="271" y="957"/>
      <point x="248" y="938"/>
      <point x="228" y="919" type="curve"/>
      <point x="207" y="897"/>
      <point x="184" y="849"/>
      <point x="234" y="806" type="curve" smooth="yes"/>
      <point x="290" y="757"/>
      <point x="397" y="742"/>
      <point x="397" y="742" type="curve" smooth="yes"/>
      <point x="397" y="742"/>
      <point x="453" y="728"/>
      <point x="475" y="771" type="curve" smooth="yes"/>
      <point x="495" y="811"/>
      <point x="461" y="849"/>
      <point x="461" y="849" type="curve"/>
      <point x="439" y="877"/>
      <point x="374" y="923"/>
      <point x="331" y="937" type="curve" smooth="yes"/>
    </contour>
    <contour>
      <point x="202" y="711"/>
      <point x="69" y="727"/>
      <point x="37" y="559" type="curve"/>
      <point x="37" y="559"/>
      <point x="-8" y="297"/>
      <point x="92" y="127" type="curve"/>
      <point x="92" y="127"/>
      <point x="164" y="-13"/>
      <point x="380" y="-15" type="curve" smooth="yes"/>
      <point x="638" y="-17"/>
      <point x="697" y="201"/>
      <point x="697" y="201" type="curve" smooth="yes"/>
      <point x="697" y="201"/>
      <point x="754" y="393"/>
      <point x="709" y="594" type="curve"/>
      <point x="709" y="594"/>
      <point x="683" y="712"/>
      <point x="547" y="704" type="curve"/>
      <point x="547" y="704"/>
      <point x="404" y="712"/>
      <point x="408" y="559" type="curve" smooth="yes"/>
      <point x="411" y="445"/>
      <point x="418" y="345"/>
      <point x="370" y="345" type="curve" smooth="yes"/>
      <point x="321" y="345"/>
      <point x="331" y="445"/>
      <point x="331" y="559" type="curve" smooth="yes"/>
      <point x="331" y="711"/>
      <point x="202" y="711"/>
      <point x="202" y="711" type="curve" smooth="yes"/>
    </contour>
  </outline>
</glyph>
<glyph name="Uacute" format="1">
  <advance width="767"/>
  <unicode hex="00DA"/>
  <outline>
    <contour>
      <point x="271" y="852"/>
      <point x="237" y="814"/>
      <point x="257" y="774" type="curve" smooth="yes"/>
      <point x="279" y="731"/>
      <point x="335" y="745"/>
      <point x="335" y="745" type="curve" smooth="yes"/>
      <point x="335" y="745"/>
      <point x="442" y="760"/>
      <point x="498" y="809" type="curve" smooth="yes"/>
      <point x="548" y="852"/>
      <point x="525" y="900"/>
      <point x="504" y="922" type="curve"/>
      <point x="484" y="941"/>
      <point x="461" y="960"/>
      <point x="401" y="940" type="curve" smooth="yes"/>
      <point x="358" y="926"/>
      <point x="293" y="880"/>
      <point x="271" y="852" type="curve"/>
    </contour>
    <contour>
      <point x="202" y="711"/>
      <point x="69" y="727"/>
      <point x="37" y="559" type="curve"/>
      <point x="37" y="559"/>
      <point x="-8" y="297"/>
      <point x="92" y="127" type="curve"/>
      <point x="92" y="127"/>
      <point x="164" y="-13"/>
      <point x="380" y="-15" type="curve" smooth="yes"/>
      <point x="638" y="-17"/>
      <point x="697" y="201"/>
      <point x="697" y="201" type="curve" smooth="yes"/>
      <point x="697" y="201"/>
      <point x="754" y="393"/>
      <point x="709" y="594" type="curve"/>
      <point x="709" y="594"/>
      <point x="683" y="712"/>
      <point x="547" y="704" type="curve"/>
      <point x="547" y="704"/>
      <point x="404" y="712"/>
      <point x="408" y="559" type="curve" smooth="yes"/>
      <point x="411" y="445"/>
      <point x="418" y="345"/>
      <point x="370" y="345" type="curve" smooth="yes"/>
      <point x="321" y="345"/>
      <point x="331" y="445"/>
      <point x="331" y="559" type="curve" smooth="yes"/>
      <point x="331" y="711"/>
      <point x="202" y="711"/>
      <point x="202" y="711" type="curve" smooth="yes"/>
    </contour>
  </outline>
</glyph>
<glyph name="Ucircumflex" format="1">
  <advance width="767"/>
  <unicode hex="00DB"/>
  <outline>
    <contour>
      <point x="207" y="806"/>
      <point x="211" y="770"/>
      <point x="236" y="750" type="curve" smooth="yes"/>
      <point x="281" y="714"/>
      <point x="316" y="759"/>
      <point x="316" y="759" type="curve" smooth="yes"/>
      <point x="316" y="759"/>
      <point x="341" y="786"/>
      <point x="379" y="810" type="curve"/>
      <point x="410" y="793"/>
      <point x="433" y="762"/>
      <point x="434" y="762" type="curve"/>
      <point x="433" y="762" type="line"/>
      <point x="452" y="736"/>
      <point x="487" y="730"/>
      <point x="513" y="748" type="curve" smooth="yes"/>
      <point x="539" y="766"/>
      <point x="545" y="802"/>
      <point x="527" y="827" type="curve"/>
      <point x="525" y="830"/>
      <point x="453" y="924"/>
      <point x="379" y="924" type="curve" smooth="yes"/>
      <point x="302" y="924"/>
      <point x="229" y="833"/>
      <point x="227" y="830" type="curve"/>
    </contour>
    <contour>
      <point x="202" y="711"/>
      <point x="69" y="727"/>
      <point x="37" y="559" type="curve"/>
      <point x="37" y="559"/>
      <point x="-8" y="297"/>
      <point x="92" y="127" type="curve"/>
      <point x="92" y="127"/>
      <point x="164" y="-13"/>
      <point x="380" y="-15" type="curve" smooth="yes"/>
      <point x="638" y="-17"/>
      <point x="697" y="201"/>
      <point x="697" y="201" type="curve" smooth="yes"/>
      <point x="697" y="201"/>
      <point x="754" y="393"/>
      <point x="709" y="594" type="curve"/>
      <point x="709" y="594"/>
      <point x="683" y="712"/>
      <point x="547" y="704" type="curve"/>
      <point x="547" y="704"/>
      <point x="404" y="712"/>
      <point x="408" y="559" type="curve" smooth="yes"/>
      <point x="411" y="445"/>
      <point x="418" y="345"/>
      <point x="370" y="345" type="curve" smooth="yes"/>
      <point x="321" y="345"/>
      <point x="331" y="445"/>
      <point x="331" y="559" type="curve" smooth="yes"/>
      <point x="331" y="711"/>
      <point x="202" y="711"/>
      <point x="202" y="711" type="curve" smooth="yes"/>
    </contour>
  </outline>
</glyph>
